<svg width="40" height="40" viewBox="0 0 40 40" fill="none" xmlns="http://www.w3.org/2000/svg">
<g clip-path="url(#clip0_668_1301)">
<path d="M32.0712 19.9955C32.0712 19.2595 32.6667 18.6462 33.4026 18.6462H34.6667C34.3911 15.6072 33.1877 12.7625 31.3365 10.5424L30.4446 11.4343C29.9245 11.9544 29.0819 11.9544 28.5618 11.4343C28.0417 10.9142 28.0417 10.0716 28.5618 9.55149L29.4539 8.65948C27.2338 6.8074 24.3885 5.6037 21.3486 5.32812V6.59215C21.3486 7.32811 20.7354 7.92361 19.9994 7.92361C19.2635 7.92361 18.6679 7.32811 18.6679 6.59215V5.32821C15.6284 5.60379 12.7657 6.80731 10.5457 8.65895L11.4383 9.55158C11.9584 10.0717 11.9584 10.9143 11.4383 11.4344C10.9182 11.9545 10.0756 11.9545 9.55552 11.4344L8.66306 10.5419C6.81142 12.762 5.60781 15.607 5.33215 18.6464H6.59618C7.33214 18.6464 7.92764 19.2596 7.92764 19.9956C7.92764 20.7315 7.33214 21.327 6.59618 21.327H5.33215C6.00804 28.7794 12.3731 34.7302 19.9994 34.7302C27.6257 34.7302 33.9907 28.7794 34.6667 21.327H33.4026C32.6667 21.3269 32.0712 20.7314 32.0712 19.9955ZM13.3209 13.3171C13.841 12.797 14.6836 12.797 15.2037 13.3171L18.2887 16.401C18.8093 16.152 19.3848 16.0012 19.9993 16.0012C22.2019 16.0012 23.9937 17.7929 23.9937 19.9956C23.9937 20.6102 23.8427 21.1859 23.5937 21.7066L24.7076 22.8198C25.2276 23.3399 25.2276 24.2712 24.7076 24.7913C24.1875 25.3114 23.3449 25.3114 22.8248 24.7913L21.7111 23.5895C21.1903 23.8388 20.6143 23.99 19.9993 23.99C17.7968 23.99 16.0049 22.1983 16.0049 19.9956C16.0049 19.3806 16.1563 18.8045 16.4056 18.2836L13.3209 15.2C12.8009 14.6797 12.8009 13.8371 13.3209 13.3171ZM23.9937 30.7357H16.005C15.2691 30.7357 14.6736 30.1402 14.6736 29.4042C14.6736 28.6683 15.2691 28.055 16.005 28.055H23.9937C24.7296 28.055 25.3252 28.6683 25.3252 29.4042C25.3252 30.1402 24.7296 30.7357 23.9937 30.7357Z" fill="#C71E27"/>
<path d="M19.9994 18.8269C19.3546 18.8269 18.8269 19.3519 18.8269 19.9994C18.8269 20.6452 19.3524 21.1719 19.9994 21.1719C20.6463 21.1719 21.1719 20.6452 21.1719 19.9994C21.1719 19.3536 20.6463 18.8269 19.9994 18.8269Z" fill="#C71E27"/>
<path fill-rule="evenodd" clip-rule="evenodd" d="M5.82744 5.82736C13.5986 -1.94372 26.3991 -1.94607 34.1726 5.82736C41.9425 13.5985 41.9425 26.4002 34.1726 34.1725C26.4018 41.9431 13.5982 41.9433 5.82744 34.1725C-1.94248 26.4002 -1.94248 13.5985 5.82744 5.82736ZM8.66195 8.66308C14.8789 2.44658 25.1193 2.4447 31.3381 8.66308C37.554 14.8797 37.554 25.1204 31.3381 31.3379C25.1214 37.554 14.8786 37.5541 8.66195 31.3379C2.44602 25.1203 2.44602 14.8796 8.66195 8.66308Z" fill="#292929"/>
</g>
<defs>
<clipPath id="clip0_668_1301">
<rect width="40" height="40" fill="white"/>
</clipPath>
</defs>
</svg>
