<svg width="16" height="16" viewBox="0 0 16 16" fill="none" xmlns="http://www.w3.org/2000/svg">
<g clip-path="url(#clip0_1204_18)">
<path d="M15.7655 3.85243C15.4763 3.34639 14.9392 3.03114 14.3608 3.02285H3.78439L3.30514 1.14798C3.20599 0.774664 2.85895 0.517492 2.47886 0.534084H0.826286C0.371829 0.534084 0 0.907398 0 1.36367C0 1.81994 0.371829 2.19326 0.826286 2.19326H1.85088L4.13143 10.7048C4.23058 11.0781 4.57762 11.3353 4.95771 11.3187H12.3943C12.7083 11.3187 12.9892 11.1445 13.1297 10.8624L15.8399 5.42035C16.0795 4.9226 16.0465 4.3336 15.7655 3.85243Z" fill="black"/>
<path d="M4.5446 15.4667C5.22912 15.4667 5.78403 14.9095 5.78403 14.2223C5.78403 13.535 5.22912 12.9779 4.5446 12.9779C3.86009 12.9779 3.30518 13.535 3.30518 14.2223C3.30518 14.9095 3.86009 15.4667 4.5446 15.4667Z" fill="black"/>
<path d="M12.8074 15.4667C13.4919 15.4667 14.0469 14.9095 14.0469 14.2223C14.0469 13.535 13.4919 12.9779 12.8074 12.9779C12.1229 12.9779 11.568 13.535 11.568 14.2223C11.568 14.9095 12.1229 15.4667 12.8074 15.4667Z" fill="black"/>
</g>
<defs>
<clipPath id="clip0_1204_18">
<rect width="16" height="16" fill="white"/>
</clipPath>
</defs>
</svg>
