<svg width="16" height="17" viewBox="0 0 16 17" fill="none" xmlns="http://www.w3.org/2000/svg">
<path fill-rule="evenodd" clip-rule="evenodd" d="M13.0231 15.4321V5.35215C13.0231 4.83695 12.6063 4.41882 12.0928 4.41882C10.6402 4.41882 5.35945 4.41882 3.9068 4.41882C3.39331 4.41882 2.97656 4.83695 2.97656 5.35215V15.4321C2.97656 15.6262 3.07703 15.8061 3.24149 15.9084C3.40596 16.0107 3.61135 16.0197 3.784 15.9331L5.02307 15.3118L6.26214 15.9331C6.41917 16.0115 6.60373 16.0115 6.76075 15.9331L7.99982 15.3118L9.23889 15.9331C9.39591 16.0115 9.58047 16.0115 9.73749 15.9331L10.9766 15.3118L12.2156 15.9331C12.3883 16.0197 12.5937 16.0107 12.7581 15.9084C12.9226 15.8061 13.0231 15.6262 13.0231 15.4321ZM5.93098 10.6012L7.04726 11.7211C7.26531 11.9399 7.61805 11.9399 7.8361 11.7211L10.0687 9.48119C10.2867 9.26317 10.2867 8.90775 10.0687 8.68973C9.85135 8.47096 9.49712 8.47096 9.27982 8.68973L7.44168 10.5332L6.71982 9.80972C6.50252 9.59095 6.14828 9.59095 5.93098 9.80972C5.71293 10.0277 5.71293 10.3831 5.93098 10.6012Z" fill="black"/>
<path fill-rule="evenodd" clip-rule="evenodd" d="M2.23256 8.52546V5.35215C2.23256 4.42405 2.98195 3.67216 3.90698 3.67216H12.093C13.018 3.67216 13.7674 4.42405 13.7674 5.35215V8.52546H14.3256C14.7699 8.52546 15.1955 8.3485 15.5096 8.03341C15.8236 7.71832 16 7.29123 16 6.84547C16 5.68889 16 3.89541 16 2.73883C16 1.81073 15.2506 1.05884 14.3256 1.05884H1.67442C0.749395 1.05884 0 1.81073 0 2.73883V6.84547C0 7.29123 0.176372 7.71832 0.490419 8.03341C0.804465 8.3485 1.23014 8.52546 1.67442 8.52546H2.23256Z" fill="black"/>
</svg>
