<svg width="45" height="50" viewBox="0 0 45 50" fill="none" xmlns="http://www.w3.org/2000/svg">
<path d="M36.8353 1.40479C36.3365 0.538281 35.408 0 34.4125 0H24.0079V12.3669H43.1449L36.8353 1.40479Z" fill="#DADADA"/>
<path d="M21.0913 0H10.5885C9.591 0 8.66259 0.539258 8.16384 1.40771L1.87744 12.3669H21.0912V0H21.0913Z" fill="#DADADA"/>
<path d="M0.833374 15.2979V46.5546C0.833374 48.4547 2.37239 50.0002 4.26332 50.0002H40.7368C42.6277 50.0002 44.1667 48.4547 44.1667 46.5546V15.2979H0.833374Z" fill="#DADADA"/>
<path fill-rule="evenodd" clip-rule="evenodd" d="M30.0711 28.7574C30.8521 27.9764 30.8521 26.71 30.0711 25.929C29.29 25.1479 28.0237 25.1479 27.2426 25.929L23 30.1716L18.7574 25.929C17.9763 25.1479 16.71 25.1479 15.9289 25.929C15.1479 26.71 15.1479 27.9764 15.9289 28.7574L20.1716 33L15.9289 37.2427C15.1479 38.0237 15.1479 39.2901 15.9289 40.0711C16.71 40.8522 17.9763 40.8522 18.7574 40.0711L23 35.8285L27.2426 40.0711C28.0237 40.8522 29.29 40.8522 30.0711 40.0711C30.8521 39.2901 30.8521 38.0237 30.0711 37.2427L25.8284 33L30.0711 28.7574Z" fill="white"/>
</svg>
