<svg width="40" height="40" viewBox="0 0 40 40" fill="none" xmlns="http://www.w3.org/2000/svg">
<g clip-path="url(#clip0_929_15323)">
<path d="M18.7062 40C9.1114 40 1.33328 32.278 1.33328 22.7523C1.33328 13.2267 9.1114 5.5046 18.7062 5.5046V9.90827C11.5612 9.90827 5.76892 15.6587 5.76892 22.7523C5.76892 29.8459 11.5612 35.5963 18.7062 35.5963V40Z" fill="#292929"/>
<path d="M18.7062 0H16.1972C15.1331 0 14.2706 0.862571 14.2706 1.92661V9.54128H18.7062V0Z" fill="#292929"/>
<path d="M20 40C29.5948 40 37.3729 32.278 37.3729 22.7523C37.3729 13.2267 29.5948 5.5046 20 5.5046V9.90827C27.1451 9.90827 32.9373 15.6587 32.9373 22.7523C32.9373 29.8459 27.1451 35.5963 20 35.5963V40Z" fill="#C71E27"/>
<path d="M20 0H22.509C23.5731 0 24.4356 0.862571 24.4356 1.92661V9.54128H20V0Z" fill="#C71E27"/>
</g>
<defs>
<clipPath id="clip0_929_15323">
<rect width="40" height="40" fill="white"/>
</clipPath>
</defs>
</svg>
