<svg width="20" height="20" viewBox="0 0 20 20" fill="none" xmlns="http://www.w3.org/2000/svg">
<g clip-path="url(#clip0_642_18605)">
<path d="M5.91669 1.17188H1.83335V0.585938C1.83335 0.262344 1.57218 0 1.25002 0C0.927865 0 0.666687 0.262344 0.666687 0.585938V19.4141C0.666687 19.7377 0.927865 20 1.25002 20C1.57218 20 1.83335 19.7377 1.83335 19.4141V18.75H5.91669C6.88152 18.75 7.66669 17.9613 7.66669 16.9922V2.92969C7.66669 1.96055 6.88152 1.17188 5.91669 1.17188ZM4.33741 11.8902L4.93202 11.2934L3.32241 10.4852C2.96696 10.3063 2.88958 9.8293 3.17074 9.54648L4.33741 8.37461C4.88302 7.82695 5.70863 8.65469 5.16263 9.20352L4.56802 9.80039L6.17763 10.6086C6.53308 10.7875 6.61047 11.2645 6.3293 11.5473L5.16263 12.7191C4.61702 13.2668 3.79141 12.4391 4.33741 11.8902ZM5.91669 16.4062C5.59469 16.4062 5.33335 16.1437 5.33335 15.8203C5.33335 15.4969 5.59469 15.2344 5.91669 15.2344C6.23869 15.2344 6.50002 15.4969 6.50002 15.8203C6.50002 16.1437 6.23869 16.4062 5.91669 16.4062ZM5.91669 4.6875C5.59469 4.6875 5.33335 4.425 5.33335 4.10156C5.33335 3.77813 5.59469 3.51562 5.91669 3.51562C6.23869 3.51562 6.50002 3.77813 6.50002 4.10156C6.50002 4.425 6.23869 4.6875 5.91669 4.6875Z" fill="#C71E27"/>
<path d="M10 9.96074C10 9.19707 9.51237 8.54512 8.83337 8.30371V11.6178C9.51237 11.3764 10 10.7244 10 9.96074Z" fill="#C71E27"/>
<path d="M8.83337 4.71973V7.09004C10.163 7.36191 11.1667 8.54551 11.1667 9.96074C11.1667 11.376 10.163 12.5596 8.83337 12.8314V15.2018C11.4549 14.9096 13.5 12.6705 13.5 9.96074C13.5 7.25098 11.4549 5.01191 8.83337 4.71973Z" fill="#292929"/>
<path d="M17.5833 0C16.6185 0 15.8333 0.788672 15.8333 1.75781C15.8333 2.02891 15.8948 2.28594 16.0044 2.51523L12.9528 5.58047C13.148 5.78355 13.4357 6.1425 13.6715 6.51562L16.8293 3.34375C17.0575 3.45391 17.3134 3.51562 17.5833 3.51562C18.5482 3.51562 19.3333 2.72695 19.3333 1.75781C19.3333 0.788672 18.5482 0 17.5833 0Z" fill="#C71E27"/>
</g>
<defs>
<clipPath id="clip0_642_18605">
<rect width="20" height="20" fill="white"/>
</clipPath>
</defs>
</svg>
