<svg width="20" height="20" viewBox="0 0 20 20" fill="none" xmlns="http://www.w3.org/2000/svg">
<g clip-path="url(#clip0_642_32652)">
<path d="M9.35309 20.0001C4.55568 20.0001 0.66662 16.1391 0.66662 11.3763C0.66662 6.61347 4.55568 2.75244 9.35309 2.75244V4.95428C5.78056 4.95428 2.88444 7.82951 2.88444 11.3763C2.88444 14.9231 5.78056 17.7983 9.35309 17.7983V20.0001Z" fill="#292929"/>
<path d="M9.35309 0H9.06187C7.99784 0 7.13527 0.862571 7.13527 1.92661V4.77064H9.35309V0Z" fill="#292929"/>
<path d="M10 20.0001C14.7974 20.0001 18.6865 16.1391 18.6865 11.3763C18.6865 6.61347 14.7974 2.75244 10 2.75244V4.95428C13.5725 4.95428 16.4686 7.82951 16.4686 11.3763C16.4686 14.9231 13.5725 17.7983 10 17.7983V20.0001Z" fill="#C71E27"/>
<path d="M10 0H10.2912C11.3553 0 12.2178 0.862571 12.2178 1.92661V4.77064H10V0Z" fill="#C71E27"/>
</g>
<defs>
<clipPath id="clip0_642_32652">
<rect width="20" height="20" fill="white"/>
</clipPath>
</defs>
</svg>
