<svg width="16" height="16" viewBox="0 0 16 16" fill="none" xmlns="http://www.w3.org/2000/svg">
<path d="M15.4853 11.52C15.4416 11.4853 12.2667 9.1968 11.3952 9.36107C10.9792 9.43467 10.7413 9.7184 10.264 10.2864C10.1872 10.3781 10.0027 10.5979 9.8592 10.7541C9.55754 10.6557 9.26329 10.536 8.97867 10.3957C7.50961 9.68054 6.32266 8.49359 5.60747 7.02453C5.46713 6.73996 5.34736 6.44569 5.24907 6.144C5.40587 6 5.6256 5.81547 5.71947 5.73653C6.2848 5.26187 6.56907 5.024 6.64267 4.60693C6.7936 3.74293 4.50667 0.546133 4.48267 0.517333C4.37891 0.369104 4.24349 0.245793 4.08623 0.156322C3.92896 0.06685 3.75377 0.013455 3.57333 0C2.6464 0 0 3.43307 0 4.0112C0 4.0448 0.0485334 7.46027 4.26027 11.7445C8.54027 15.9515 11.9552 16 11.9888 16C12.5675 16 16 13.3536 16 12.4267C15.9867 12.2469 15.9336 12.0723 15.8446 11.9155C15.7556 11.7587 15.6329 11.6236 15.4853 11.52Z" fill="#C71E27"/>
</svg>
