<svg width="23" height="23" viewBox="0 0 23 23" fill="none" xmlns="http://www.w3.org/2000/svg">
<path d="M22.663 5.53794C22.2473 4.8105 21.4752 4.35734 20.6438 4.34541H5.44012L4.7512 1.65029C4.60867 1.11365 4.1098 0.743964 3.56342 0.767814H1.18785C0.534565 0.767814 6.10352e-05 1.30445 6.10352e-05 1.96035C6.10352e-05 2.61624 0.534565 3.15288 1.18785 3.15288H2.6607L5.93899 15.3883C6.08152 15.9249 6.58039 16.2946 7.12678 16.2707H17.8168C18.2682 16.2707 18.6721 16.0203 18.874 15.6148L22.7699 7.79183C23.1144 7.07631 23.0669 6.22961 22.663 5.53794Z" fill="#C71E27"/>
<path d="M6.5329 22.2334C7.51689 22.2334 8.31458 21.4325 8.31458 20.4446C8.31458 19.4566 7.51689 18.6558 6.5329 18.6558C5.54891 18.6558 4.75122 19.4566 4.75122 20.4446C4.75122 21.4325 5.54891 22.2334 6.5329 22.2334Z" fill="#C71E27"/>
<path d="M18.4107 22.2334C19.3947 22.2334 20.1924 21.4325 20.1924 20.4446C20.1924 19.4566 19.3947 18.6558 18.4107 18.6558C17.4267 18.6558 16.629 19.4566 16.629 20.4446C16.629 21.4325 17.4267 22.2334 18.4107 22.2334Z" fill="#C71E27"/>
</svg>
