<svg width="16" height="16" viewBox="0 0 16 16" fill="none" xmlns="http://www.w3.org/2000/svg">
<path d="M15.7655 3.85231C15.4763 3.34626 14.9392 3.03102 14.3608 3.02272H3.78439L3.30514 1.14786C3.20599 0.774542 2.85895 0.51737 2.47886 0.533962H0.826286C0.371829 0.533962 0 0.907276 0 1.36355C0 1.81982 0.371829 2.19314 0.826286 2.19314H1.85088L4.13143 10.7047C4.23058 11.078 4.57762 11.3352 4.95771 11.3186H12.3943C12.7083 11.3186 12.9892 11.1444 13.1297 10.8623L15.8399 5.42023C16.0795 4.92248 16.0465 4.33347 15.7655 3.85231Z" fill="#DADADA"/>
<path d="M4.5446 15.4663C5.22912 15.4663 5.78403 14.9092 5.78403 14.2219C5.78403 13.5347 5.22912 12.9775 4.5446 12.9775C3.86009 12.9775 3.30518 13.5347 3.30518 14.2219C3.30518 14.9092 3.86009 15.4663 4.5446 15.4663Z" fill="#DADADA"/>
<path d="M12.8073 15.4663C13.4918 15.4663 14.0467 14.9092 14.0467 14.2219C14.0467 13.5347 13.4918 12.9775 12.8073 12.9775C12.1228 12.9775 11.5679 13.5347 11.5679 14.2219C11.5679 14.9092 12.1228 15.4663 12.8073 15.4663Z" fill="#DADADA"/>
</svg>
