<svg width="12" height="12" viewBox="0 0 12 12" fill="none" xmlns="http://www.w3.org/2000/svg">
<g clip-path="url(#clip0_63_1123)">
<path d="M9.35706 4.55412C9.32409 4.51358 9.28412 4.52155 9.26319 4.52982C9.24564 4.5368 9.20544 4.55912 9.211 4.61504C9.21768 4.68219 9.22143 4.75065 9.22215 4.81855C9.22513 5.10022 9.11004 5.37617 8.9064 5.57564C8.70405 5.77383 8.4379 5.88061 8.15452 5.87752C7.76744 5.87267 7.44639 5.67446 7.22606 5.30431C7.04388 4.99824 7.12395 4.60348 7.20873 4.18552C7.25834 3.94089 7.30964 3.6879 7.30964 3.44713C7.30964 1.57239 6.02587 0.490804 5.26062 0.0129392C5.24479 0.00307201 5.22973 -0.000396729 5.21639 -0.000396729C5.19468 -0.000396729 5.1775 0.00879074 5.16902 0.0144157C5.1526 0.0253375 5.12631 0.0502281 5.13476 0.0942904C5.42726 1.61917 4.55483 2.5363 3.63116 3.50727C2.67908 4.50812 1.59998 5.64251 1.59998 7.68841C1.59998 10.0656 3.56995 11.9996 5.99139 11.9996C7.98512 11.9996 9.74295 10.635 10.2661 8.6811C10.6228 7.34885 10.249 5.65179 9.35706 4.55412ZM6.10095 11.0794C5.49461 11.1065 4.91797 10.893 4.47752 10.4796C4.04181 10.0706 3.7919 9.49975 3.7919 8.91348C3.7919 7.81331 4.22038 7.00565 5.37285 5.93344C5.39171 5.91588 5.41103 5.91033 5.42786 5.91033C5.44311 5.91033 5.45634 5.9149 5.46543 5.91919C5.4846 5.92826 5.51612 5.95071 5.51187 5.99928C5.47066 6.47002 5.47138 6.86074 5.51397 7.16065C5.62283 7.9267 6.19405 8.44141 6.93545 8.44141C7.29894 8.44141 7.64518 8.30711 7.91039 8.06324C7.94117 8.03493 7.97554 8.03854 7.98872 8.04128C8.00617 8.04499 8.02955 8.05549 8.04179 8.08448C8.15175 8.34513 8.20795 8.6218 8.20881 8.90678C8.21232 10.0535 7.26674 11.0281 6.10095 11.0794Z" fill="white"/>
</g>
<defs>
<clipPath id="clip0_63_1123">
<rect width="12" height="12" fill="white"/>
</clipPath>
</defs>
</svg>
