<svg width="16" height="16" viewBox="0 0 16 16" fill="none" xmlns="http://www.w3.org/2000/svg">
<g clip-path="url(#clip0_626_9159)">
<path d="M8.00103 8.3084C10.2992 8.3084 12.1779 6.43993 12.1779 4.1542C12.1779 1.86847 10.2992 0 8.00103 0C5.70284 0 3.82422 1.86847 3.82422 4.1542C3.82422 6.43993 5.70288 8.3084 8.00103 8.3084Z" fill="#292929"/>
<path d="M15.1693 11.6281C15.0598 11.356 14.9139 11.102 14.7498 10.8662C13.9107 9.63262 12.6158 8.81631 11.1566 8.61676C10.9742 8.59863 10.7736 8.63488 10.6277 8.74374C9.86161 9.3061 8.94965 9.59634 8.00118 9.59634C7.0527 9.59634 6.14075 9.3061 5.37468 8.74374C5.22875 8.63488 5.02812 8.58047 4.84574 8.61676C3.38658 8.81631 2.07335 9.63262 1.25258 10.8662C1.08843 11.102 0.942497 11.3742 0.833085 11.6281C0.778378 11.737 0.796602 11.8639 0.851308 11.9728C0.997238 12.2268 1.17962 12.4808 1.34377 12.6984C1.59911 13.0431 1.87271 13.3515 2.1828 13.6417C2.43814 13.8957 2.72996 14.1315 3.02182 14.3673C4.46273 15.4377 6.19549 16 7.98295 16C9.77042 16 11.5032 15.4376 12.9441 14.3673C13.2359 14.1497 13.5277 13.8957 13.7831 13.6417C14.0749 13.3515 14.3668 13.0431 14.6221 12.6984C14.8045 12.4626 14.9687 12.2268 15.1146 11.9728C15.2058 11.8639 15.224 11.7369 15.1693 11.6281Z" fill="#292929"/>
</g>
<defs>
<clipPath id="clip0_626_9159">
<rect width="16" height="16" fill="white"/>
</clipPath>
</defs>
</svg>
