<svg width="16" height="16" viewBox="0 0 16 16" fill="none" xmlns="http://www.w3.org/2000/svg">
<path fill-rule="evenodd" clip-rule="evenodd" d="M9.54532 5.03369C9.04936 6.83801 7.06919 10.1228 5.01588 10.1228C2.92252 10.1228 0.958098 6.74927 0.486558 5.03369C0.20317 5.03369 0 5.20837 0 5.50232V14.1003C0 14.3591 0.193036 14.569 0.431126 14.569H1.53721C1.70765 15.3932 2.43731 16 3.29687 16C4.15644 16 4.88621 15.3932 5.05654 14.569H9.60063C9.83885 14.569 10.0319 14.3591 10.0319 14.1003V5.50232C10.0319 5.20837 9.82871 5.03369 9.54532 5.03369ZM3.90455 14.8112C3.36476 15.3508 2.43743 14.9669 2.43743 14.2035C2.43743 13.4402 3.36476 13.0563 3.90455 13.5959C4.2402 13.9314 4.2402 14.4756 3.90455 14.8112Z" fill="#292929"/>
<path fill-rule="evenodd" clip-rule="evenodd" d="M14.5483 9.81392H12.3746C12.1157 9.81392 11.9059 9.6042 11.9059 9.34529C11.9059 9.0865 12.1157 8.87666 12.3746 8.87666H13.9896L13.6291 8.27205C13.1376 7.44722 12.3856 6.87947 11.493 6.64875C11.3479 6.61128 11.2072 6.64021 11.0887 6.73201C10.9702 6.8238 10.907 6.95271 10.907 7.10249V14.0943C10.907 14.3524 11.1175 14.5629 11.3757 14.5629H11.6927C11.8607 15.3901 12.5917 16.0001 13.4536 16.0001C14.3155 16.0001 15.0464 15.3901 15.2145 14.5629H15.5314C15.7903 14.5629 16.0001 14.3531 16.0001 14.0943V11.2824C16.0001 10.4632 15.3632 9.83198 14.5483 9.81392ZM14.0612 14.8112C13.5215 15.3509 12.5941 14.967 12.5941 14.2036C12.5941 13.4403 13.5215 13.0563 14.0612 13.596C14.3969 13.9315 14.3969 14.4757 14.0612 14.8112Z" fill="#292929"/>
<path fill-rule="evenodd" clip-rule="evenodd" d="M5.41638 4.17925C5.6377 3.95793 5.6377 3.59905 5.41638 3.37773C5.06055 3.0219 4.44897 3.27495 4.44897 3.77849C4.44897 4.28203 5.06055 4.53508 5.41638 4.17925Z" fill="#292929"/>
<path fill-rule="evenodd" clip-rule="evenodd" d="M5.01585 9.18542C5.75808 9.18542 6.75293 8.28772 7.52397 7.13769C8.23666 6.07471 8.79525 4.77063 8.79525 3.77856C8.79525 1.69177 7.1031 0 5.01585 0C2.92872 0 1.23657 1.69177 1.23657 3.77856C1.23657 4.77063 1.79517 6.07471 2.50785 7.13769C3.27877 8.28772 4.27374 9.18542 5.01585 9.18542ZM5.01585 2.27454C5.8466 2.27454 6.52021 2.948 6.52021 3.77856C6.52021 4.60901 5.8466 5.28247 5.01585 5.28247C4.18522 5.28247 3.51161 4.60901 3.51161 3.77856C3.51161 2.948 4.18522 2.27454 5.01585 2.27454Z" fill="#292929"/>
</svg>
