<svg width="20" height="21" viewBox="0 0 20 21" fill="none" xmlns="http://www.w3.org/2000/svg">
<path d="M20 7.40739V18.5376C19.9994 19.1304 19.7651 19.6988 19.3485 20.118C18.9319 20.5371 18.367 20.7729 17.7778 20.7735H14.0741C13.6812 20.7735 13.3043 20.6164 13.0265 20.3369C12.7487 20.0574 12.5926 19.6782 12.5926 19.2829V15.1838C12.5926 14.9861 12.5146 14.7966 12.3756 14.6568C12.2367 14.517 12.0483 14.4385 11.8519 14.4385H8.14815C7.95169 14.4385 7.76328 14.517 7.62437 14.6568C7.48545 14.7966 7.40741 14.9861 7.40741 15.1838V19.2829C7.40741 19.6782 7.25132 20.0574 6.97349 20.3369C6.69566 20.6164 6.31884 20.7735 5.92593 20.7735H2.22222C1.63303 20.7729 1.06814 20.5371 0.651524 20.118C0.234904 19.6988 0.000588307 19.1304 0 18.5376V7.40739C0.00055429 7.15 0.0670316 6.8971 0.193018 6.67308C0.319004 6.44906 0.500247 6.2615 0.719259 6.12848L9.23778 0.985972C9.46807 0.846902 9.7316 0.773438 10.0002 0.773438C10.2688 0.773438 10.5323 0.846902 10.7626 0.985972L19.2811 6.12848C19.5001 6.26154 19.6812 6.44913 19.8071 6.67314C19.9331 6.89715 19.9995 7.15004 20 7.40739Z" fill="black"/>
</svg>
