<svg width="23" height="24" viewBox="0 0 23 24" fill="none" xmlns="http://www.w3.org/2000/svg">
<g clip-path="url(#clip0_956_13866)">
<path d="M11.5 0.5C9.22552 0.5 7.00211 1.17446 5.11095 2.4381C3.21978 3.70174 1.7458 5.49779 0.87539 7.59914C0.00498281 9.70049 -0.222756 12.0128 0.220974 14.2435C0.664704 16.4743 1.75997 18.5234 3.36828 20.1317C4.97658 21.74 7.02568 22.8353 9.25646 23.279C11.4872 23.7228 13.7995 23.495 15.9009 22.6246C18.0022 21.7542 19.7983 20.2802 21.0619 18.3891C22.3255 16.4979 23 14.2745 23 12C22.9964 8.95111 21.7836 6.02813 19.6278 3.87224C17.4719 1.71636 14.5489 0.503597 11.5 0.5ZM15.3755 15.8755C15.1795 16.0715 14.9136 16.1816 14.6364 16.1816C14.3591 16.1816 14.0933 16.0715 13.8972 15.8755L10.7609 12.7391C10.5648 12.5431 10.4546 12.2772 10.4545 12V5.72727C10.4545 5.45 10.5647 5.18408 10.7608 4.98802C10.9568 4.79196 11.2227 4.68182 11.5 4.68182C11.7773 4.68182 12.0432 4.79196 12.2393 4.98802C12.4353 5.18408 12.5455 5.45 12.5455 5.72727V11.5672L15.3755 14.3972C15.5715 14.5933 15.6816 14.8591 15.6816 15.1364C15.6816 15.4136 15.5715 15.6794 15.3755 15.8755Z" fill="#C71E27"/>
</g>
<defs>
<clipPath id="clip0_956_13866">
<rect width="23" height="23" fill="white" transform="translate(0 0.5)"/>
</clipPath>
</defs>
</svg>
