<svg width="24" height="24" viewBox="0 0 24 24" fill="none" xmlns="http://www.w3.org/2000/svg">
<g clip-path="url(#clip0_956_15393)">
<path d="M17.106 1.26667C15.0245 1.26667 13.1615 2.29004 12 3.85998C10.8385 2.29004 8.9755 1.26667 6.894 1.26667C3.3635 1.26667 0.5 4.17397 0.5 7.7674C0.5 9.15127 0.7185 10.4305 1.098 11.6167C2.915 17.4313 8.5155 20.9084 11.287 21.862C11.678 22.0016 12.322 22.0016 12.713 21.862C15.4845 20.9084 21.085 17.4313 22.902 11.6167C23.2815 10.4305 23.5 9.15127 23.5 7.7674C23.5 4.17397 20.6365 1.26667 17.106 1.26667Z" fill="#292929"/>
</g>
<defs>
<clipPath id="clip0_956_15393">
<rect width="23" height="23" fill="white" transform="translate(0.5 0.5)"/>
</clipPath>
</defs>
</svg>
