<svg width="21" height="20" viewBox="0 0 21 20" fill="none" xmlns="http://www.w3.org/2000/svg">
<mask id="mask0_1226_8" style="mask-type:luminance" maskUnits="userSpaceOnUse" x="0" y="0" width="21" height="20">
<path d="M20.5 0H0.5V20H20.5V0Z" fill="white"/>
</mask>
<g mask="url(#mask0_1226_8)">
<path d="M10.5001 0.00012207C8.55595 0.00275962 6.69219 0.793782 5.31748 2.19973C3.94277 3.60568 3.16933 5.5118 3.16675 7.50012C3.16675 12.8844 9.99897 19.6282 10.2892 19.9126C10.3457 19.9687 10.4213 20.0001 10.5001 20.0001C10.5788 20.0001 10.6545 19.9687 10.7109 19.9126C11.0012 19.6282 17.8334 12.8844 17.8334 7.50012C17.8308 5.5118 17.0574 3.60568 15.6827 2.19973C14.308 0.793782 12.4442 0.00275962 10.5001 0.00012207ZM10.5001 10.9376C9.83532 10.9376 9.18548 10.736 8.63275 10.3582C8.08002 9.98057 7.64921 9.44371 7.39482 8.81559C7.14043 8.18747 7.07386 7.4963 7.20355 6.82949C7.33324 6.16268 7.65336 5.55018 8.12342 5.06944C8.59348 4.5887 9.19237 4.26131 9.84436 4.12867C10.4964 3.99603 11.1722 4.06411 11.7863 4.32428C12.4005 4.58446 12.9254 5.02505 13.2947 5.59034C13.6641 6.15564 13.8612 6.82024 13.8612 7.50012C13.8607 8.41163 13.5064 9.28565 12.8762 9.93019C12.2459 10.5747 11.3913 10.937 10.5001 10.9376Z" fill="black"/>
</g>
</svg>
