<svg width="17" height="16" viewBox="0 0 17 16" fill="none" xmlns="http://www.w3.org/2000/svg">
<g clip-path="url(#clip0_550_37591)">
<path d="M5.20587 5.41175H0.5V0.941188C0.5 0.421375 0.921375 0 1.44119 0H5.20591V1.41175C5.20591 1.67166 5.41659 1.88234 5.6765 1.88234C5.93641 1.88234 6.14709 1.67166 6.14709 1.41175V0H15.5588C16.0786 0 16.5 0.421375 16.5 0.941188V5.41178H14.1471C13.8872 5.41178 13.6765 5.62247 13.6765 5.88237C13.6765 6.14228 13.8872 6.35297 14.1471 6.35297H16.5V15.0588C16.5 15.5786 16.0786 16 15.5588 16H1.44119C0.921375 16 0.5 15.5786 0.5 15.0588V11.2941H4.08578L6.06972 13.0576C6.26397 13.2303 6.56141 13.2128 6.73409 13.0185C6.90675 12.8243 6.88928 12.5268 6.69503 12.3542L4.57737 10.4718C4.49122 10.3952 4.38 10.3529 4.26472 10.3529H0.5V6.35294H8.97059V10.3529H8.02941C7.7695 10.3529 7.55881 10.5636 7.55881 10.8235C7.55881 11.0834 7.7695 11.2941 8.02941 11.2941H9.44116C9.70106 11.2941 9.91175 11.0834 9.91175 10.8235V6.35294H10.8529C11.1128 6.35294 11.3235 6.14225 11.3235 5.88234C11.3235 5.62244 11.1128 5.41175 10.8529 5.41175H6.14706V4.47056C6.14706 4.21066 5.93638 3.99997 5.67647 3.99997C5.41656 3.99997 5.20587 4.21066 5.20587 4.47056V5.41175Z" fill="#DADADA"/>
</g>
<defs>
<clipPath id="clip0_550_37591">
<rect width="16" height="16" fill="white" transform="translate(0.5)"/>
</clipPath>
</defs>
</svg>
