<svg width="20" height="20" viewBox="0 0 20 20" fill="none" xmlns="http://www.w3.org/2000/svg">
<g clip-path="url(#clip0_642_11925)">
<path fill-rule="evenodd" clip-rule="evenodd" d="M17.6176 3.87952C17.6217 3.8973 17.6239 3.91585 17.6239 3.93492C17.6239 3.95393 17.6217 3.97243 17.6176 3.99019V13.1432V14.5449C17.6176 15.2096 18.1517 15.7501 18.8088 15.7501C19.4659 15.7501 20 15.2097 20 14.5449L20.0001 2.53914C20.0001 1.87436 19.4659 1.33351 18.8088 1.3335C18.1518 1.3335 17.6176 1.87438 17.6176 2.53915L17.6176 3.87952Z" fill="#292929"/>
<path fill-rule="evenodd" clip-rule="evenodd" d="M5.0994 12.9004C5.09758 12.8716 5.09658 12.8427 5.09658 12.8135L5.09662 4.27037C5.09662 4.23938 5.09771 4.20868 5.09975 4.17822L2.86292 4.18264L2.86294 12.9004H3.44374L5.0994 12.9004Z" fill="#C71E27"/>
<path fill-rule="evenodd" clip-rule="evenodd" d="M6.28324 3.48243C5.9803 3.48243 5.72123 3.69601 5.62095 3.99535C5.61865 4.00434 5.61585 4.01316 5.6126 4.02171C5.58922 4.0999 5.57654 4.18347 5.57654 4.2703L5.57658 12.8134C5.57658 12.8992 5.58896 12.9817 5.61177 13.0591C5.61453 13.0666 5.61694 13.0744 5.61896 13.0823C5.71773 13.3848 5.97822 13.6013 6.28317 13.6013C6.67274 13.6013 6.98981 13.2481 6.98981 12.8134V4.2703C6.98981 3.83567 6.67273 3.48244 6.28324 3.48243Z" fill="#C71E27"/>
<path fill-rule="evenodd" clip-rule="evenodd" d="M8.88304 4.27342L8.88303 4.26854C8.88218 3.83472 8.5654 3.48242 8.17636 3.48242C7.78687 3.48241 7.46973 3.83567 7.46973 4.27028V12.8134C7.46973 13.248 7.7868 13.6013 8.17636 13.6013C8.56599 13.6013 8.883 13.248 8.883 12.8134L8.88304 4.27342Z" fill="#C71E27"/>
<path fill-rule="evenodd" clip-rule="evenodd" d="M10.7759 4.27237C10.7754 3.83829 10.4589 3.48242 10.0697 3.48242C9.67975 3.48241 9.36304 3.83567 9.36304 4.27028L9.36308 12.8134C9.36397 13.2472 9.68022 13.6013 10.0697 13.6013C10.4592 13.6013 10.7759 13.248 10.7759 12.8134L10.7759 4.27237Z" fill="#C71E27"/>
<path fill-rule="evenodd" clip-rule="evenodd" d="M15.0392 4.17773C15.0412 4.20837 15.0424 4.23928 15.0424 4.27047L15.0424 12.8136C15.0424 12.8428 15.0414 12.8717 15.0395 12.9005H17.1377V4.17775L15.0392 4.17773Z" fill="#C71E27"/>
<path fill-rule="evenodd" clip-rule="evenodd" d="M12.6692 4.2755L12.6691 4.27028C12.6677 3.83699 12.3511 3.48242 11.9624 3.48242C11.5729 3.48241 11.2558 3.83567 11.2558 4.27028L11.2558 12.8134C11.2567 13.2472 11.5734 13.6013 11.9624 13.6013C12.352 13.6013 12.6691 13.248 12.6691 12.8134L12.6692 4.2755Z" fill="#C71E27"/>
<path fill-rule="evenodd" clip-rule="evenodd" d="M13.1491 12.8163C13.1506 13.2496 13.467 13.6013 13.8557 13.6013C14.1527 13.6013 14.4074 13.3961 14.5118 13.1061C14.5156 13.0813 14.5231 13.0576 14.5337 13.0359C14.5523 12.9653 14.5624 12.8907 14.5624 12.8134L14.5624 4.27028C14.5624 4.18415 14.5499 4.10123 14.5269 4.02361C14.5231 4.01397 14.52 4.00403 14.5175 3.99383C14.4168 3.69529 14.1581 3.48242 13.8557 3.48242C13.4662 3.48241 13.1491 3.83567 13.1491 4.27028L13.1491 12.8163Z" fill="#C71E27"/>
<path fill-rule="evenodd" clip-rule="evenodd" d="M3.68372 13.3862L3.68377 18.2893C3.68377 18.4676 3.98578 18.667 4.38993 18.667C4.79457 18.667 5.09657 18.4676 5.09657 18.2893L5.09661 13.3862L3.68372 13.3862Z" fill="#C71E27"/>
<path fill-rule="evenodd" clip-rule="evenodd" d="M1.19135 1.38038C0.534764 1.38038 0.00012207 1.92123 0.00012207 2.58602V14.5917C0.00012207 15.2561 0.534699 15.7969 1.19133 15.7969C1.84842 15.7969 2.38292 15.2561 2.38292 14.5917V13.1435L2.38295 3.94271V3.93864V2.586C2.38295 1.92121 1.84839 1.38038 1.19135 1.38038Z" fill="#292929"/>
</g>
<defs>
<clipPath id="clip0_642_11925">
<rect width="20" height="20" fill="white"/>
</clipPath>
</defs>
</svg>
