<svg width="30" height="30" viewBox="0 0 30 30" fill="none" xmlns="http://www.w3.org/2000/svg">
<g clip-path="url(#clip0_445_16118)">
<path d="M29.5604 7.22333C29.0181 6.27449 28.0111 5.68341 26.9266 5.66785H7.09573L6.19714 2.15248C6.01123 1.45251 5.36053 0.970313 4.64786 1.00142H1.54929C0.697179 1.00142 0 1.70139 0 2.5569C0 3.41241 0.697179 4.11238 1.54929 4.11238H3.4704L7.74643 20.0716C7.93234 20.7715 8.58304 21.2537 9.29572 21.2226H23.2393C23.828 21.2226 24.3548 20.896 24.6182 20.3671L29.6998 10.1632C30.1491 9.22989 30.0871 8.1255 29.5604 7.22333Z" fill="#292929"/>
<path d="M8.52107 29C9.80454 29 10.845 27.9554 10.845 26.6668C10.845 25.3782 9.80454 24.3336 8.52107 24.3336C7.2376 24.3336 6.19714 25.3782 6.19714 26.6668C6.19714 27.9554 7.2376 29 8.52107 29Z" fill="#292929"/>
<path d="M24.0139 29C25.2973 29 26.3378 27.9554 26.3378 26.6668C26.3378 25.3782 25.2973 24.3336 24.0139 24.3336C22.7304 24.3336 21.6899 25.3782 21.6899 26.6668C21.6899 27.9554 22.7304 29 24.0139 29Z" fill="#292929"/>
</g>
<defs>
<clipPath id="clip0_445_16118">
<rect width="30" height="30" fill="white"/>
</clipPath>
</defs>
</svg>
