<svg width="20" height="20" viewBox="0 0 20 20" fill="none" xmlns="http://www.w3.org/2000/svg">
<g clip-path="url(#clip0_642_26732)">
<path d="M6.78406 16.7534L5.60549 17.932L2.07084 14.3973L3.24941 13.2188L6.78406 16.7534Z" fill="#C71E27"/>
<path d="M6.18811 10.272L7.36668 9.0934L10.9013 12.628L9.72276 13.8066L6.18811 10.272Z" fill="#C71E27"/>
<path d="M4.12543 12.3374L5.30364 11.1592L8.83829 14.6938L7.66007 15.872L4.12543 12.3374Z" fill="#C71E27"/>
<path d="M17.0561 4.1245L15.8769 5.3035L14.7001 4.1235L15.8779 2.946L12.9311 0L9.98511 2.94675L11.7526 4.71425L10.3146 6.15225L13.8499 9.6875L15.2879 8.2495L17.0561 10.017L20.0021 7.07025L17.0561 4.1245Z" fill="#C71E27"/>
<path d="M8.24969 8.21533L9.42791 7.03712L12.9626 10.5718L11.7843 11.75L8.24969 8.21533Z" fill="#C71E27"/>
<path d="M0 16.4644L1.17822 15.2861L4.71286 18.8208L3.53465 19.999L0 16.4644Z" fill="#C71E27"/>
<path d="M3.75214 0L0.00213623 2.001V6.33125L3.75214 8.33325L7.50214 6.33125V2.001L3.75214 0ZM3.75214 5.625C2.94639 5.625 2.29389 4.97075 2.29389 4.16675C2.29389 3.36275 2.94664 2.7085 3.75214 2.7085C4.55764 2.7085 5.21039 3.36275 5.21039 4.16675C5.21039 4.97075 4.55789 5.625 3.75214 5.625Z" fill="#292929"/>
<path d="M18.0001 12.5H13.6699L11.6689 16.25L13.6699 20H18.0001L20.0021 16.25L18.0001 12.5ZM15.8354 17.7083C15.0314 17.7083 14.3771 17.0557 14.3771 16.25C14.3771 15.4443 15.0314 14.7917 15.8354 14.7917C16.6396 14.7917 17.2939 15.4443 17.2939 16.25C17.2939 17.0557 16.6396 17.7083 15.8354 17.7083Z" fill="#292929"/>
</g>
<defs>
<clipPath id="clip0_642_26732">
<rect width="20" height="20" fill="white"/>
</clipPath>
</defs>
</svg>
