<svg width="16" height="16" viewBox="0 0 16 16" fill="none" xmlns="http://www.w3.org/2000/svg">
<g clip-path="url(#clip0_550_37588)">
<path d="M0.666667 16H15.3333C15.5101 16 15.6797 15.9298 15.8047 15.8047C15.9298 15.6797 16 15.5101 16 15.3333V0.666667C16 0.489856 15.9298 0.320287 15.8047 0.195262C15.6797 0.070238 15.5101 0 15.3333 0H12.4C12.2232 0 12.0536 0.070238 11.9286 0.195262C11.8036 0.320287 11.7333 0.489856 11.7333 0.666667V2.93333H9.46667C9.28986 2.93333 9.12029 3.00357 8.99526 3.1286C8.87024 3.25362 8.8 3.42319 8.8 3.6V5.86667H6.53333C6.35652 5.86667 6.18695 5.9369 6.06193 6.06193C5.9369 6.18695 5.86667 6.35652 5.86667 6.53333V8.8H3.6C3.42319 8.8 3.25362 8.87024 3.1286 8.99526C3.00357 9.12029 2.93333 9.28986 2.93333 9.46667V11.7333H0.666667C0.489856 11.7333 0.320287 11.8036 0.195262 11.9286C0.070238 12.0536 0 12.2232 0 12.4V15.3333C0 15.5101 0.070238 15.6797 0.195262 15.8047C0.320287 15.9298 0.489856 16 0.666667 16Z" fill="#DADADA"/>
</g>
<defs>
<clipPath id="clip0_550_37588">
<rect width="16" height="16" fill="white"/>
</clipPath>
</defs>
</svg>
