<svg width="20" height="20" viewBox="0 0 20 20" fill="none" xmlns="http://www.w3.org/2000/svg">
<g clip-path="url(#clip0_1226_18)">
<mask id="mask0_1226_18" style="mask-type:luminance" maskUnits="userSpaceOnUse" x="0" y="0" width="20" height="20">
<path d="M20 0H0V20H20V0Z" fill="white"/>
</mask>
<g mask="url(#mask0_1226_18)">
<path d="M18.6617 6.05835V12.1825C18.6617 13.8332 17.3101 15.1761 15.6487 15.1761H2.51074V17.1709C2.51074 18.1796 3.33672 19.0001 4.35191 19.0001H18.1592C19.1743 19.0001 20.0003 18.1796 20.0003 17.1709V7.81775C20.0003 6.98226 19.4333 6.27627 18.6617 6.05835Z" fill="#292929"/>
<path d="M17.4898 12.1823V5.90552H0.000244141V12.1823C0.000244141 13.1926 0.824539 14.0116 1.84137 14.0116H15.6487C16.6655 14.0116 17.4898 13.1926 17.4898 12.1823ZM14.9377 11.4346H12.4273C12.1037 11.4346 11.8414 11.174 11.8414 10.8525C11.8414 10.531 12.1037 10.2703 12.4273 10.2703H14.9377C15.2613 10.2703 15.5237 10.531 15.5237 10.8525C15.5237 11.174 15.2613 11.4346 14.9377 11.4346Z" fill="#292929"/>
<path d="M17.4898 2.82922C17.4898 1.81897 16.6655 1 15.6487 1H1.84141C0.824579 1 0.000244141 1.819 0.000244141 2.82926V4.74127H17.4898V2.82922Z" fill="#292929"/>
</g>
</g>
<defs>
<clipPath id="clip0_1226_18">
<rect width="20" height="20" fill="white"/>
</clipPath>
</defs>
</svg>
