<svg width="16" height="16" viewBox="0 0 16 16" fill="none" xmlns="http://www.w3.org/2000/svg">
<path d="M15.6217 6.25909L14.4506 6.02581C14.3217 5.60041 14.151 5.18966 13.9406 4.79903L14.603 3.80937C14.7274 3.62344 14.7028 3.37587 14.5442 3.21791L12.7695 1.45012C12.6109 1.29212 12.3624 1.26762 12.1757 1.39153L11.1821 2.05131C10.79 1.84181 10.3776 1.67175 9.95052 1.54337L9.71633 0.376812C9.67237 0.157719 9.47921 0 9.2549 0H6.7451C6.52078 0 6.32762 0.157719 6.28364 0.376812L6.04944 1.54337C5.62234 1.67175 5.20998 1.84184 4.81785 2.05131L3.82425 1.39153C3.63765 1.26762 3.38908 1.29212 3.23046 1.45012L1.45578 3.21791C1.29713 3.37591 1.27253 3.62347 1.39699 3.80937L2.05936 4.79903C1.849 5.18966 1.67827 5.60041 1.5494 6.02581L0.37829 6.25909C0.158337 6.30291 0 6.49531 0 6.71875V9.21875C0 9.44219 0.158337 9.63459 0.378321 9.67837L1.54943 9.91169C1.67827 10.3371 1.84903 10.7478 2.05939 11.1384L1.39702 12.1281C1.27256 12.314 1.29719 12.5616 1.45581 12.7196L3.23049 14.4873C3.38914 14.6454 3.63765 14.6699 3.82428 14.5459L4.79752 13.8997V10.957C4.06052 10.1756 3.60784 9.12578 3.60784 7.96875C3.60784 5.5525 5.57427 3.59375 8 3.59375C10.4257 3.59375 12.3922 5.5525 12.3922 7.96875C12.3922 9.12578 11.9395 10.1756 11.2025 10.957V13.8997L12.1757 14.5459C12.2553 14.5988 12.3462 14.6247 12.4366 14.6247C12.558 14.6247 12.6786 14.578 12.7695 14.4874L14.5442 12.7196C14.7028 12.5616 14.7274 12.3141 14.6029 12.1282L13.9406 11.1385C14.1509 10.7478 14.3217 10.3371 14.4505 9.91172L15.6216 9.6784C15.8417 9.63459 16 9.44219 16 9.21875V6.71875C16 6.49531 15.8417 6.30291 15.6217 6.25909Z" fill="#292929"/>
<path d="M9.49072 5.40038C9.25388 5.26372 8.9534 5.40872 8.91428 5.67853L8.62737 7.65628H7.37247L7.0856 5.67853C7.04645 5.40872 6.74599 5.26372 6.50916 5.40038C5.59029 5.93053 5.01953 6.91472 5.01953 7.96878C5.01953 9.11103 5.66173 10.1328 6.69548 10.6354L6.74502 10.6595V15.5313C6.74502 15.7902 6.95572 16 7.21561 16H8.78424C9.04413 16 9.25482 15.7902 9.25482 15.5313V10.6595L9.30436 10.6354C10.3381 10.1328 10.9803 9.11103 10.9803 7.96878C10.9803 6.91472 10.4096 5.93053 9.49072 5.40038Z" fill="#292929"/>
</svg>
