<svg width="16" height="16" viewBox="0 0 16 16" fill="none" xmlns="http://www.w3.org/2000/svg">
<path fill-rule="evenodd" clip-rule="evenodd" d="M13.0233 14.932V4.85203C13.0233 4.33683 12.6066 3.9187 12.0931 3.9187C10.6404 3.9187 5.35969 3.9187 3.90704 3.9187C3.39355 3.9187 2.97681 4.33683 2.97681 4.85203V14.932C2.97681 15.1261 3.07727 15.306 3.24174 15.4083C3.4062 15.5106 3.6116 15.5196 3.78425 15.433L5.02332 14.8118L6.26239 15.433C6.41941 15.5114 6.60397 15.5114 6.76099 15.433L8.00006 14.8118L9.23913 15.433C9.39615 15.5114 9.58071 15.5114 9.73774 15.433L10.9768 14.8118L12.2159 15.433C12.3885 15.5196 12.5939 15.5106 12.7584 15.4083C12.9229 15.306 13.0233 15.1261 13.0233 14.932ZM5.93123 10.1011L7.0475 11.2211C7.26555 11.4398 7.61829 11.4398 7.83634 11.2211L10.0689 8.98107C10.2869 8.76304 10.2869 8.40763 10.0689 8.18961C9.8516 7.97084 9.49736 7.97084 9.28006 8.18961L7.44192 10.0331L6.72006 9.3096C6.50276 9.09083 6.14853 9.09083 5.93123 9.3096C5.71318 9.52763 5.71318 9.88304 5.93123 10.1011Z" fill="#292929"/>
<path fill-rule="evenodd" clip-rule="evenodd" d="M2.23256 8.02546V4.85214C2.23256 3.92404 2.98195 3.17215 3.90698 3.17215H12.093C13.018 3.17215 13.7674 3.92404 13.7674 4.85214V8.02546H14.3256C14.7699 8.02546 15.1955 7.8485 15.5096 7.53341C15.8236 7.21832 16 6.79123 16 6.34547C16 5.18889 16 3.39541 16 2.23883C16 1.31073 15.2506 0.558838 14.3256 0.558838H1.67442C0.749395 0.558838 0 1.31073 0 2.23883V6.34547C0 6.79123 0.176372 7.21832 0.490419 7.53341C0.804465 7.8485 1.23014 8.02546 1.67442 8.02546H2.23256Z" fill="#292929"/>
</svg>
