<svg width="10" height="16" viewBox="0 0 10 16" fill="none" xmlns="http://www.w3.org/2000/svg">
<g clip-path="url(#clip0_1217_14)">
<path d="M9.53954 7.37568L2.26774 0.255608C2.09955 0.090796 1.87503 0 1.63564 0C1.39624 0 1.17173 0.090796 1.00354 0.255608L0.468021 0.779831C0.119556 1.12142 0.119556 1.6766 0.468021 2.01767L6.57433 7.99668L0.461245 13.9823C0.293057 14.1471 0.200195 14.3668 0.200195 14.6011C0.200195 14.8357 0.293057 15.0554 0.461245 15.2203L0.996763 15.7444C1.16508 15.9092 1.38947 16 1.62886 16C1.86826 16 2.09277 15.9092 2.26096 15.7444L9.53954 8.61782C9.70813 8.45248 9.80072 8.23174 9.80019 7.99707C9.80072 7.7615 9.70813 7.54088 9.53954 7.37568Z" fill="black"/>
</g>
<defs>
<clipPath id="clip0_1217_14">
<rect width="10" height="16" fill="white"/>
</clipPath>
</defs>
</svg>
