<svg width="20" height="20" viewBox="0 0 20 20" fill="none" xmlns="http://www.w3.org/2000/svg">
<g clip-path="url(#clip0_642_32683)">
<path fill-rule="evenodd" clip-rule="evenodd" d="M0 2C0 0.897334 0.798475 0 1.77966 0H18.2203C19.2015 0 20 0.897334 20 2V18C20 19.1027 19.2015 20 18.2203 20H1.77966C0.798475 20 0 19.1027 0 18V2ZM1.77966 17.3333C2.10712 17.3333 2.37288 17.0347 2.37288 16.6667C2.37288 16.2987 2.10712 16 1.77966 16C1.4522 16 1.18644 16.2987 1.18644 16.6667C1.18644 17.0347 1.4522 17.3333 1.77966 17.3333ZM1.77966 4C2.10712 4 2.37288 3.70133 2.37288 3.33333C2.37288 2.96533 2.10712 2.66667 1.77966 2.66667C1.4522 2.66667 1.18644 2.96533 1.18644 3.33333C1.18644 3.70133 1.4522 4 1.77966 4ZM18.2203 17.3333C17.8929 17.3333 17.6271 17.0347 17.6271 16.6667C17.6271 16.2987 17.8929 16 18.2203 16C18.5478 16 18.8136 16.2987 18.8136 16.6667C18.8136 17.0347 18.5478 17.3333 18.2203 17.3333ZM18.2203 4C17.8929 4 17.6271 3.70133 17.6271 3.33333C17.6271 2.96533 17.8929 2.66667 18.2203 2.66667C18.5478 2.66667 18.8136 2.96533 18.8136 3.33333C18.8136 3.70133 18.5478 4 18.2203 4ZM2.66667 4.13333C2.66667 3.32471 3.25221 2.66667 3.97175 2.66667H16.0282C16.7478 2.66667 17.3333 3.32471 17.3333 4.13333V15.8667C17.3333 16.6753 16.7478 17.3333 16.0282 17.3333H3.97175C3.25221 17.3333 2.66667 16.6753 2.66667 15.8667V4.13333Z" fill="#292929"/>
<path fill-rule="evenodd" clip-rule="evenodd" d="M3.33331 4.66683C3.33331 3.93172 3.86563 3.3335 4.51975 3.3335H15.4802C16.1343 3.3335 16.6666 3.93172 16.6666 4.66683V15.3335C16.6666 16.0686 16.1343 16.6668 15.4802 16.6668H4.51975C3.86563 16.6668 3.33331 16.0686 3.33331 15.3335V4.66683ZM4.51975 14.8891C4.73806 14.8891 4.91523 14.6899 4.91523 14.4446C4.91523 14.1993 4.73806 14.0002 4.51975 14.0002C4.30145 14.0002 4.12427 14.1993 4.12427 14.4446C4.12427 14.6899 4.30145 14.8891 4.51975 14.8891ZM4.51975 6.00016C4.73806 6.00016 4.91523 5.80105 4.91523 5.55572C4.91523 5.31039 4.73806 5.11127 4.51975 5.11127C4.30145 5.11127 4.12427 5.31039 4.12427 5.55572C4.12427 5.80105 4.30145 6.00016 4.51975 6.00016ZM15.4802 14.8891C15.2619 14.8891 15.0847 14.6899 15.0847 14.4446C15.0847 14.1993 15.2619 14.0002 15.4802 14.0002C15.6985 14.0002 15.8757 14.1993 15.8757 14.4446C15.8757 14.6899 15.6985 14.8891 15.4802 14.8891ZM15.4802 6.00016C15.2619 6.00016 15.0847 5.80105 15.0847 5.55572C15.0847 5.31039 15.2619 5.11127 15.4802 5.11127C15.6985 5.11127 15.8757 5.31039 15.8757 5.55572C15.8757 5.80105 15.6985 6.00016 15.4802 6.00016ZM9.11645 11.3803L9.90933 10.619L7.76299 9.58811C7.28903 9.35991 7.18583 8.75155 7.56075 8.39082L9.11645 6.89609C9.844 6.19755 10.9449 7.25333 10.2168 7.95337L9.42396 8.71468L11.5703 9.74555C12.0443 9.97375 12.1475 10.5821 11.7725 10.9428L10.2168 12.4376C9.4893 13.1361 8.38838 12.0803 9.11645 11.3803Z" fill="#C71E27"/>
</g>
<defs>
<clipPath id="clip0_642_32683">
<rect width="20" height="20" fill="white"/>
</clipPath>
</defs>
</svg>
