<svg width="20" height="21" viewBox="0 0 20 21" fill="none" xmlns="http://www.w3.org/2000/svg">
<g clip-path="url(#clip0_1241_22)">
<mask id="mask0_1241_22" style="mask-type:luminance" maskUnits="userSpaceOnUse" x="0" y="0" width="20" height="21">
<path d="M20 0.5H0V20.5H20V0.5Z" fill="white"/>
</mask>
<g mask="url(#mask0_1241_22)">
<path d="M18.1152 2.38483C15.602 -0.128303 11.5131 -0.128264 8.99994 2.38487C7.28334 4.10147 6.68708 6.6312 7.43037 8.92633L0.17168 16.1851C0.061797 16.2949 0 16.4437 0 16.5993V19.9141C0 20.238 0.262071 20.5001 0.585939 20.5001H3.90071C4.05634 20.5001 4.20513 20.4383 4.31497 20.3284L5.14353 19.4992C5.26997 19.3728 5.33177 19.1954 5.31118 19.0174L5.20817 18.1271L6.44185 18.0109C6.72224 17.9846 6.94369 17.7631 6.97001 17.4827L7.08619 16.2491L7.97654 16.3526C8.14189 16.3749 8.30842 16.3194 8.43373 16.2085C8.55846 16.0969 8.62998 15.9378 8.62998 15.7707V14.6797H9.70115C9.85678 14.6797 10.0056 14.6179 10.1154 14.5081L11.618 13.0253C13.9126 13.7692 16.3986 13.2179 18.1152 11.5001C20.6283 8.98699 20.6283 4.89796 18.1152 2.38483ZM16.4575 6.5282C15.772 7.21371 14.6574 7.21371 13.9719 6.5282C13.2864 5.84269 13.2864 4.72804 13.9719 4.04253C14.6574 3.35702 15.772 3.35702 16.4575 4.04253C17.143 4.72804 17.143 5.84269 16.4575 6.5282Z" fill="black"/>
</g>
</g>
<defs>
<clipPath id="clip0_1241_22">
<rect width="20" height="21" fill="white"/>
</clipPath>
</defs>
</svg>
