<svg width="23" height="24" viewBox="0 0 23 24" fill="none" xmlns="http://www.w3.org/2000/svg">
<path d="M7.01885 7.51917C6.97769 7.84767 6.9563 8.18224 6.9563 8.52175C6.9563 8.88283 6.9807 9.23825 7.02717 9.58679H13.4592C12.0286 8.26538 10.1178 7.45667 8.02138 7.45667C7.68192 7.45667 7.34735 7.47806 7.01885 7.51917Z" fill="#C71E27"/>
<path d="M14.6285 10.9349H7.32739C7.56961 11.7011 7.92408 12.4177 8.37122 13.0658H15.6721C15.43 12.2996 15.0755 11.583 14.6285 10.9349Z" fill="#C71E27"/>
<path d="M8.02119 23.5C11.6135 23.5 14.6618 21.1265 15.6803 17.8653C15.4483 17.8825 15.2141 17.8915 14.9778 17.8915C9.81122 17.8915 5.60796 13.6883 5.60796 8.52169C5.60796 8.2854 5.61694 8.05114 5.63424 7.81921C2.37307 8.8377 -0.000488281 11.886 -0.000488281 15.4783C-0.000488281 19.9014 3.59804 23.5 8.02119 23.5Z" fill="#C71E27"/>
<path d="M15.6314 14.3H9.19995C10.6305 15.6211 12.541 16.4295 14.637 16.4295C14.9765 16.4295 15.3111 16.4082 15.6396 16.367C15.6807 16.0385 15.7021 15.7039 15.7021 15.3644C15.7021 15.0036 15.6777 14.6484 15.6314 14.3Z" fill="#C71E27"/>
<path d="M14.9779 0.5C11.3856 0.5 8.33733 2.87355 7.31885 6.13473C7.55077 6.11748 7.78504 6.10849 8.02132 6.10849C13.1879 6.10849 17.3912 10.3118 17.3912 15.4783C17.3912 15.7146 17.3822 15.9489 17.3649 16.1808C20.626 15.1623 22.9996 12.114 22.9996 8.52172C22.9996 4.09853 19.4011 0.5 14.9779 0.5Z" fill="#C71E27"/>
</svg>
