<svg width="23" height="24" viewBox="0 0 23 24" fill="none" xmlns="http://www.w3.org/2000/svg">
<g clip-path="url(#clip0_956_30390)">
<path d="M19.7564 0.5H3.24359C2.58667 0.5 1.95665 0.759614 1.49214 1.22173C1.02762 1.68385 0.766664 2.31061 0.766664 2.96414V22.6773C0.766408 22.8335 0.810936 22.9865 0.895023 23.1185C0.97911 23.2504 1.09927 23.3557 1.24141 23.4221C1.38354 23.4885 1.54176 23.5132 1.69751 23.4933C1.85325 23.4734 2.00006 23.4097 2.12071 23.3097L6.54615 19.6382L10.4845 22.8744C10.7812 23.1203 11.1551 23.2549 11.5413 23.2549C11.9274 23.2549 12.3014 23.1203 12.5981 22.8744L16.4538 19.6382L20.8793 23.3097C21.0278 23.4322 21.2148 23.499 21.4077 23.4987C21.5273 23.4993 21.6456 23.4741 21.7545 23.4247C21.8978 23.3588 22.0191 23.2533 22.1039 23.1208C22.1888 22.9883 22.2337 22.8344 22.2333 22.6773V2.96414C22.2333 2.31061 21.9724 1.68385 21.5079 1.22173C21.0433 0.759614 20.4133 0.5 19.7564 0.5ZM17.2795 14.4635H5.72051C5.50154 14.4635 5.29153 14.3769 5.13669 14.2229C4.98186 14.0689 4.89487 13.8599 4.89487 13.6421C4.89487 13.4242 4.98186 13.2153 5.13669 13.0613C5.29153 12.9073 5.50154 12.8207 5.72051 12.8207H17.2795C17.4985 12.8207 17.7085 12.9073 17.8633 13.0613C18.0181 13.2153 18.1051 13.4242 18.1051 13.6421C18.1051 13.8599 18.0181 14.0689 17.8633 14.2229C17.7085 14.3769 17.4985 14.4635 17.2795 14.4635ZM17.2795 10.3566H5.72051C5.50154 10.3566 5.29153 10.27 5.13669 10.116C4.98186 9.96195 4.89487 9.75303 4.89487 9.53519C4.89487 9.31735 4.98186 9.10842 5.13669 8.95439C5.29153 8.80035 5.50154 8.71381 5.72051 8.71381H17.2795C17.4985 8.71381 17.7085 8.80035 17.8633 8.95439C18.0181 9.10842 18.1051 9.31735 18.1051 9.53519C18.1051 9.75303 18.0181 9.96195 17.8633 10.116C17.7085 10.27 17.4985 10.3566 17.2795 10.3566ZM17.2795 6.24967H5.72051C5.50154 6.24967 5.29153 6.16313 5.13669 6.00909C4.98186 5.85505 4.89487 5.64613 4.89487 5.42829C4.89487 5.21044 4.98186 5.00152 5.13669 4.84748C5.29153 4.69344 5.50154 4.6069 5.72051 4.6069H17.2795C17.4985 4.6069 17.7085 4.69344 17.8633 4.84748C18.0181 5.00152 18.1051 5.21044 18.1051 5.42829C18.1051 5.64613 18.0181 5.85505 17.8633 6.00909C17.7085 6.16313 17.4985 6.24967 17.2795 6.24967Z" fill="#C71E27"/>
</g>
<defs>
<clipPath id="clip0_956_30390">
<rect width="23" height="23" fill="white" transform="translate(0 0.5)"/>
</clipPath>
</defs>
</svg>
