<svg width="16" height="17" viewBox="0 0 16 17" fill="none" xmlns="http://www.w3.org/2000/svg">
<path d="M12.9375 3.51609H3.0625C2.88991 3.51609 2.75 3.37715 2.75 3.20574V2.39885C2.75 1.64468 3.36559 1.03333 4.125 1.03333H11.875C12.6344 1.03333 13.25 1.64468 13.25 2.39885V3.20574C13.25 3.37715 13.1101 3.51609 12.9375 3.51609Z" fill="black"/>
<path d="M14.3125 4.50916H1.6875C0.757 4.50916 0 5.26094 0 6.18502V12.0195C0 12.9436 0.757 13.6954 1.6875 13.6954H2.75V11.2127C2.75 9.98051 3.75934 8.97813 5 8.97813H11C12.2407 8.97813 13.25 9.98051 13.25 11.2127V13.6954H14.3125C15.243 13.6954 16 12.9436 16 12.0195V6.18502C16 5.26094 15.243 4.50916 14.3125 4.50916ZM3.00062 8.2333C2.58641 8.2333 2.25047 7.89983 2.25047 7.48847C2.25047 7.07711 2.58609 6.74364 3.00031 6.74364C3.41453 6.74364 3.75062 7.07711 3.75062 7.48847C3.75062 7.89983 3.41484 8.2333 3.00062 8.2333Z" fill="black"/>
<path d="M11 10.4678H5C4.58578 10.4678 4.25 10.8013 4.25 11.2126V13.6954V14.6885C4.25 15.0999 4.58578 15.4333 5 15.4333H11C11.4142 15.4333 11.75 15.0999 11.75 14.6885V13.6954V11.2126C11.75 10.8013 11.4142 10.4678 11 10.4678Z" fill="black"/>
</svg>
