<svg width="23" height="24" viewBox="0 0 23 24" fill="none" xmlns="http://www.w3.org/2000/svg">
<g clip-path="url(#clip0_872_16935)">
<path d="M0.886856 0.670654C0.489917 0.670654 0.170898 0.995251 0.170898 1.39219V20.2593C0.170898 22.1548 1.70332 23.6706 3.58216 23.6706H19.754C21.7372 23.6706 23.1709 22.0596 23.1709 20.2593C23.1709 20.2593 23.1709 15.3479 23.1709 12.8921C23.1709 12.493 22.8485 12.1706 22.4494 12.1706H17.7802V1.39224C17.7802 1.01325 17.4755 0.670699 17.0418 0.670699L0.886856 0.670654ZM4.48482 5.70049H13.4664C14.4256 5.70049 14.4256 7.13938 13.4664 7.13938H4.48482C3.52556 7.13942 3.52556 5.70049 4.48482 5.70049ZM4.48482 9.29845H13.4664C14.428 9.29845 14.428 10.7359 13.4664 10.7359H4.48482C3.53002 10.7359 3.53002 9.29845 4.48482 9.29845ZM4.48482 12.8894H13.4664C14.428 12.8894 14.428 14.3283 13.4664 14.3283H4.48482C3.53002 14.3283 3.53002 12.8894 4.48482 12.8894ZM17.7802 13.6081H21.7334V20.2594C21.7334 21.3663 20.8417 22.2332 19.754 22.2332C18.6663 22.2332 17.7802 21.3663 17.7802 20.2594V13.6081H17.7802ZM4.48482 16.4817H13.4664C14.428 16.4817 14.428 17.9192 13.4664 17.9192H4.48482C3.53002 17.9192 3.53002 16.4817 4.48482 16.4817Z" fill="#EF7446"/>
</g>
<defs>
<clipPath id="clip0_872_16935">
<rect width="23" height="23" fill="white" transform="translate(0 0.5)"/>
</clipPath>
</defs>
</svg>
