<svg width="17" height="16" viewBox="0 0 17 16" fill="none" xmlns="http://www.w3.org/2000/svg">
<g clip-path="url(#clip0_550_37584)">
<path d="M13.8823 15.059L7.68866 11.727C7.52725 11.64 7.3304 11.652 7.17785 11.757L2.4418 15.089C2.26464 15.214 2.18788 15.441 2.25283 15.65C2.31582 15.857 2.50676 16 2.72132 16H13.651C13.8764 16 14.0742 15.844 14.1284 15.62C14.1835 15.397 14.0811 15.166 13.8823 15.059Z" fill="#DADADA"/>
<path d="M15.9551 14.109L14.4985 7.446C14.4631 7.283 14.3499 7.15 14.1973 7.089C14.0438 7.028 13.8715 7.049 13.7377 7.143L9.00066 10.475C8.85893 10.575 8.77921 10.742 8.79004 10.915C8.79988 11.09 8.89929 11.246 9.05086 11.327L15.2435 14.659C15.3164 14.698 15.3951 14.718 15.4738 14.718C15.5792 14.718 15.6845 14.684 15.7721 14.615C15.9246 14.497 15.9965 14.3 15.9551 14.109Z" fill="#DADADA"/>
<path d="M12.5282 6.351C12.4633 6.142 12.2733 6 12.0578 6H7.56583C6.74893 7.503 5.54031 8.94 5.04328 9.502C4.76377 9.818 4.36319 10 3.9449 10C3.52661 10 3.12603 9.818 2.84651 9.502C2.65459 9.285 2.35736 8.938 2.01682 8.508L0.825919 13.954C0.782614 14.155 0.864304 14.362 1.03162 14.477C1.11429 14.534 1.21075 14.562 1.30622 14.562C1.40464 14.562 1.50208 14.533 1.58672 14.473L12.3373 6.91C12.5154 6.787 12.5912 6.56 12.5282 6.351Z" fill="#DADADA"/>
<path d="M3.94476 0C2.04522 0 0.5 1.57 0.5 3.5C0.5 5.296 3.26368 8.477 3.57863 8.834C3.67213 8.939 3.805 9 3.94476 9C4.08451 9 4.21738 8.939 4.31088 8.834C4.62583 8.477 7.38951 5.296 7.38951 3.5C7.38951 1.57 5.84429 0 3.94476 0ZM3.94476 5C3.12982 5 2.46843 4.328 2.46843 3.5C2.46843 2.672 3.12982 2 3.94476 2C4.75969 2 5.42108 2.672 5.42108 3.5C5.42108 4.328 4.75969 5 3.94476 5Z" fill="#DADADA"/>
</g>
<defs>
<clipPath id="clip0_550_37584">
<rect width="16" height="16" fill="white" transform="translate(0.5)"/>
</clipPath>
</defs>
</svg>
