<svg width="12" height="16" viewBox="0 0 12 16" fill="none" xmlns="http://www.w3.org/2000/svg">
<path d="M5.99997 0.00012207C4.44466 0.0022321 2.95365 0.63505 1.85389 1.75981C0.75412 2.88457 0.135364 4.40947 0.133301 6.00012C0.133301 10.3076 5.59908 15.7026 5.8313 15.9301C5.87647 15.975 5.93698 16.0001 5.99997 16.0001C6.06296 16.0001 6.12346 15.975 6.16863 15.9301C6.40086 15.7026 11.8666 10.3076 11.8666 6.00012C11.8646 4.40947 11.2458 2.88457 10.146 1.75981C9.04628 0.63505 7.55527 0.0022321 5.99997 0.00012207ZM5.99997 8.75011C5.46816 8.75011 4.94829 8.58883 4.5061 8.28665C4.06392 7.98448 3.71927 7.55499 3.51576 7.05249C3.31224 6.55 3.25899 5.99707 3.36275 5.46362C3.4665 4.93017 3.72259 4.44017 4.09864 4.05557C4.47468 3.67098 4.9538 3.40907 5.47539 3.30296C5.99698 3.19685 6.53763 3.25131 7.02896 3.45945C7.52029 3.66759 7.94024 4.02006 8.2357 4.4723C8.53116 4.92453 8.68886 5.45622 8.68886 6.00012C8.68843 6.72933 8.405 7.42854 7.90083 7.94417C7.39666 8.4598 6.71297 8.74968 5.99997 8.75011Z" fill="#C71E27"/>
</svg>
