<svg width="14" height="14" viewBox="0 0 14 14" fill="none" xmlns="http://www.w3.org/2000/svg">
<path d="M12.6806 1.31938C10.9214 -0.439811 8.05915 -0.439784 6.29996 1.31941C5.09833 2.52103 4.68096 4.29184 5.20126 5.89843L0.120176 10.9795C0.0432579 11.0565 0 11.1606 0 11.2695V13.5899C0 13.8166 0.18345 14 0.410157 14H2.7305C2.83944 14 2.94359 13.9568 3.02048 13.8799L3.60047 13.2995C3.68898 13.211 3.73224 13.0868 3.71783 12.9622L3.64572 12.339L4.50929 12.2576C4.70557 12.2392 4.86058 12.0842 4.87901 11.8879L4.96033 11.0244L5.58358 11.0968C5.69932 11.1125 5.81589 11.0736 5.90361 10.9959C5.99092 10.9178 6.04099 10.8064 6.04099 10.6895V9.92582H6.79081C6.89974 9.92582 7.0039 9.88256 7.08079 9.80564L8.13262 8.76772C9.7388 9.28843 11.479 8.9025 12.6806 7.70006C14.4398 5.94089 14.4398 3.07857 12.6806 1.31938ZM11.5203 4.21974C11.0404 4.69959 10.2602 4.69959 9.78031 4.21974C9.30045 3.73988 9.30045 2.95963 9.78031 2.47977C10.2602 1.99991 11.0404 1.99991 11.5203 2.47977C12.0001 2.95963 12.0001 3.73988 11.5203 4.21974Z" fill="#DADADA"/>
</svg>
