<svg width="16" height="17" viewBox="0 0 16 17" fill="none" xmlns="http://www.w3.org/2000/svg">
<g clip-path="url(#clip0_1230_68)">
<path d="M8.80338 6.1658L8.00001 4.53821L7.1967 6.16577C7.12838 6.30411 6.99645 6.39999 6.84379 6.42218L5.04785 6.68318L6.34751 7.94996C6.45798 8.05761 6.50838 8.21277 6.48232 8.36483L6.17557 10.1535L7.78185 9.30905C7.91838 9.23727 8.08157 9.23727 8.2181 9.30905L9.82451 10.1535L9.5176 8.3649C9.49148 8.21283 9.54188 8.05765 9.65238 7.94996L10.952 6.68318L9.15629 6.42218C9.00363 6.39999 8.8717 6.30411 8.80338 6.1658Z" fill="black"/>
<path d="M14.276 0.5H1.72394C0.773375 0.5 0 1.27334 0 2.22394V12.7677C0 13.7183 0.773375 14.4917 1.72394 14.4917H5.7975L7.6685 16.3627C7.75641 16.4506 7.87563 16.5 7.99994 16.5C8.12425 16.5 8.2435 16.4506 8.33141 16.3627L10.2024 14.4917H14.276C15.2266 14.4917 16 13.7183 16 12.7677V2.22394C16 1.27334 15.2266 0.5 14.276 0.5ZM12.2866 6.69156L10.4833 8.44925L10.9048 10.9057C10.9125 10.9393 10.9166 10.9744 10.9166 11.0104C10.9166 11.2689 10.7074 11.4785 10.449 11.4792H10.4471C10.3725 11.4792 10.2977 11.4614 10.2291 11.4253L8 10.2535L5.77116 11.4253C5.61325 11.5083 5.42184 11.4945 5.2775 11.3896C5.13316 11.2847 5.06087 11.107 5.09103 10.9312L5.51662 8.44925L3.71334 6.69153C3.58553 6.567 3.53956 6.38072 3.59469 6.21103C3.64984 6.04131 3.79653 5.91763 3.97309 5.892L6.46503 5.52984L7.57963 3.27166C7.65856 3.11166 7.82153 3.01038 7.99994 3.01038C8.17834 3.01038 8.34131 3.11166 8.42028 3.27163L9.53497 5.52984L12.0267 5.892C12.2033 5.91766 12.35 6.04131 12.4051 6.21103C12.4603 6.38075 12.4144 6.56703 12.2866 6.69156Z" fill="black"/>
</g>
<defs>
<clipPath id="clip0_1230_68">
<rect width="16" height="17" fill="white"/>
</clipPath>
</defs>
</svg>
