<svg width="20" height="20" viewBox="0 0 20 20" fill="none" xmlns="http://www.w3.org/2000/svg">
<g clip-path="url(#clip0_1226_26)">
<mask id="mask0_1226_26" style="mask-type:luminance" maskUnits="userSpaceOnUse" x="0" y="0" width="20" height="20">
<path d="M20 0H0V20H20V0Z" fill="white"/>
</mask>
<g mask="url(#mask0_1226_26)">
<path d="M17.1796 0H2.8206C2.24936 0 1.70152 0.225752 1.2976 0.627592C0.893671 1.02943 0.666749 1.57444 0.666749 2.14273V19.2846C0.666527 19.4204 0.705246 19.5535 0.778366 19.6682C0.851485 19.783 0.955971 19.8746 1.07957 19.9323C1.20317 19.99 1.34075 20.0115 1.47618 19.9942C1.61161 19.9769 1.73927 19.9215 1.84418 19.8346L5.69239 16.6419L9.11701 19.456C9.37502 19.6698 9.70019 19.7869 10.036 19.7869C10.3718 19.7869 10.6969 19.6698 10.955 19.456L14.3078 16.6419L18.156 19.8346C18.2851 19.941 18.4477 19.9992 18.6155 19.9988C18.7195 19.9994 18.8224 19.9775 18.917 19.9346C19.0416 19.8772 19.1471 19.7854 19.2209 19.6702C19.2947 19.555 19.3338 19.4212 19.3334 19.2846V2.14273C19.3334 1.57444 19.1065 1.02943 18.7026 0.627592C18.2986 0.225752 17.7508 0 17.1796 0ZM15.0257 12.1422H4.97444C4.78403 12.1422 4.60142 12.0669 4.46677 11.933C4.33213 11.799 4.25649 11.6173 4.25649 11.4279C4.25649 11.2385 4.33213 11.0568 4.46677 10.9229C4.60142 10.7889 4.78403 10.7137 4.97444 10.7137H15.0257C15.2161 10.7137 15.3987 10.7889 15.5334 10.9229C15.668 11.0568 15.7437 11.2385 15.7437 11.4279C15.7437 11.6173 15.668 11.799 15.5334 11.933C15.3987 12.0669 15.2161 12.1422 15.0257 12.1422ZM15.0257 8.57093H4.97444C4.78403 8.57093 4.60142 8.49568 4.46677 8.36173C4.33213 8.22779 4.25649 8.04612 4.25649 7.85669C4.25649 7.66726 4.33213 7.48559 4.46677 7.35164C4.60142 7.21769 4.78403 7.14244 4.97444 7.14244H15.0257C15.2161 7.14244 15.3987 7.21769 15.5334 7.35164C15.668 7.48559 15.7437 7.66726 15.7437 7.85669C15.7437 8.04612 15.668 8.22779 15.5334 8.36173C15.3987 8.49568 15.2161 8.57093 15.0257 8.57093ZM15.0257 4.99971H4.97444C4.78403 4.99971 4.60142 4.92446 4.46677 4.79051C4.33213 4.65657 4.25649 4.47489 4.25649 4.28547C4.25649 4.09604 4.33213 3.91437 4.46677 3.78042C4.60142 3.64647 4.78403 3.57122 4.97444 3.57122H15.0257C15.2161 3.57122 15.3987 3.64647 15.5334 3.78042C15.668 3.91437 15.7437 4.09604 15.7437 4.28547C15.7437 4.47489 15.668 4.65657 15.5334 4.79051C15.3987 4.92446 15.2161 4.99971 15.0257 4.99971Z" fill="#292929"/>
</g>
</g>
<defs>
<clipPath id="clip0_1226_26">
<rect width="20" height="20" fill="white"/>
</clipPath>
</defs>
</svg>
