<svg width="20" height="20" viewBox="0 0 20 20" fill="none" xmlns="http://www.w3.org/2000/svg">
<path d="M14.6971 10C14.9639 10 15.2198 10.1054 15.4084 10.2929C15.5971 10.4804 15.7031 10.7348 15.7031 11V20H3.63131V11C3.63131 10.7348 3.7373 10.4804 3.92597 10.2929C4.11462 10.1054 4.3705 10 4.63729 10H14.6971ZM7.65522 12H5.64328V14H7.65522V12ZM9.66718 5.0463e-07C11.5356 -0.000399495 13.3673 0.516471 14.9568 1.49267C16.5464 2.46888 17.8309 3.86584 18.6667 5.527L16.867 6.422C16.1984 5.09297 15.1707 3.97529 13.899 3.19425C12.6274 2.41321 11.1621 1.99968 9.66718 2C8.17239 1.99968 6.70701 2.41321 5.43534 3.19425C4.16367 3.97529 3.13596 5.09297 2.46739 6.422L0.666687 5.527C1.50252 3.86569 2.78731 2.46862 4.37704 1.49241C5.96676 0.516191 7.79857 -0.000589495 9.66718 5.0463e-07Z" fill="#C71E27"/>
<path d="M9.66718 4C10.7883 3.99967 11.8874 4.30972 12.8411 4.89541C13.7949 5.4811 14.5658 6.31928 15.0673 7.316L13.2666 8.211C12.9326 7.54616 12.4188 6.98697 11.783 6.59613C11.1471 6.2053 10.4143 5.99827 9.66667 5.99827C8.91913 5.99827 8.18627 6.2053 7.55044 6.59613C6.91458 6.98697 6.40083 7.54616 6.06679 8.211L4.26709 7.316C4.7686 6.31928 5.53946 5.4811 6.49326 4.89541C7.44705 4.30972 8.54611 3.99967 9.66718 4Z" fill="#292929"/>
</svg>
