<svg width="40" height="40" viewBox="0 0 40 40" fill="none" xmlns="http://www.w3.org/2000/svg">
<g clip-path="url(#clip0_668_1274)">
<path fill-rule="evenodd" clip-rule="evenodd" d="M35.2352 7.75867C35.2434 7.79424 35.2477 7.83132 35.2477 7.86948C35.2477 7.90749 35.2434 7.9445 35.2352 7.98001V26.2861V29.0894C35.2352 30.4189 36.3035 31.4998 37.6176 31.4998C38.9318 31.4998 40 30.419 40 29.0894L40.0002 5.07791C40.0002 3.74835 38.9317 2.66665 37.6177 2.66663C36.3036 2.66663 35.2352 3.74838 35.2352 5.07794L35.2352 7.75867Z" fill="#292929"/>
<path fill-rule="evenodd" clip-rule="evenodd" d="M10.1987 25.8006C10.1951 25.7432 10.1931 25.6853 10.1931 25.6269L10.1932 8.54063C10.1932 8.47863 10.1954 8.41723 10.1994 8.35632L5.72577 8.36515L5.72582 25.8006H6.88741L10.1987 25.8006Z" fill="#C71E27"/>
<path fill-rule="evenodd" clip-rule="evenodd" d="M12.5664 6.96486C11.9605 6.96486 11.4424 7.39203 11.2418 7.9907C11.2372 8.00868 11.2316 8.02631 11.2251 8.04343C11.1784 8.1998 11.153 8.36693 11.153 8.54061L11.1531 25.6268C11.1531 25.7983 11.1778 25.9634 11.2235 26.1181C11.229 26.1333 11.2338 26.1488 11.2379 26.1646C11.4354 26.7697 11.9564 27.2027 12.5663 27.2027C13.3454 27.2026 13.9796 26.4961 13.9796 25.6269V8.54059C13.9796 7.67134 13.3454 6.96489 12.5664 6.96486Z" fill="#C71E27"/>
<path fill-rule="evenodd" clip-rule="evenodd" d="M17.7661 8.54695L17.7661 8.5372C17.7644 7.66956 17.1308 6.96497 16.3527 6.96497C15.5737 6.96494 14.9395 7.67147 14.9395 8.54069V25.6269C14.9395 26.4961 15.5736 27.2027 16.3527 27.2027C17.132 27.2027 17.766 26.4962 17.766 25.627L17.7661 8.54695Z" fill="#C71E27"/>
<path fill-rule="evenodd" clip-rule="evenodd" d="M21.5518 8.54473C21.5507 7.67658 20.9178 6.96484 20.1393 6.96484C19.3595 6.96482 18.7261 7.67134 18.7261 8.54057L18.7262 25.6268C18.7279 26.4944 19.3604 27.2026 20.1393 27.2026C20.9185 27.2026 21.5518 26.4961 21.5518 25.6268L21.5518 8.54473Z" fill="#C71E27"/>
<path fill-rule="evenodd" clip-rule="evenodd" d="M30.0784 8.3551C30.0825 8.41636 30.0847 8.4782 30.0847 8.54058L30.0847 25.6268C30.0847 25.6852 30.0827 25.7431 30.0791 25.8005H34.2753V8.35513L30.0784 8.3551Z" fill="#C71E27"/>
<path fill-rule="evenodd" clip-rule="evenodd" d="M25.3383 8.551L25.3382 8.54056C25.3353 7.67399 24.7023 6.96484 23.9249 6.96484C23.1458 6.96482 22.5116 7.67134 22.5116 8.54057L22.5117 25.6268C22.5135 26.4944 23.1468 27.2026 23.9249 27.2026C24.704 27.2026 25.3382 26.4961 25.3382 25.6269L25.3383 8.551Z" fill="#C71E27"/>
<path fill-rule="evenodd" clip-rule="evenodd" d="M26.2983 25.6326C26.3012 26.4992 26.9341 27.2026 27.7115 27.2026C28.3053 27.2026 28.8148 26.7922 29.0236 26.2122C29.0311 26.1625 29.0461 26.1153 29.0673 26.0717C29.1047 25.9306 29.1248 25.7813 29.1248 25.6269L29.1248 8.54057C29.1248 8.36831 29.0998 8.20245 29.0538 8.04723C29.0463 8.02793 29.04 8.00807 29.0349 7.98766C28.8336 7.39057 28.3163 6.96484 27.7115 6.96484C26.9325 6.96482 26.2982 7.67134 26.2982 8.54057L26.2983 25.6326Z" fill="#C71E27"/>
<path fill-rule="evenodd" clip-rule="evenodd" d="M7.36737 26.7719L7.36748 36.5779C7.36748 36.9346 7.97149 37.3334 8.77981 37.3334C9.58909 37.3334 10.1931 36.9346 10.1931 36.578L10.1932 26.7719L7.36737 26.7719Z" fill="#C71E27"/>
<path fill-rule="evenodd" clip-rule="evenodd" d="M2.38265 2.76039C1.06947 2.76039 0.000183105 3.8421 0.000183105 5.17168V29.1831C0.000183105 30.5118 1.06934 31.5935 2.38259 31.5935C3.69677 31.5935 4.76578 30.5118 4.76578 29.1831V26.2867L4.76584 7.88506V7.87691V5.17163C4.76584 3.84205 3.69671 2.76039 2.38265 2.76039Z" fill="#292929"/>
</g>
<defs>
<clipPath id="clip0_668_1274">
<rect width="40" height="40" fill="white"/>
</clipPath>
</defs>
</svg>
