<svg width="37" height="40" viewBox="0 0 37 40" fill="none" xmlns="http://www.w3.org/2000/svg">
<path d="M17.7062 40C8.1114 40 0.333281 32.278 0.333281 22.7523C0.333281 13.2267 8.1114 5.5046 17.7062 5.5046V9.90827C10.5612 9.90827 4.76892 15.6587 4.76892 22.7523C4.76892 29.8459 10.5612 35.5963 17.7062 35.5963V40Z" fill="#292929"/>
<path d="M17.7062 0H15.1972C14.1331 0 13.2706 0.862571 13.2706 1.92661V9.54128H17.7062V0Z" fill="#292929"/>
<path d="M19 40C28.5948 40 36.3729 32.278 36.3729 22.7523C36.3729 13.2267 28.5948 5.5046 19 5.5046V9.90827C26.1451 9.90827 31.9373 15.6587 31.9373 22.7523C31.9373 29.8459 26.1451 35.5963 19 35.5963V40Z" fill="#C71E27"/>
<path d="M19 0H21.509C22.5731 0 23.4356 0.862571 23.4356 1.92661V9.54128H19V0Z" fill="#C71E27"/>
</svg>
