<svg width="23" height="24" viewBox="0 0 23 24" fill="none" xmlns="http://www.w3.org/2000/svg">
<g clip-path="url(#clip0_872_15916)">
<path d="M11.6143 2.06271L11.6626 2.13498L11.8289 2.31871L11.9047 2.4242L11.953 2.47557L12.0045 2.49354L12.0588 2.46056L12.1376 2.33691L12.1952 2.29752L12.5519 2.25863L12.688 2.28262L12.7276 2.30058L12.7486 2.32496L12.7878 2.40022L12.8727 2.52098L12.894 2.56283L12.9179 2.66257L12.9302 2.76503L12.9575 2.85256L13.0177 2.90662L13.2024 2.95772L13.2569 2.94578L13.263 2.8463L13.3265 2.78003L13.4776 2.71367L13.617 2.62318L13.7378 2.57803L13.8769 2.58109L14.0133 2.62913L14.1281 2.7137L14.2036 2.77404L14.573 2.87649L14.6152 2.90367L14.6575 2.94578L14.7028 3.00613L14.7271 3.04552L14.7361 3.07842L14.7271 3.1056L14.706 3.10264L14.6878 3.09968L14.6695 3.10856L14.6454 3.12679L14.6242 3.13577L14.606 3.15078L14.588 3.18717L14.5789 3.2231L14.5667 3.32876L14.5577 3.37391L14.5001 3.51576L14.4881 3.58213L14.5031 3.67235L14.5334 3.73566L14.6545 3.83539L14.7693 4.00693L14.8178 4.03437L14.8843 4.01614L15.0688 3.79304L15.308 3.65438L15.3715 3.63948L15.5379 3.68133L15.6011 3.6484L15.695 3.47338L15.7556 3.39806L15.8464 3.34373L15.9432 3.3228L16.04 3.32873L16.3242 3.43425L16.3877 3.41306L16.4969 3.3078L16.5511 3.28042L16.5936 3.29263L16.6752 3.36789L16.7205 3.39806L17.1956 3.55787L17.2166 3.58213V3.61797L17.2016 3.65143L17.1956 3.68752L17.2229 3.72372L17.4375 3.82922L17.4618 3.8504L17.4798 3.87728L17.489 3.93168L17.4828 3.97106L17.4708 4.00397V4.04336L17.5011 4.10074L17.5494 4.13362L17.6039 4.14556L17.7008 4.13658L17.734 4.1548L17.7582 4.19692L17.7822 4.26326L17.8521 4.39893L17.9217 4.41087L18.0032 4.36599L18.1091 4.3296L18.2028 4.37494L18.2663 4.49866L18.2817 4.65516L18.2331 4.80576L18.2694 4.83024L18.2817 4.83321L18.2663 4.88737L18.2028 4.93541L18.1878 5.00497L18.2059 5.08032L18.2452 5.13438L18.2786 5.18878V5.27327L18.2483 5.32437L18.103 5.43013L18.0215 5.54757L17.9882 5.62614L17.9819 5.70435L18.0062 5.75875L18.0487 5.79458L18.1333 5.84002L18.1635 5.89135L18.2028 6.04798L18.2361 6.09931L18.3482 6.18661L18.3782 6.22296L18.3816 6.24093L18.3692 6.27739L18.3753 6.29832L18.3845 6.30424L18.4085 6.31319L18.4148 6.31925L18.4238 6.34045L18.4358 6.35565L18.4388 6.37658L18.4268 6.42192L18.4085 6.44888L18.4025 6.47928L18.4085 6.50922L18.4298 6.53963L18.4631 6.6209L18.4933 6.72333L18.4904 6.80494L18.4298 6.82277L18.318 6.79263L18.2695 6.79566L18.2544 6.84679L18.2787 6.91635L18.312 6.96143L18.3239 7.01276L18.2787 7.0941L18.2362 7.12727L18.0911 7.15741L18.0334 7.20585L18.0396 7.24797L18.0638 7.31127L18.0608 7.41677L18.0245 7.4831L17.97 7.54038L17.9217 7.61271L17.9095 7.72741L17.9276 7.79381L17.964 7.82066L18.0638 7.85705L18.4327 8.12832L18.4691 8.19472L18.4783 8.26994L18.5326 8.26092L18.7353 8.28198L18.7928 8.39662L18.8867 8.47493L18.8171 8.63472L18.696 8.82767L18.6355 9.00845L18.705 9.06287L18.8836 9.1142L18.9109 9.17133L18.9834 9.19251L19.0227 9.27379L19.0773 9.48472L19.1076 9.53605L19.1379 9.56922L19.1649 9.60837L19.1831 9.67471L19.2012 9.91603L19.2284 10.0305L19.2648 10.0909L19.64 10.3893L19.7003 10.4407L19.7608 10.4675L19.8879 10.501L20.0906 10.6124L20.1631 10.6276L20.2297 10.6307L20.257 10.6426L20.2842 10.6757L20.3025 10.7209L20.3205 10.7812L20.3417 10.8297L20.372 10.8416L20.4326 10.7992L20.4446 10.7962L20.4658 10.8114L20.4689 10.8266V10.8445L20.5231 11.0615L20.5111 11.0949L20.5081 11.1248V11.1552L20.5051 11.1851L20.4779 11.2757L20.4386 11.5108L20.3963 11.6135L20.3025 11.7671L20.2812 11.8666H20.384L20.5897 11.9359L21.0951 11.8033L21.1494 11.8154L21.2917 11.9177L21.5942 12.0022L21.6788 12.0656L21.7546 12.171L21.7878 12.1922L21.9088 12.186L21.9572 12.1922L22.0025 12.2224L22.048 12.2827L22.0661 12.3127L22.0721 12.3431L22.0661 12.373L22.048 12.4034L21.8695 12.4967L21.8514 12.5146L21.8483 12.5481L21.8544 12.6203L21.8784 12.7321L21.921 12.8164L21.9785 12.8767L22.0451 12.9188L22.1659 12.9759L22.2234 13.0183L22.2597 13.0906L22.2747 13.1178L22.293 13.1237L22.3143 13.1148L22.3323 13.0906L22.3748 13.0845L22.417 13.0906L22.4533 13.1118L22.4473 13.145L22.429 13.1719L22.4411 13.2173L22.4683 13.2262L22.541 13.1993H22.5712L22.6167 13.2895L22.5804 13.582L22.6105 13.7087L22.5622 13.7449L22.5229 13.7419L22.4866 13.7239L22.4473 13.7147L22.2777 13.7508L22.2869 13.7628L22.3079 13.7992L22.3172 13.8142L22.2537 13.8503L22.1778 13.8656L22.1023 13.8566L22.0418 13.8231L21.9782 13.8413L21.9602 13.8894L21.9812 13.9318L22.0358 13.9438L22.0115 14.022L21.9782 14.0974L21.9027 14.227L21.8604 14.2754L21.8211 14.2966L21.7333 14.3238L21.6547 14.393L21.5942 14.4803L21.5276 14.5437L21.4006 14.5406L21.3886 14.5556L21.3853 14.577L21.3793 14.592V14.6189L21.3762 14.6371L21.3643 14.6493H21.355L21.334 14.6433L21.2462 14.6553L21.1856 14.7034L21.1646 14.7157L21.0828 14.7126L20.9075 14.6493L20.8379 14.6583L20.7744 14.6914L20.7169 14.6975L20.6595 14.6793L20.5354 14.607L20.5051 14.6009L20.4204 14.61L20.3964 14.6009L20.3568 14.5376L20.3328 14.3718L20.2995 14.3025L20.257 14.2783H20.1511L20.1029 14.2694L19.9575 14.212L19.9093 14.209L19.8607 14.224L19.7701 14.2723L19.7126 14.2753L19.5978 14.2514H19.4825L19.3917 14.3237L19.3464 14.5167L19.3495 14.5678L19.3585 14.613L19.3645 14.6553L19.3555 14.6945L19.3344 14.7216L19.2739 14.7336L19.2496 14.7456L19.1285 14.9355L19.0742 14.9899L19.2556 15.1375L19.2949 15.2128L19.3614 15.4087L19.4129 15.4902L19.4856 15.5596L19.5642 15.6107L19.6339 15.6351L19.6912 15.6441L19.7095 15.674L19.7155 15.7254L19.7368 15.7918L19.77 15.8371L19.8003 15.858L19.8243 15.8882L19.8456 15.9667V16.1323L19.791 16.2109L19.6277 16.3014L19.655 16.3617L19.7607 16.5063L19.8332 16.6658L19.8636 16.7143L19.9514 16.7896L19.9846 16.8319L19.9726 16.8711L19.9394 16.8801L19.8515 16.8589L19.8154 16.8619L19.8243 16.877L19.8546 16.9252L19.8123 16.9434L19.794 16.9765L19.8003 17.0159L19.8303 17.0519L19.8849 17.0912L19.8879 17.1874L19.8728 17.3052V17.4046L19.8909 17.4467L19.9152 17.4802L19.9334 17.5221V17.5946L19.9181 17.6457L19.9031 17.6941L19.8728 17.7333L19.8426 17.7604L19.9121 17.8659L19.9514 17.911L19.9937 17.9445L20.0363 17.9595L20.1208 17.9743L20.1601 17.9955L20.1361 18.0288L20.1178 18.0801L20.1118 18.1374L20.1178 18.1916L20.1361 18.2307L20.1571 18.2549L20.2782 18.3394L20.3114 18.3935L20.3204 18.472L20.3144 18.5864L20.0393 18.6017L19.6187 18.5201H19.3978L19.2104 18.5987L19.1618 18.6618L19.1256 18.7403L19.0863 18.8067L19.0317 18.8306L18.9742 18.8096L18.8623 18.7161L18.8048 18.683L18.7113 18.671L18.3815 18.6919L18.321 18.7099L18.2846 18.7523L18.2997 18.8186L18.2876 18.8366L18.2817 18.8547L18.2754 18.8729L18.2663 18.8938L18.3359 18.9028L18.3603 18.9542L18.3389 19.0055L18.2754 19.0085L18.2604 18.9874L18.2451 18.9814L18.2301 18.9874L18.2088 19.0026L18.1908 19.0265L18.1848 19.0477V19.0779L18.1606 19.111L18.1332 19.1412L18.1029 19.1651L18.0698 19.1864L18.0031 19.2135V19.2255L18.0092 19.2497L18.0215 19.2648V19.2918L17.9882 19.3372L17.9669 19.3611L17.9456 19.3703L17.873 19.364L17.8551 19.3703L17.8458 19.3944V19.4304L17.8398 19.4638L17.7916 19.4907L17.7762 19.5149L17.7643 19.5421L17.7523 19.554L17.746 19.5661L17.6947 19.6356L17.6795 19.6627L17.6705 19.6747V19.6897L17.6887 19.7261L17.6917 19.7865L17.6402 19.8345L17.5859 19.8707L17.5557 19.9039L17.6039 19.9281L17.6222 19.931V19.961L17.5949 19.9914L17.5859 20.0365L17.5826 20.0847L17.5676 20.121L17.5404 20.133L17.4648 20.136L17.4345 20.145L17.4496 20.1964L17.4226 20.2777L17.4375 20.332L17.4195 20.347L17.4013 20.3774L17.3892 20.3864L17.3952 20.4012L17.4043 20.4374L17.374 20.4497L17.3044 20.513V20.5399L17.3497 20.5794L17.371 20.5913V20.6153L17.353 20.6212L17.3437 20.6275L17.3347 20.6365L17.3227 20.6457V20.6696L17.3497 20.7058L17.4285 20.7299L17.4678 20.7508L17.4495 20.7932L17.4375 20.8112L17.4162 20.8294L17.4465 20.8506L17.4708 20.8745L17.4798 20.9049L17.4647 20.9349L17.4768 20.9802L17.495 21.0101L17.5193 21.0283L17.5433 21.0405V21.0674L17.5101 21.0614L17.4828 21.0704L17.4647 21.0976L17.4587 21.1457L17.4678 21.1911L17.486 21.2H17.5101L17.5403 21.2212L17.5526 21.2454L17.5766 21.3539L17.5888 21.3751L17.6068 21.399L17.6099 21.4172L17.5796 21.4292L17.5949 21.5376L17.5283 21.607L17.4558 21.6613L17.4495 21.7187L17.4072 21.794L17.4013 21.803L17.3982 21.8937L17.3862 21.9176L17.3589 21.9237L17.3407 21.8875L17.3134 21.8573L17.2834 21.8364L17.2499 21.8272L17.2166 21.8304L17.1803 21.8182L17.126 21.7367L17.0897 21.7038L17.0564 21.6945H16.9837L16.9474 21.6826L16.9141 21.6524L16.8416 21.5588L16.8235 21.5197L16.8295 21.5167L16.8506 21.4385L16.8536 21.408V21.3693L16.8506 21.3389L16.8536 21.3119L16.8385 21.2848L16.8082 21.2547L16.6872 21.1943L16.6539 21.1581L16.5634 21.0345L16.4969 20.9833L16.4273 20.9652L16.0913 20.9744L16.037 20.9923L15.8916 21.0676H15.8614L15.8221 21.0407L15.7978 21.0378L15.7678 21.0587L15.7282 21.1309L15.7042 21.1581L15.6617 21.1703L15.444 21.1339L15.4137 21.0918L15.3925 21.0345L15.3532 20.9651L15.311 20.935L15.2594 20.9289L15.2051 20.9379L15.1567 20.9561L15.0991 21.0102L15.0658 21.0616L15.0295 21.104L14.972 21.125L14.9087 21.1309L14.8752 21.1491L14.8511 21.1942L14.8178 21.2877L14.7816 21.351H14.733L14.6272 21.3089L14.5726 21.3269L14.4788 21.4081L14.4305 21.4263L14.3761 21.3962L14.3457 21.3268L14.3247 21.2425L14.2975 21.1673L14.2491 21.1099L14.2097 21.0795L14.1946 21.0377L14.2159 20.9379L14.2067 20.8387L14.1796 20.7754L14.0978 20.6547L14.0466 20.5161L14.0163 20.4677L13.9587 20.4315L13.8619 20.4074H13.8133L13.765 20.4256L13.7168 20.4737L13.6592 20.5944L13.6137 20.6457L13.5504 20.6696H13.4021L13.3326 20.6846L13.2569 20.727L13.1812 20.7873L13.1146 20.8686L13.0664 20.9744L13.0603 21.0377L13.0664 21.1822L13.0543 21.2396L13.0118 21.2877L12.9878 21.2486L12.9695 21.1763L12.9514 21.1279L12.9213 21.125L12.8877 21.1459L12.8544 21.161L12.8152 21.143L12.7912 21.1041L12.7759 21.0496L12.7396 20.8355L12.7337 20.7572L12.7124 20.7061L12.6488 20.6816L12.4342 20.6365H12.3677L12.3041 20.6577L12.183 20.7389L12.1194 20.7993L12.0891 20.8173L12.0589 20.8053L12.044 20.7754L12.0166 20.6696L12.0016 20.6305L11.9713 20.5974L11.9017 20.5553L11.8715 20.5251L11.8502 20.4826L11.8473 20.4468V20.4133L11.8383 20.3744L11.802 20.3351L11.7534 20.332L11.6992 20.3592L11.6477 20.4044L11.5994 20.4767L11.5295 20.6183L11.4722 20.6696L11.4268 20.6879H11.1908L11.1455 20.6757L11.1 20.6517L10.9549 20.4949L10.9033 20.4677L10.849 20.4767L10.8034 20.5191L10.7735 20.5824L10.7582 20.6607V20.7091L10.7642 20.7509L10.7673 20.7933L10.7552 20.8447L10.7432 20.8686L10.6311 21.0195L10.6069 21.0437L10.5676 21.0496L10.5343 21.0345L10.4951 21.0043L10.4618 20.9681L10.4467 20.9379L10.5253 20.745L10.5435 20.6487L10.5133 20.5672L10.4737 20.546L10.3376 20.543L10.0775 20.4375L9.99291 20.4346L9.94761 20.4587L9.88108 20.531L9.82954 20.5582L9.78124 20.5612L9.6389 20.537L9.54206 20.5672L9.49078 20.5734L9.45754 20.543L9.47256 20.4767L9.50881 20.3924L9.51482 20.3261L9.44515 20.3079L9.3879 20.3141L9.33933 20.3079L9.30605 20.2748L9.28806 20.1995V20.097L9.29407 20.0155L9.27878 19.9552L9.21522 19.9192L9.1154 19.8981L8.90376 19.8888L8.66184 19.9733L8.50148 19.9462L8.04465 19.7442L7.51525 19.7263L7.48193 19.7081L7.45169 19.666L7.44568 19.6295L7.45169 19.5936V19.5665L7.42442 19.5512L6.86475 19.5273L6.7892 19.5031L6.63481 19.3642L6.56231 19.3493L6.3959 19.3552L5.88179 19.259L5.67887 19.2979L4.88029 19.286L4.47497 19.1775L4.36614 19.1805L4.25728 19.2167L4.0424 19.3314L3.36789 19.4398L3.31638 19.4369L3.16823 19.4007L2.56907 19.4488L2.51777 19.467L2.46623 19.5214L2.37866 19.651L2.34237 19.7263L2.28486 19.9793L2.21833 20.0759L1.94618 20.2628L1.58616 20.5854L1.48935 20.6004L1.41979 20.5371L1.35325 20.4558L1.25642 20.4164L1.19586 20.4104L1.02652 20.3592H0.97197L0.736067 20.4193L0.705787 20.4346L0.681519 20.4617L0.651246 20.5131L0.648203 20.543L0.663492 20.5734L0.730022 20.7572L0.736067 20.7933L0.724011 20.8537L0.699749 20.8597L0.678483 20.8417L0.669469 20.7904L0.636221 20.7692L0.599936 20.7542L0.569656 20.6939H0.602939L0.548397 20.6033L0.527394 20.549L0.518117 20.4979L0.530403 20.3924L0.527394 20.356L0.500157 20.3262V20.2959L0.521153 20.2929L0.536408 20.2837L0.566688 20.2448L0.554402 20.2296L0.539383 20.2024L0.530403 20.1785L0.539383 20.1663L0.560677 20.1541L0.554402 20.1302L0.542386 20.106L0.533372 20.0878L0.548397 19.9975L0.557674 19.9551L0.566688 19.9282L0.605975 19.8798L0.657487 19.8496L0.702792 19.8045L0.730029 19.714L0.684501 19.6539L0.64821 19.5843L0.675521 19.5512L0.684501 19.4669L0.711805 19.4517V19.4335L0.708749 19.4305H0.705774L0.69676 19.4276L0.711785 19.3854V19.259L0.72704 19.1865L0.772304 19.078L0.802577 19.0296L0.838835 19.0027L0.811591 18.9364L0.778316 18.7885L0.760289 18.7404L0.757313 18.695L0.748036 18.6499L0.717763 18.6287L0.69676 18.6197L0.681505 18.5955L0.669456 18.5624L0.654201 18.5325L0.608936 18.505L0.494099 18.5081L0.448571 18.4931L0.382006 18.3605L0.39102 18.3455L0.397295 18.2972L0.388018 18.2669L0.348724 18.306L0.336742 18.2911L0.312474 18.2702L0.30346 18.252L0.270212 18.2911L0.245909 18.2882L0.224947 18.2672L0.194701 18.255L0.161385 18.2672L0.155151 18.261L0.173374 18.2248V18.2009L0.121815 18.1946L-0.0262714 18.1405L-0.0595198 18.1072L-0.0958043 18.1223L-0.268186 18.0771L-0.322728 18.0408L-0.3047 17.9714L-0.313714 17.9204L-0.341005 17.8813L-0.377323 17.8509H-0.383301L-0.271438 17.622L-0.225904 17.5526L-0.1291 17.4349L0.164327 16.9856L0.376029 16.8078L0.587677 16.6842L0.990221 16.5697L1.31069 16.3526L1.40753 16.2352L1.44077 16.0661L1.41678 15.4662L1.4105 15.4363L1.40156 15.4149L1.39254 15.3909L1.3895 15.3485L1.39551 15.3186L1.42281 15.2643L1.42879 15.2403V15.2069L1.40753 15.0955V15.0713L1.4138 15.0232L1.4105 14.993L1.38353 14.9356L1.31069 14.8424L1.28969 14.7761L1.2927 14.6975L1.317 14.6434L1.34724 14.5951L1.36827 14.5377L1.37424 14.4412L1.35025 14.393L1.30772 14.3597L1.26542 14.3116L1.23514 14.2485L1.21715 14.1911L1.1929 14.1338L1.1503 14.0765L1.10804 13.9617L1.01124 13.585L0.96293 13.4586L0.847835 13.2232L0.645207 12.5962L0.587657 12.3157L0.581652 12.0686L0.524365 11.984L0.50013 11.8998L0.478844 11.6858L0.454582 11.5831L0.4213 11.4899L0.397295 11.3902L0.394259 11.2697L0.475842 11.2909L0.690749 11.4206L0.733011 11.4355L0.769302 11.4325L0.887399 11.3812L1.03849 11.3603L1.08082 11.3298L1.11707 11.3148L1.13532 11.3179L1.17765 11.342L1.19888 11.348L1.21717 11.345L1.40158 11.2396L1.43783 11.2336L1.47411 11.2486L1.54364 11.2939L1.5832 11.3029H1.73732L1.80682 11.2817L1.95521 11.2034L2.03379 11.1882L2.10956 11.2154L2.17612 11.2968L2.21842 11.4146L2.24566 11.4535L2.29096 11.4627L2.37249 11.4595L2.44829 11.4839H2.53589L2.62368 11.4385L2.89889 11.1912L3.02003 11.1219L3.17435 11.092L3.23167 11.0466H3.24095L3.24989 11.0496L3.25891 11.0555L3.28919 11.1341L3.3255 11.1703L3.36777 11.1732L3.52509 11.146L3.56765 11.1249L3.59766 11.0555L3.60394 10.9441L3.58267 10.8655L3.54939 10.7962L3.51912 10.709L3.50713 10.6457L3.5101 10.6337H3.52509L3.54639 10.6063L3.59169 10.5794V10.5644L3.58866 10.537V10.507L3.59767 10.4829L3.67949 10.4318L3.79135 10.4196L3.90015 10.4348L4.09078 10.507L4.19987 10.4889L4.30569 10.4225L4.40554 10.3111L4.44479 10.2265L4.4931 10.0339L4.52337 9.97943L4.5659 9.97351L4.71698 10.0275L4.91367 10.0156L4.97119 9.97647L5.06799 9.83485L5.12855 9.80444L5.15882 9.81043L5.17385 9.82564L5.18586 9.84986L5.35524 10.082L5.33418 10.0969L5.27666 10.0939L5.22835 10.1211L5.2344 10.1572L5.29192 10.1874L5.30694 10.2206L5.28868 10.2508L5.21914 10.2747L5.20112 10.3051L5.21914 10.3774L5.27366 10.4287L5.33722 10.4617L5.55187 10.4981L5.60641 10.4951L5.63068 10.4799L5.66997 10.4255L5.69724 10.4136L5.78804 10.4255L5.81509 10.4225L5.8726 10.3804L5.89086 10.3171L5.89383 10.1301L5.90284 10.1121L5.93011 10.0728L5.93612 10.0548L5.93011 10.0307L5.91787 10.0216L5.90589 10.0154L5.89687 10.0034L5.88158 9.95826L5.86356 9.9222L5.84232 9.89199L5.81802 9.86482L5.80604 9.86185L5.77873 9.8708L5.76972 9.86777L5.76078 9.85284L5.73651 9.78058L5.73049 9.74116L5.71524 9.70818L5.68192 9.69009L5.64567 9.69897L5.50056 9.77452L5.39475 9.78059L5.34317 9.75933L5.30992 9.70523L5.31289 9.60251L5.35845 9.51228L5.46725 9.3795L5.50954 9.28868L5.51852 9.21051V9.12621L5.5278 9.01749L5.55485 8.93326L5.59136 8.88482L5.73945 8.79755L5.78475 8.74918L5.818 8.68588L5.83029 8.6046L5.81503 8.52333L5.75449 8.37547L5.73947 8.29393L5.74247 8.24286L5.75449 8.20067L5.76674 8.16428L5.77575 8.11913L5.77873 8.07701L5.76971 7.86609L5.77575 7.81166L5.80303 7.7756L5.85431 7.72742L5.87857 7.71525H5.89379L5.90585 7.70604L5.91783 7.67313V7.63966L5.89682 7.55838L5.89379 7.52226L5.91783 7.44402L5.96636 7.39591L6.02091 7.35353L6.07218 7.29318L6.08747 7.251L6.09044 7.21487L6.09945 7.18473L6.12673 7.16047L6.21729 7.12138H6.26282L6.35039 7.14251H6.39592L6.68938 7.08222L6.77698 7.03083L6.81323 6.99167L6.89505 6.86512L6.98287 6.6723L6.99485 6.63597L6.9979 6.58458L6.99485 6.48231L7.00086 6.43394L7.07641 6.31324L7.1855 6.29541L7.45171 6.36464H7.47274L7.49698 6.35865L7.51223 6.34049L7.52726 6.31634L7.54855 6.29541L7.5818 6.29232L7.83574 6.40683L7.89028 6.39781L7.92656 6.33753L7.95381 6.214L7.96886 6.09937L7.98712 6.05395L8.0264 5.99989L8.09594 5.93054L8.1322 5.90935L8.28659 5.86723L8.3441 5.82505L8.37138 5.75572L8.35014 5.68346L8.2956 5.64108L7.89629 5.57175L7.75118 5.6109L7.70888 5.60795L7.56655 5.55379L7.53026 5.52641L7.51824 5.48126L7.54224 5.40294L7.59983 5.29751L7.61805 5.25813L7.65133 5.10153L7.67234 5.05609L7.75716 4.9689L7.76316 4.92053L7.7179 4.83027L7.72991 4.72757L7.77842 4.64926L7.83574 4.57993L7.88127 4.50758L7.90553 4.4141L7.91154 4.30267L7.90227 4.18801L7.88127 4.08853L7.93254 3.99795L7.99013 3.96481L8.05361 3.97106L8.18074 4.02216L8.23529 4.0192L8.42863 3.91973L8.4772 3.86235L8.6163 3.60908L8.75543 3.44023L8.81291 3.40407L9.1244 3.36491L9.2212 3.38015L9.27277 3.41009L9.42386 3.53667L9.49039 3.57288L9.53896 3.55168L9.65076 3.44346L9.69932 3.38611L9.75987 3.4554L9.83542 3.50055L9.91423 3.52471L10.2167 3.55166L10.2832 3.54268L10.3042 3.47634L10.3255 3.38609L10.3438 3.18415L10.4103 2.99416L10.6492 2.8373L10.7277 2.69868L10.7368 2.59621L10.8126 2.5179L10.976 2.39132L11.0063 2.33393L11.0273 2.2826L11.0516 2.23445L11.0878 2.1953L11.1181 2.18003L11.218 2.15887L11.3207 2.10777L11.4266 2.0292L11.5294 1.99033L11.6143 2.06271Z" fill="#C71E27"/>
</g>
<defs>
<clipPath id="clip0_872_15916">
<rect width="23" height="23" fill="white" transform="translate(0 0.5)"/>
</clipPath>
</defs>
</svg>
