<svg width="23" height="24" viewBox="0 0 23 24" fill="none" xmlns="http://www.w3.org/2000/svg">
<path d="M20.9483 3.53024C19.3046 1.65574 15.7759 0.505737 11.5 0.505737C7.22414 0.505737 3.6954 1.65574 2.05172 3.53024C-0.683908 6.70424 -0.683908 17.3302 2.05172 20.4812C3.6954 22.3557 7.22414 23.5057 11.5 23.5057C15.7759 23.5057 19.3046 22.3557 20.9483 20.4812C23.6839 17.3072 23.6839 6.70424 20.9483 3.53024ZM14.9483 13.1557H12.6494V15.4557C12.6494 15.7607 12.5283 16.0532 12.3128 16.2689C12.0972 16.4846 11.8048 16.6057 11.5 16.6057C11.1952 16.6057 10.9028 16.4846 10.6872 16.2689C10.4717 16.0532 10.3506 15.7607 10.3506 15.4557V13.1557H8.05172C7.74688 13.1557 7.45452 13.0346 7.23896 12.8189C7.0234 12.6032 6.9023 12.3107 6.9023 12.0057C6.9023 11.7007 7.0234 11.4082 7.23896 11.1926C7.45452 10.9769 7.74688 10.8557 8.05172 10.8557H10.3506V8.55574C10.3506 8.25074 10.4717 7.95823 10.6872 7.74256C10.9028 7.5269 11.1952 7.40574 11.5 7.40574C11.8048 7.40574 12.0972 7.5269 12.3128 7.74256C12.5283 7.95823 12.6494 8.25074 12.6494 8.55574V10.8557H14.9483C15.2531 10.8557 15.5455 10.9769 15.761 11.1926C15.9766 11.4082 16.0977 11.7007 16.0977 12.0057C16.0977 12.3107 15.9766 12.6032 15.761 12.8189C15.5455 13.0346 15.2531 13.1557 14.9483 13.1557Z" fill="#EF7446"/>
</svg>
