<svg width="12" height="12" viewBox="0 0 12 12" fill="none" xmlns="http://www.w3.org/2000/svg">
<path d="M1.43056 7.6892C1.48998 7.74862 1.53683 7.8194 1.56831 7.89731C1.59979 7.97522 1.61526 8.05867 1.61381 8.14269L1.58531 9.77724C1.58384 9.86126 1.5993 9.94472 1.63078 10.0226C1.66226 10.1006 1.7091 10.1713 1.76852 10.2308C1.82795 10.2902 1.89872 10.337 1.97664 10.3685C2.05456 10.4 2.13802 10.4154 2.22204 10.414L3.85658 10.3853C3.9406 10.3839 4.02405 10.3994 4.10197 10.4308C4.17988 10.4623 4.25065 10.5092 4.31007 10.5686L5.55737 11.816C5.67478 11.9333 5.83399 11.9992 6 11.9992C6.16601 11.9992 6.32522 11.9333 6.44263 11.816L7.68993 10.5686C7.74935 10.5092 7.82012 10.4623 7.89803 10.4308C7.97594 10.3994 8.0594 10.3839 8.14342 10.3853L9.77796 10.4138C9.86198 10.4153 9.94544 10.3999 10.0234 10.3684C10.1013 10.3369 10.1721 10.2901 10.2315 10.2306C10.2909 10.1712 10.3377 10.1004 10.3692 10.0225C10.4007 9.9446 10.4162 9.86114 10.4147 9.77712L10.3861 8.14269C10.3846 8.05867 10.4001 7.97522 10.4316 7.89731C10.4631 7.8194 10.5099 7.74862 10.5693 7.6892L11.8167 6.44184C11.8748 6.38373 11.9209 6.31473 11.9524 6.23879C11.9838 6.16286 12 6.08147 12 5.99928C12 5.91708 11.9838 5.8357 11.9524 5.75976C11.9209 5.68382 11.8748 5.61483 11.8167 5.55671L10.5693 4.30929C10.5099 4.24987 10.463 4.1791 10.4316 4.10119C10.4001 4.02327 10.3846 3.93982 10.3861 3.8558L10.4146 2.22131C10.416 2.13728 10.4006 2.05382 10.3691 1.9759C10.3376 1.89797 10.2908 1.82719 10.2313 1.76776C10.1719 1.70833 10.1011 1.66148 10.0232 1.63C9.94528 1.59852 9.86181 1.58305 9.77778 1.58452L8.14336 1.61308C8.05933 1.61455 7.97586 1.59907 7.89794 1.56759C7.82002 1.53611 7.74924 1.48926 7.68981 1.42984L6.44263 0.18254C6.32523 0.0651531 6.16602 -0.000793457 6 -0.000793457C5.83398 -0.000793457 5.67477 0.0651531 5.55737 0.18254L4.31007 1.42984C4.25064 1.48926 4.17986 1.53611 4.10194 1.56759C4.02401 1.59907 3.94055 1.61455 3.85652 1.61308L2.2221 1.58452C2.13807 1.58305 2.0546 1.59852 1.97668 1.63C1.89875 1.66148 1.82797 1.70833 1.76854 1.76776C1.70911 1.82719 1.66226 1.89797 1.63078 1.9759C1.5993 2.05382 1.58384 2.13728 1.58531 2.22131L1.61393 3.8558C1.61539 3.93982 1.59992 4.02327 1.56844 4.10119C1.53696 4.1791 1.49011 4.24987 1.43068 4.30929L0.183323 5.55671C0.125203 5.61483 0.079099 5.68382 0.0476443 5.75976C0.0161895 5.8357 0 5.91708 0 5.99928C0 6.08147 0.0161895 6.16286 0.0476443 6.23879C0.079099 6.31473 0.125203 6.38373 0.183323 6.44184L1.43056 7.6892ZM3.77576 5.57507C3.88828 5.46258 4.04087 5.39939 4.19997 5.39939C4.35907 5.39939 4.51166 5.46258 4.62418 5.57507L5.39999 6.35088L7.37582 4.37505C7.48891 4.26535 7.64061 4.20454 7.79816 4.20575C7.95571 4.20695 8.10646 4.27007 8.21786 4.38148C8.32926 4.49289 8.39238 4.64365 8.39357 4.8012C8.39476 4.95874 8.33394 5.11044 8.22424 5.22352L5.8242 7.62356C5.71168 7.73605 5.55909 7.79924 5.39999 7.79924C5.24089 7.79924 5.0883 7.73605 4.97578 7.62356L3.77576 6.42354C3.66326 6.31102 3.60006 6.15842 3.60006 5.99931C3.60006 5.84019 3.66326 5.68759 3.77576 5.57507Z" fill="#C71E27"/>
</svg>
