<svg width="41" height="41" viewBox="0 0 41 41" fill="none" xmlns="http://www.w3.org/2000/svg">
<g clip-path="url(#clip0_668_1013)">
<path d="M21.6002 6.33373L16.2553 9.41109H8.79282V12.4872L3.41663 7.82695L8.79287 3.16667L8.79282 6.24276H20.4969C20.8722 6.24276 21.2407 6.27388 21.6002 6.33373Z" fill="#292929"/>
<path d="M15.4167 20.9094H6.1262L6.12625 17.8333L0.75 22.4936L6.1262 27.1539V24.0778H15.4167V20.9094Z" fill="#C71E27"/>
<path d="M14.0713 13.2453L26.75 20.6031L39.4287 13.2453L26.75 5.88766L14.0713 13.2453Z" fill="#C71E27"/>
<path d="M25.5373 37.8334V22.9807L12.75 15.5599V29.844C12.75 30.2047 12.9292 30.5166 13.24 30.697L25.5373 37.8334Z" fill="#C71E27"/>
<path d="M27.9627 37.8334V22.9807L40.75 15.5599V29.844C40.75 30.2047 40.5708 30.5166 40.26 30.697L27.9627 37.8334Z" fill="#C71E27"/>
</g>
<defs>
<clipPath id="clip0_668_1013">
<rect width="40" height="40" fill="white" transform="translate(0.75 0.5)"/>
</clipPath>
</defs>
</svg>
