<svg width="18" height="18" viewBox="0 0 18 18" fill="none" xmlns="http://www.w3.org/2000/svg">
<g clip-path="url(#clip0_76_2555)">
<path d="M4.51339 9.54727H3.70617C3.49441 9.54727 3.30325 9.67334 3.21948 9.86752L0.984863 15.0708L6.29181 12.3603C5.65652 11.4813 5.02797 10.5117 4.51339 9.54727Z" fill="#292929"/>
<path d="M14.7805 9.86752C14.6969 9.67334 14.5056 9.54727 14.2939 9.54727H13.4867C12.515 11.3683 11.0993 13.2501 10.1987 14.2854C9.56529 15.0119 8.43397 15.011 7.80157 14.2854C7.73689 14.2111 7.3992 13.8201 6.93407 13.2189L5.97729 13.7078L9.59646 17.32L16.4541 13.7648L14.7805 9.86752Z" fill="#292929"/>
<path d="M0.331922 16.5914L0.0432568 17.2636C-0.106157 17.6115 0.149824 18 0.529813 18H8.30112C8.34974 17.9639 8.35029 17.9661 8.61121 17.8308L4.98669 14.2138L0.331922 16.5914Z" fill="#292929"/>
<path d="M17.9567 17.2636L16.8723 14.7387L10.5815 18H17.4701C17.8493 18 18.1063 17.6122 17.9567 17.2636Z" fill="#292929"/>
<path d="M9.52951 4.75751C9.52951 4.46609 9.29193 4.2292 9.00011 4.2292C8.70814 4.2292 8.4707 4.46609 8.4707 4.75751C8.4707 5.04878 8.70814 5.28581 9.00011 5.28581C9.29193 5.28581 9.52951 5.04878 9.52951 4.75751Z" fill="#292929"/>
<path d="M9.39933 13.5569C9.57759 13.3522 13.7643 8.50919 13.7643 5.18006C13.7643 -1.68474 4.23535 -1.76851 4.23535 5.18006C4.23535 8.50919 8.4221 13.3522 8.60035 13.5569C8.81143 13.799 9.18867 13.7987 9.39933 13.5569ZM7.41163 4.7575C7.41163 3.88354 8.1241 3.17259 8.99984 3.17259C9.87545 3.17259 10.5879 3.88354 10.5879 4.7575C10.5879 5.63133 9.87545 6.34228 8.99984 6.34228C8.1241 6.34228 7.41163 5.63133 7.41163 4.7575Z" fill="#C71E27"/>
</g>
<defs>
<clipPath id="clip0_76_2555">
<rect width="18" height="18" fill="white"/>
</clipPath>
</defs>
</svg>
