<svg width="51" height="50" viewBox="0 0 51 50" fill="none" xmlns="http://www.w3.org/2000/svg">
<g clip-path="url(#clip0_1056_14577)">
<g clip-path="url(#clip1_1056_14577)">
<path d="M36.6 1.6665C32.075 1.6665 28.025 3.89122 25.5 7.30414C22.975 3.89122 18.925 1.6665 14.4 1.6665C6.725 1.6665 0.5 7.98673 0.5 15.7985C0.5 18.807 0.975 21.5879 1.8 24.1665C5.75 36.8069 17.925 44.3659 23.95 46.439C24.8 46.7423 26.2 46.7423 27.05 46.439C33.075 44.3659 45.25 36.8069 49.2 24.1665C50.025 21.5879 50.5 18.807 50.5 15.7985C50.5 7.98673 44.275 1.6665 36.6 1.6665Z" fill="#DADADA"/>
</g>
<path fill-rule="evenodd" clip-rule="evenodd" d="M32.5711 19.7574C33.3521 18.9764 33.3521 17.71 32.5711 16.929C31.79 16.1479 30.5237 16.1479 29.7426 16.929L25.5 21.1716L21.2574 16.929C20.4763 16.1479 19.21 16.1479 18.4289 16.929C17.6479 17.71 17.6479 18.9764 18.4289 19.7574L22.6716 24L18.4289 28.2427C17.6479 29.0237 17.6479 30.2901 18.4289 31.0711C19.21 31.8522 20.4763 31.8522 21.2574 31.0711L25.5 26.8285L29.7426 31.0711C30.5237 31.8522 31.79 31.8522 32.5711 31.0711C33.3521 30.2901 33.3521 29.0237 32.5711 28.2427L28.3284 24L32.5711 19.7574Z" fill="white"/>
</g>
<defs>
<clipPath id="clip0_1056_14577">
<rect width="50" height="50" fill="white" transform="translate(0.5)"/>
</clipPath>
<clipPath id="clip1_1056_14577">
<rect width="50" height="50" fill="white" transform="translate(0.5)"/>
</clipPath>
</defs>
</svg>
