<svg width="23" height="24" viewBox="0 0 23 24" fill="none" xmlns="http://www.w3.org/2000/svg">
<path fill-rule="evenodd" clip-rule="evenodd" d="M16.3069 12.401C16.1267 11.658 15.4577 11.1314 14.6918 11.1314C13.9857 11.1314 13.3565 11.5792 13.1232 12.2435L13.0301 12.5086V7.11732C13.0301 6.20055 12.2849 5.45561 11.3682 5.45561C10.4515 5.45561 9.70696 6.20073 9.70696 7.11732V19.2423C9.70696 21.5905 11.6167 23.5001 13.9649 23.5001H18.742C21.09 23.5001 23 21.5902 23 19.2423V12.7931C23 11.8764 22.2549 11.1314 21.3381 11.1314C20.5719 11.1314 19.903 11.6582 19.723 12.4014L19.6764 12.5937L19.6299 12.4014C19.4498 11.6582 18.7809 11.1314 18.0148 11.1314C17.2487 11.1314 16.5801 11.6579 16.4 12.401L16.3535 12.5929L16.3069 12.401ZM3.81275 2.21714L4.32441 1.46784C4.73787 0.862341 5.42141 0.5 6.15498 0.5C6.88856 0.5 7.57209 0.862341 7.98555 1.46784L8.49721 2.21714C7.76822 1.94258 6.97899 1.79191 6.15498 1.79191C5.33098 1.79191 4.54175 1.94258 3.81275 2.21714ZM6.15498 3.32523C3.32652 3.32523 1.02543 5.62667 1.02543 8.45523V11.2267C1.02543 13.3274 0.70532 15.1607 0 17.0304H6.15498H8.17369V7.11732C8.17369 6.06377 8.68508 5.12844 9.47283 4.54626C8.57771 3.78523 7.41913 3.32523 6.15498 3.32523ZM8.17369 19.0619L8.10711 19.1241C7.57703 19.619 6.88074 19.892 6.15498 19.892C5.42918 19.892 4.73289 19.619 4.20281 19.1241L3.6027 18.5637H8.17369V19.0619Z" fill="#C71E27"/>
</svg>
