<svg width="14" height="17" viewBox="0 0 14 17" fill="none" xmlns="http://www.w3.org/2000/svg">
<g clip-path="url(#clip0_1230_64)">
<path d="M11.5877 0.949531C11.4281 0.67225 11.1309 0.5 10.8124 0.5H7.48291V4.45741H13.6067L11.5877 0.949531Z" fill="black"/>
<path d="M6.5493 0.5H3.18842C2.86922 0.5 2.57213 0.672563 2.41253 0.950469L0.400879 4.45741H6.54927L6.5493 0.5Z" fill="black"/>
<path d="M0.0668945 5.39526V15.3974C0.0668945 16.0055 0.55938 16.5 1.16448 16.5H12.836C13.4411 16.5 13.9336 16.0055 13.9336 15.3974V5.39526H0.0668945ZM9.11855 9.60151L6.70497 12.0268C6.61382 12.1184 6.49434 12.1644 6.37489 12.1644C6.25543 12.1644 6.13595 12.1184 6.04511 12.0268L4.91363 10.8901C4.73164 10.7072 4.73164 10.4102 4.91363 10.227C5.09594 10.0439 5.3915 10.0439 5.5738 10.227L6.37492 11.0324L8.45872 8.93845C8.64102 8.75526 8.93658 8.75526 9.11858 8.93845C9.30088 9.12164 9.30088 9.41833 9.11855 9.60151Z" fill="black"/>
</g>
<defs>
<clipPath id="clip0_1230_64">
<rect width="14" height="17" fill="white"/>
</clipPath>
</defs>
</svg>
