<svg width="41" height="41" viewBox="0 0 41 41" fill="none" xmlns="http://www.w3.org/2000/svg">
<g clip-path="url(#clip0_668_997)">
<path d="M13.4868 21.6717H27.447C28.0902 21.6717 28.6104 21.1474 28.6104 20.4998V6.35933C28.6104 5.71175 28.0902 5.18746 27.447 5.18746H23.957V4.0156C23.957 2.07714 22.3913 0.5 20.4669 0.5C18.5426 0.5 16.9769 2.07714 16.9769 4.0156V5.18746H13.4868C12.844 5.18746 12.3235 5.71175 12.3235 6.35933V20.4998C12.3235 21.1474 12.844 21.6717 13.4868 21.6717ZM19.3036 4.0156C19.3036 3.36894 19.8262 2.84373 20.4669 2.84373C21.1077 2.84373 21.6303 3.36894 21.6303 4.0156V5.18746H19.3036V4.0156Z" fill="#C71E27"/>
<path d="M37.4152 19.8932C37.2061 19.5431 36.8265 19.328 36.42 19.328C34.3702 19.328 32.4897 20.4739 31.5381 22.3028L27.9696 29.1631C27.3631 30.3258 26.1792 31.0466 24.8774 31.0466H16.9769C16.334 31.0466 15.8135 30.5224 15.8135 29.8748C15.8135 29.2272 16.334 28.7029 16.9769 28.7029H24.8771C25.3112 28.7029 25.7066 28.4627 25.9089 28.0746C26.1104 27.687 26.719 26.5167 27.2422 25.5108C27.407 25.194 27.3955 24.8135 27.2116 24.5074C27.0274 24.2016 26.6981 24.0155 26.3431 24.0155H14.2503C12.6961 24.0155 11.2374 24.6255 10.1377 25.7321L3.25757 32.6625C2.80314 33.1203 2.80314 33.8619 3.25757 34.3196L9.07431 40.1564C9.30153 40.3853 9.59933 40.5 9.89684 40.5C10.1943 40.5 10.4921 40.3853 10.7194 40.1564L15.1319 35.7341H24.8771C27.9151 35.7341 30.6802 34.0496 32.0913 31.3384L37.4491 21.0446C37.64 20.6817 37.6263 20.2447 37.4152 19.8932Z" fill="#292929"/>
</g>
<defs>
<clipPath id="clip0_668_997">
<rect width="40" height="40" fill="white" transform="translate(0.25 0.5)"/>
</clipPath>
</defs>
</svg>
