<svg width="40" height="41" viewBox="0 0 40 41" fill="none" xmlns="http://www.w3.org/2000/svg">
<path fill-rule="evenodd" clip-rule="evenodd" d="M27.2127 36.5V21.6474L40 14.2266V28.5106C40 28.8714 39.8208 29.1833 39.51 29.3636L27.2127 36.5ZM11.8306 29.1181H1.51328C0.677578 29.1181 0 28.437 0 27.597C0 26.757 0.677578 26.0759 1.51328 26.0759H11.7768C13.5515 26.0759 13.5515 23.2271 11.7768 23.2271H5.60914C4.77344 23.2271 4.09578 22.546 4.09578 21.706C4.09578 20.866 4.77344 20.1849 5.60914 20.1849H10.433C12.2077 20.1849 12.2077 17.3361 10.433 17.3361H1.51336C0.677656 17.3361 7.8125e-05 16.6551 7.8125e-05 15.815C7.8125e-05 14.975 0.677656 14.294 1.51336 14.294H11.8796L24.5511 21.6476V36.5L11.8306 29.1181ZM13.0851 11.9121L25.8819 19.3383L38.6787 11.912L25.9064 4.5H17.5264C16.6907 4.5 16.0131 5.18107 16.0131 6.02108C16.0131 6.86109 16.6907 7.54216 17.5264 7.54216H19.2973C19.46 7.54216 19.5963 7.64731 19.6384 7.80523C19.6805 7.96315 19.6148 8.12271 19.4739 8.20454L13.0851 11.9121Z" fill="#C71E27"/>
<path fill-rule="evenodd" clip-rule="evenodd" d="M12.3566 4.5C13.1923 4.5 13.8699 5.18107 13.8699 6.02108C13.8699 6.86109 13.1923 7.54216 12.3566 7.54216H3.15838C2.32268 7.54216 1.64502 6.86109 1.64502 6.02108C1.64502 5.18107 2.3226 4.5 3.15838 4.5H12.3566Z" fill="#292929"/>
</svg>
