<svg width="12" height="12" viewBox="0 0 12 12" fill="none" xmlns="http://www.w3.org/2000/svg">
<g clip-path="url(#clip0_298_17109)">
<path d="M5.99994 0C4.81325 0 3.65321 0.351894 2.66652 1.01118C1.67983 1.67047 0.91079 2.60754 0.456664 3.7039C0.00253869 4.80025 -0.116281 6.00665 0.11523 7.17054C0.346741 8.33443 0.918186 9.40352 1.7573 10.2426C2.59642 11.0818 3.66551 11.6532 4.8294 11.8847C5.99328 12.1162 7.19968 11.9974 8.29604 11.5433C9.3924 11.0891 10.3295 10.3201 10.9888 9.33342C11.648 8.34673 11.9999 7.18669 11.9999 6C11.9981 4.40928 11.3653 2.88424 10.2405 1.75943C9.1157 0.63462 7.59066 0.00187662 5.99994 0ZM8.02194 8.022C7.91965 8.12426 7.78094 8.1817 7.6363 8.1817C7.49167 8.1817 7.35296 8.12426 7.25067 8.022L5.6143 6.38563C5.512 6.28337 5.45452 6.14465 5.45449 6V2.72727C5.45449 2.58261 5.51195 2.44387 5.61425 2.34158C5.71654 2.23929 5.85528 2.18182 5.99994 2.18182C6.1446 2.18182 6.28334 2.23929 6.38563 2.34158C6.48793 2.44387 6.54539 2.58261 6.54539 2.72727V5.77418L8.02194 7.25073C8.1242 7.35301 8.18164 7.49173 8.18164 7.63636C8.18164 7.781 8.1242 7.91971 8.02194 8.022Z" fill="#292929"/>
</g>
<defs>
<clipPath id="clip0_298_17109">
<rect width="12" height="12" fill="white"/>
</clipPath>
</defs>
</svg>
