<svg width="40" height="40" viewBox="0 0 40 40" fill="none" xmlns="http://www.w3.org/2000/svg">
<g clip-path="url(#clip0_929_15484)">
<path fill-rule="evenodd" clip-rule="evenodd" d="M29.3333 2.66667C29.3333 1.19391 30.5272 0 32 0H36C37.4728 0 38.6667 1.19391 38.6667 2.66667V8.35675C39.4637 8.81783 40 9.67962 40 10.6667V32C40 32.987 39.4637 33.8488 38.6667 34.3099V37.3333C38.6667 38.8061 37.4728 40 36 40H32C30.5272 40 29.3333 38.8061 29.3333 37.3333V34.3099C28.5363 33.8488 28 32.987 28 32V10.6667C28 9.67962 28.5363 8.81783 29.3333 8.35675V2.66667ZM30.3333 30.6667C29.781 30.6667 29.3333 31.1144 29.3333 31.6667V32.3333C29.3333 32.8856 29.781 33.3333 30.3333 33.3333H36.3333C36.8856 33.3333 37.3333 32.8856 37.3333 32.3333V31.6667C37.3333 31.1144 36.8856 30.6667 36.3333 30.6667H30.3333Z" fill="#292929"/>
<path fill-rule="evenodd" clip-rule="evenodd" d="M15.3333 2.66667C15.3333 1.19391 16.5272 0 18 0H22C23.4728 0 24.6667 1.19391 24.6667 2.66667V8.35675C25.4637 8.81783 26 9.67962 26 10.6667V32C26 32.987 25.4637 33.8488 24.6667 34.3099V37.3333C24.6667 38.8061 23.4728 40 22 40H18C16.5272 40 15.3333 38.8061 15.3333 37.3333V34.3099C14.5363 33.8488 14 32.987 14 32V10.6667C14 9.67962 14.5363 8.81783 15.3333 8.35675V2.66667ZM17 9.33333C16.4477 9.33333 16 9.78105 16 10.3333V11C16 11.5523 16.4477 12 17 12H23C23.5523 12 24 11.5523 24 11V10.3333C24 9.78105 23.5523 9.33333 23 9.33333H17Z" fill="#C71E27"/>
<path fill-rule="evenodd" clip-rule="evenodd" d="M1.33333 2.66667C1.33333 1.19391 2.52724 0 4 0H8C9.47276 0 10.6667 1.19391 10.6667 2.66667V8.35675C11.4637 8.81783 12 9.67962 12 10.6667V32C12 32.987 11.4637 33.8488 10.6667 34.3099V37.3333C10.6667 38.8061 9.47276 40 8 40H4C2.52724 40 1.33333 38.8061 1.33333 37.3333V34.3099C0.536265 33.8488 0 32.987 0 32V10.6667C0 9.67962 0.536265 8.81783 1.33333 8.35675V2.66667ZM3 30.6667C2.44772 30.6667 2 31.1144 2 31.6667V32.3333C2 32.8856 2.44772 33.3333 3 33.3333H9C9.55229 33.3333 10 32.8856 10 32.3333V31.6667C10 31.1144 9.55229 30.6667 9 30.6667H3Z" fill="#292929"/>
</g>
<defs>
<clipPath id="clip0_929_15484">
<rect width="40" height="40" fill="white"/>
</clipPath>
</defs>
</svg>
