<svg width="11" height="16" viewBox="0 0 11 16" fill="none" xmlns="http://www.w3.org/2000/svg">
<path d="M10.0393 8.62432L2.76754 15.7444C2.59935 15.9092 2.37484 16 2.13544 16C1.89604 16 1.67153 15.9092 1.50334 15.7444L0.967822 15.2202C0.619357 14.8786 0.619357 14.3234 0.967822 13.9823L7.07413 8.00332L0.961047 2.01768C0.792859 1.85286 0.699997 1.63316 0.699997 1.39888C0.699997 1.16435 0.792859 0.944643 0.961047 0.779701L1.49656 0.255608C1.66489 0.0907965 1.88927 9.53674e-07 2.12866 9.53674e-07C2.36806 9.53674e-07 2.59258 0.0907965 2.76076 0.255608L10.0393 7.38218C10.2079 7.54752 10.3005 7.76826 10.3 8.00293C10.3005 8.2385 10.2079 8.45912 10.0393 8.62432Z" fill="white"/>
</svg>
