<svg width="16" height="15" viewBox="0 0 16 15" fill="none" xmlns="http://www.w3.org/2000/svg">
<g clip-path="url(#clip0_1230_51)">
<path d="M15.7655 3.35243C15.4763 2.84639 14.9392 2.53114 14.3608 2.52285H3.78439L3.30514 0.647979C3.20599 0.274664 2.85895 0.0174921 2.47886 0.0340838H0.826286C0.371829 0.0340838 0 0.407398 0 0.863671C0 1.31994 0.371829 1.69326 0.826286 1.69326H1.85088L4.13143 10.2048C4.23058 10.5781 4.57762 10.8353 4.95771 10.8187H12.3943C12.7083 10.8187 12.9892 10.6445 13.1297 10.3624L15.8399 4.92035C16.0795 4.4226 16.0465 3.8336 15.7655 3.35243Z" fill="black"/>
<path d="M4.5446 14.9667C5.22912 14.9667 5.78403 14.4095 5.78403 13.7223C5.78403 13.035 5.22912 12.4779 4.5446 12.4779C3.86009 12.4779 3.30518 13.035 3.30518 13.7223C3.30518 14.4095 3.86009 14.9667 4.5446 14.9667Z" fill="black"/>
<path d="M12.8073 14.9667C13.4918 14.9667 14.0467 14.4095 14.0467 13.7223C14.0467 13.035 13.4918 12.4779 12.8073 12.4779C12.1228 12.4779 11.5679 13.035 11.5679 13.7223C11.5679 14.4095 12.1228 14.9667 12.8073 14.9667Z" fill="black"/>
</g>
<defs>
<clipPath id="clip0_1230_51">
<rect width="16" height="15" fill="white"/>
</clipPath>
</defs>
</svg>
