<svg width="6" height="8" viewBox="0 0 6 8" fill="none" xmlns="http://www.w3.org/2000/svg">
<path d="M5.26965 3.68784L1.63375 0.127804C1.54965 0.045398 1.43739 0 1.3177 0C1.198 0 1.08574 0.045398 1.00165 0.127804L0.733888 0.389915C0.559656 0.560711 0.559656 0.838302 0.733888 1.00884L3.78704 3.99834L0.730501 6.99116C0.646407 7.07357 0.599976 7.18342 0.599976 7.30056C0.599976 7.41783 0.646407 7.52768 0.730501 7.61015L0.99826 7.8722C1.08242 7.9546 1.19461 8 1.31431 8C1.43401 8 1.54627 7.9546 1.63036 7.8722L5.26965 4.30891C5.35394 4.22624 5.40024 4.11587 5.39997 3.99854C5.40024 3.88075 5.35394 3.77044 5.26965 3.68784Z" fill="#C71E27"/>
</svg>
