<svg width="40" height="40" viewBox="0 0 40 40" fill="none" xmlns="http://www.w3.org/2000/svg">
<g clip-path="url(#clip0_929_15312)">
<path d="M24.2969 15.7037C25.0304 15.7037 25.625 15.1091 25.625 14.3756C25.625 13.6421 25.0304 13.0475 24.2969 13.0475C23.5634 13.0475 22.9688 13.6421 22.9688 14.3756C22.9688 15.1091 23.5634 15.7037 24.2969 15.7037Z" fill="#C71E27"/>
<path d="M31.7968 26.9537C32.5303 26.9537 33.125 26.3591 33.125 25.6256C33.125 24.8921 32.5303 24.2975 31.7968 24.2975C31.0633 24.2975 30.4687 24.8921 30.4687 25.6256C30.4687 26.3591 31.0633 26.9537 31.7968 26.9537Z" fill="#C71E27"/>
<path d="M38.8281 0.000648499H16.862C16.2148 0.000648499 15.6902 0.525335 15.6902 1.17252V40.0006H38.8281C39.4753 40.0006 40 39.4759 40 38.8287V1.17252C40 0.525335 39.4753 0.000648499 38.8281 0.000648499ZM25.4687 17.8546V33.1256C25.4687 33.7728 24.944 34.2975 24.2969 34.2975C23.6497 34.2975 23.125 33.7728 23.125 33.1256V17.8546C21.6734 17.3644 20.625 15.9906 20.625 14.3756C20.625 12.7606 21.6734 11.3869 23.125 10.8966V6.87564C23.125 6.22845 23.6497 5.70376 24.2969 5.70376C24.944 5.70376 25.4687 6.22845 25.4687 6.87564V10.8966C26.9203 11.3869 27.9687 12.7606 27.9687 14.3756C27.9687 15.9906 26.9203 17.3644 25.4687 17.8546ZM32.9687 29.1046V33.1256C32.9687 33.7728 32.444 34.2975 31.7968 34.2975C31.1497 34.2975 30.625 33.7728 30.625 33.1256V29.1046C29.1734 28.6143 28.125 27.2406 28.125 25.6256C28.125 24.0106 29.1734 22.6369 30.625 22.1466V6.87564C30.625 6.22845 31.1497 5.70376 31.7968 5.70376C32.444 5.70376 32.9687 6.22845 32.9687 6.87564V22.1466C34.4203 22.6369 35.4687 24.0106 35.4687 25.6256C35.4687 27.2406 34.4203 28.6143 32.9687 29.1046Z" fill="#C71E27"/>
<path d="M9.46908 14.7517V16.7453C9.33884 16.7964 9.2097 16.85 9.08165 16.9062L7.67158 15.4961C7.27759 15.1021 6.66064 15.04 6.19611 15.3476C5.37619 15.8902 4.60674 16.5191 3.90885 17.2169C3.21018 17.9157 2.5812 18.6853 2.03948 19.5043C1.73221 19.9689 1.7944 20.5855 2.18823 20.9794L3.59823 22.3894C3.54205 22.5176 3.48838 22.6468 3.43729 22.7771H1.44378C0.886748 22.7771 0.40667 23.1693 0.295499 23.7151C0.0994835 24.6774 3.05176e-05 25.6664 3.05176e-05 26.6544C3.05176e-05 27.6423 0.0994835 28.6312 0.295499 29.5936C0.40667 30.1394 0.886748 30.5316 1.44378 30.5316H3.43729C3.48838 30.6619 3.54205 30.7912 3.59815 30.9193L2.18846 32.329C1.79464 32.7229 1.73237 33.3396 2.03964 33.8041C2.58143 34.6232 3.21041 35.3929 3.90924 36.0917C4.60776 36.7901 5.37729 37.419 6.1965 37.961C6.66111 38.2683 7.27783 38.2062 7.67173 37.8123L9.0815 36.4025C9.20962 36.4588 9.33884 36.5124 9.46915 36.5635V38.5568C9.46915 39.1139 9.86134 39.5939 10.4072 39.705C11.3705 39.9012 12.3594 40.0007 13.3464 40.0007V29.5406C11.7549 29.5406 10.4601 28.2458 10.4601 26.6544C10.4601 25.0628 11.7549 23.768 13.3464 23.768V13.3109C12.3577 13.3109 11.3696 13.4072 10.407 13.6034C9.86118 13.7146 9.46908 14.1947 9.46908 14.7517Z" fill="#292929"/>
</g>
<defs>
<clipPath id="clip0_929_15312">
<rect width="40" height="40" fill="white"/>
</clipPath>
</defs>
</svg>
