<svg width="16" height="17" viewBox="0 0 16 17" fill="none" xmlns="http://www.w3.org/2000/svg">
<g clip-path="url(#clip0_1241_36)">
<path d="M9.14203 10.6725C8.98828 10.8262 8.79828 10.9436 8.59237 11.0122L6.60359 11.6751C6.46006 11.723 6.31037 11.7473 6.15894 11.7473C5.78328 11.7473 5.43012 11.601 5.16453 11.3354C4.78544 10.9562 4.65531 10.4048 4.82484 9.89631L5.48778 7.90762C5.55637 7.70165 5.67387 7.51153 5.82747 7.35794L10.1229 3.0625H1.71875C0.771031 3.0625 0 3.83353 0 4.78125V14.7812C0 15.729 0.771031 16.5 1.71875 16.5H11.7187C12.6665 16.5 13.4375 15.729 13.4375 14.7812V6.37706L9.14203 10.6725Z" fill="black"/>
<path d="M6.49066 8.02076C6.43919 8.07222 6.40044 8.13494 6.37744 8.20397L5.7145 10.1927C5.65835 10.3611 5.70219 10.5468 5.82772 10.6724C5.95328 10.7979 6.13897 10.8418 6.30741 10.7856L8.29616 10.1227C8.36522 10.0997 8.42791 10.0609 8.47938 10.0095L14.3351 4.15376L12.3464 2.16504L6.49066 8.02076Z" fill="black"/>
<path d="M14.887 0.72882C14.5819 0.423727 14.0873 0.423727 13.7822 0.72882L13.0088 1.50223L14.9975 3.49098L15.7709 2.71757C16.076 2.41248 16.076 1.91782 15.7709 1.61273L14.887 0.72882Z" fill="black"/>
</g>
<defs>
<clipPath id="clip0_1241_36">
<rect width="16" height="17" fill="white"/>
</clipPath>
</defs>
</svg>
