<svg width="20" height="21" viewBox="0 0 20 21" fill="none" xmlns="http://www.w3.org/2000/svg">
<path d="M0.585067 15.7H15.8983C16.0356 15.7 16.1683 15.6526 16.2736 15.5663C16.4207 15.4448 19.7758 12.5989 19.9804 6.4556H3.53434C3.33054 12.0321 0.240637 14.6532 0.208527 14.6793C0.020276 14.8362 -0.0489849 15.0924 0.0357064 15.3203C0.119812 15.5477 0.339001 15.7 0.585067 15.7Z" fill="#292929"/>
<path d="M19.4143 2.98893H16.4845V2.41115C16.4845 2.0876 16.2266 1.83337 15.8985 1.83337C15.5704 1.83337 15.3125 2.0876 15.3125 2.41115V2.98893H12.3437V2.41115C12.3437 2.0876 12.0858 1.83337 11.7577 1.83337C11.4296 1.83337 11.1717 2.0876 11.1717 2.41115V2.98893H8.24191V2.41115C8.24191 2.0876 7.98409 1.83337 7.65595 1.83337C7.32781 1.83337 7.06998 2.0876 7.06998 2.41115V2.98893H4.14016C3.81202 2.98893 3.5542 3.24315 3.5542 3.5667V5.30003H20.0002V3.5667C20.0002 3.24315 19.7424 2.98893 19.4143 2.98893Z" fill="#292929"/>
<path d="M17.0264 16.4521C16.7082 16.7134 16.3088 16.8556 15.8985 16.8556H3.5542V18.5889C3.5542 18.9083 3.81628 19.1667 4.14016 19.1667H19.4143C19.7382 19.1667 20.0002 18.9083 20.0002 18.5889V12.1122C18.8705 14.8451 17.294 16.2312 17.0264 16.4521Z" fill="#292929"/>
</svg>
