<svg width="20" height="20" viewBox="0 0 20 20" fill="none" xmlns="http://www.w3.org/2000/svg">
<g clip-path="url(#clip0_642_18630)">
<path fill-rule="evenodd" clip-rule="evenodd" d="M10.763 2.26443C13.2344 -0.190096 17.37 -0.0624359 20 2.54965L11.0501 11.4384C8.42008 8.82628 8.29149 4.719 10.763 2.26443Z" fill="#C71E27"/>
<path fill-rule="evenodd" clip-rule="evenodd" d="M12.2571 1.18153L9.67262 3.74831L9.01604 3.09621C8.30528 2.39031 8.30528 1.23528 9.01604 0.529385C9.72674 -0.176462 10.8898 -0.176462 11.6005 0.529385L12.2571 1.18153Z" fill="#C71E27"/>
<path fill-rule="evenodd" clip-rule="evenodd" d="M17.2668 5.89258C17.7763 6.68572 17.6824 7.75083 16.9849 8.44357C16.2873 9.13637 15.2149 9.22961 14.4163 8.72363L17.2668 5.89258Z" fill="#292929"/>
<path fill-rule="evenodd" clip-rule="evenodd" d="M3.44104 6.27402L8.10112 2.354C8.19649 2.74178 8.39597 3.10894 8.69964 3.41054L9.00173 3.71061L4.51339 7.48617C4.2958 6.97687 3.9172 6.55186 3.44104 6.27402Z" fill="#C71E27"/>
<path fill-rule="evenodd" clip-rule="evenodd" d="M4.88316 15.6491L2.3598 11.0415C2.93263 10.9924 3.45195 10.7576 3.85652 10.3979L6.73228 15.6491H4.88316Z" fill="#C71E27"/>
<path fill-rule="evenodd" clip-rule="evenodd" d="M2.13495 6.36621C0.955847 6.36621 0 7.31552 0 8.48652C0 9.65757 0.955847 10.6069 2.13495 10.6069C3.31402 10.6069 4.26986 9.65757 4.26986 8.48652C4.26986 7.31552 3.31402 6.36621 2.13495 6.36621ZM2.13495 7.55562C1.61727 7.55562 1.19764 7.97242 1.19764 8.48652C1.19764 9.00067 1.61727 9.41742 2.13495 9.41742C2.6526 9.41742 3.07222 9.00067 3.07222 8.48652C3.07222 7.97242 2.6526 7.55562 2.13495 7.55562Z" fill="#C71E27"/>
<path fill-rule="evenodd" clip-rule="evenodd" d="M3.52368 17.6902V17.1142C3.52368 16.5529 3.98604 16.0938 4.55112 16.0938H11.2276C11.7927 16.0938 12.2551 16.5529 12.2551 17.1142V17.6902H3.52368Z" fill="#C71E27"/>
<path fill-rule="evenodd" clip-rule="evenodd" d="M3.23606 18.1348H12.5428C13.0593 18.1348 13.4819 18.5545 13.4819 19.0675C13.4819 19.5805 13.0593 20.0002 12.5428 20.0002H3.23606C2.71953 20.0002 2.29694 19.5805 2.29694 19.0675C2.29694 18.5545 2.71953 18.1348 3.23606 18.1348Z" fill="#292929"/>
<path fill-rule="evenodd" clip-rule="evenodd" d="M10.9901 15.6491H8.55371V15.1521C8.55371 14.9911 8.68634 14.8594 8.84846 14.8594H10.6953C10.8574 14.8594 10.9901 14.9911 10.9901 15.1521V15.6491Z" fill="#C71E27"/>
</g>
<defs>
<clipPath id="clip0_642_18630">
<rect width="20" height="20" fill="white"/>
</clipPath>
</defs>
</svg>
