<svg width="16" height="16" viewBox="0 0 16 16" fill="none" xmlns="http://www.w3.org/2000/svg">
<path d="M14.9293 4.84668V9.74603C14.9293 11.0666 13.848 12.1409 12.5189 12.1409H2.00854V13.7367C2.00854 14.5436 2.66932 15.2001 3.48148 15.2001H14.5273C15.3394 15.2001 16.0002 14.5436 16.0002 13.7367V6.2542C16.0002 5.58581 15.5466 5.02101 14.9293 4.84668Z" fill="#292929"/>
<path d="M13.9919 9.74607V4.72461H0.000244141V9.74607C0.000244141 10.5543 0.65968 11.2095 1.47315 11.2095H12.519C13.3324 11.2095 13.9919 10.5543 13.9919 9.74607ZM11.9502 9.14791H9.94188C9.68301 9.14791 9.47313 8.93939 9.47313 8.68219C9.47313 8.42499 9.68301 8.21647 9.94188 8.21647H11.9502C12.2091 8.21647 12.419 8.42499 12.419 8.68219C12.419 8.93939 12.2091 9.14791 11.9502 9.14791Z" fill="#292929"/>
<path d="M13.9919 2.26318C13.9919 1.45498 13.3324 0.799805 12.519 0.799805H1.47318C0.659712 0.799805 0.000244141 1.45501 0.000244141 2.26321V3.79282H13.9919V2.26318Z" fill="#292929"/>
</svg>
