<svg width="20" height="21" viewBox="0 0 20 21" fill="none" xmlns="http://www.w3.org/2000/svg">
<g clip-path="url(#clip0_1241_2)">
<mask id="mask0_1241_2" style="mask-type:luminance" maskUnits="userSpaceOnUse" x="0" y="0" width="20" height="21">
<path d="M20 0.5H0V20.5H20V0.5Z" fill="white"/>
</mask>
<g mask="url(#mask0_1241_2)">
<path d="M10.0013 10.8855C12.874 10.8855 15.2223 8.54991 15.2223 5.69275C15.2223 2.83559 12.874 0.5 10.0013 0.5C7.12855 0.5 4.78027 2.83559 4.78027 5.69275C4.78027 8.54991 7.12859 10.8855 10.0013 10.8855Z" fill="black"/>
<path d="M18.9615 15.0351C18.8247 14.695 18.6424 14.3776 18.4372 14.0828C17.3884 12.5408 15.7697 11.5204 13.9457 11.271C13.7177 11.2483 13.4669 11.2936 13.2845 11.4297C12.327 12.1326 11.187 12.4954 10.0014 12.4954C8.81582 12.4954 7.67587 12.1326 6.71829 11.4297C6.53588 11.2936 6.28509 11.2256 6.05711 11.271C4.23316 11.5204 2.59163 12.5408 1.56567 14.0828C1.36047 14.3776 1.17806 14.7177 1.04129 15.0351C0.972913 15.1712 0.995693 15.3299 1.06407 15.466C1.24649 15.7835 1.47446 16.1009 1.67965 16.373C1.99883 16.8039 2.34083 17.1894 2.72844 17.5522C3.04761 17.8696 3.41239 18.1644 3.77722 18.4592C5.57835 19.7971 7.7443 20.5 9.97863 20.5C12.213 20.5 14.3789 19.797 16.18 18.4592C16.5448 18.1871 16.9096 17.8696 17.2288 17.5522C17.5936 17.1894 17.9584 16.8039 18.2776 16.373C18.5056 16.0782 18.7108 15.7835 18.8932 15.466C19.0071 15.3299 19.0299 15.1712 18.9615 15.0351Z" fill="black"/>
</g>
</g>
<defs>
<clipPath id="clip0_1241_2">
<rect width="20" height="21" fill="white"/>
</clipPath>
</defs>
</svg>
