<svg width="23" height="22" viewBox="0 0 23 22" fill="none" xmlns="http://www.w3.org/2000/svg">
<path d="M22.663 5.03788C22.2472 4.31044 21.4752 3.85728 20.6437 3.84535H5.44006L4.75114 1.15023C4.60861 0.613588 4.10974 0.243903 3.56336 0.267754H1.18779C0.534504 0.267754 0 0.804393 0 1.46029C0 2.11618 0.534504 2.65282 1.18779 2.65282H2.66064L5.93893 14.8882C6.08146 15.4248 6.58033 15.7945 7.12671 15.7707H17.8168C18.2681 15.7707 18.672 15.5202 18.8739 15.1148L22.7699 7.29177C23.1143 6.57625 23.0668 5.72955 22.663 5.03788Z" fill="#C71E27"/>
<path d="M6.53266 21.7333C7.51665 21.7333 8.31433 20.9324 8.31433 19.9445C8.31433 18.9566 7.51665 18.1557 6.53266 18.1557C5.54866 18.1557 4.75098 18.9566 4.75098 19.9445C4.75098 20.9324 5.54866 21.7333 6.53266 21.7333Z" fill="#C71E27"/>
<path d="M18.4106 21.7333C19.3946 21.7333 20.1923 20.9324 20.1923 19.9445C20.1923 18.9566 19.3946 18.1557 18.4106 18.1557C17.4266 18.1557 16.6289 18.9566 16.6289 19.9445C16.6289 20.9324 17.4266 21.7333 18.4106 21.7333Z" fill="#C71E27"/>
</svg>
