<svg width="40" height="40" viewBox="0 0 40 40" fill="none" xmlns="http://www.w3.org/2000/svg">
<path d="M11.8334 2.34375H3.66671V1.17188C3.66671 0.524687 3.14435 0 2.50004 0C1.85573 0 1.33337 0.524687 1.33337 1.17188V38.8281C1.33337 39.4753 1.85573 40 2.50004 40C3.14435 40 3.66671 39.4753 3.66671 38.8281V37.5H11.8334C13.763 37.5 15.3334 35.9227 15.3334 33.9844V5.85938C15.3334 3.92109 13.763 2.34375 11.8334 2.34375ZM8.67482 23.7805L9.86404 22.5867L6.64482 20.9703C5.93393 20.6125 5.77915 19.6586 6.34149 19.093L8.67482 16.7492C9.76604 15.6539 11.4173 17.3094 10.3253 18.407L9.13604 19.6008L12.3553 21.2172C13.0662 21.575 13.2209 22.5289 12.6586 23.0945L10.3253 25.4383C9.23404 26.5336 7.58282 24.8781 8.67482 23.7805ZM11.8334 32.8125C11.1894 32.8125 10.6667 32.2875 10.6667 31.6406C10.6667 30.9937 11.1894 30.4688 11.8334 30.4688C12.4774 30.4688 13 30.9937 13 31.6406C13 32.2875 12.4774 32.8125 11.8334 32.8125ZM11.8334 9.375C11.1894 9.375 10.6667 8.85 10.6667 8.20312C10.6667 7.55625 11.1894 7.03125 11.8334 7.03125C12.4774 7.03125 13 7.55625 13 8.20312C13 8.85 12.4774 9.375 11.8334 9.375Z" fill="#C71E27"/>
<path d="M20.0001 19.9219C20.0001 18.3945 19.0247 17.0906 17.6667 16.6078V23.2359C19.0247 22.7531 20.0001 21.4492 20.0001 19.9219Z" fill="#C71E27"/>
<path d="M17.6667 9.43982V14.1804C20.326 14.7242 22.3334 17.0914 22.3334 19.9219C22.3334 22.7523 20.326 25.1195 17.6667 25.6633V30.4039C22.9097 29.8195 27.0001 25.3414 27.0001 19.9219C27.0001 14.5023 22.9097 10.0242 17.6667 9.43982Z" fill="#292929"/>
<path d="M35.1666 0C33.237 0 31.6666 1.57734 31.6666 3.51562C31.6666 4.05781 31.7895 4.57188 32.0089 5.03047L25.9056 11.1609C26.2961 11.5671 26.8715 12.285 27.343 13.0312L33.6585 6.6875C34.1151 6.90781 34.6269 7.03125 35.1666 7.03125C37.0963 7.03125 38.6666 5.45391 38.6666 3.51562C38.6666 1.57734 37.0963 0 35.1666 0Z" fill="#C71E27"/>
</svg>
