<svg width="16" height="16" viewBox="0 0 16 16" fill="none" xmlns="http://www.w3.org/2000/svg">
<g clip-path="url(#clip0_550_38366)">
<path d="M15.6364 6.54545C15.8374 6.54545 16 6.38379 16 6.18283V4.72844C16 4.60026 15.9325 4.48132 15.8221 4.41597L8.6992 0.185937C8.25708 -0.059074 7.7585 -0.06654 7.29081 0.190914L0.17792 4.41597C0.0674658 4.48128 0 4.60026 0 4.72844V6.18283C0 6.38379 0.162647 6.54545 0.363647 6.54545H1.45455V13.0912C0.652329 13.0912 0 13.7435 0 14.5456V15.6364C0 15.8374 0.162647 16 0.363647 16H15.6364C15.8374 16 16 15.8374 16 15.6364V14.5456C16 13.7435 15.3477 13.0912 14.5454 13.0912V6.54545H15.6364ZM6.54544 13.0909H4.36363V6.54545H6.54544V13.0909ZM7.99928 5.09274C7.19672 5.09274 6.54401 4.4401 6.54401 3.63764C6.54401 2.83517 7.19672 2.18254 7.99928 2.18254C8.80185 2.18254 9.45452 2.83517 9.45452 3.63764C9.45452 4.4401 8.80182 5.09274 7.99928 5.09274ZM11.6363 13.0909H9.45452V6.54545H11.6363V13.0909Z" fill="#DADADA"/>
</g>
<defs>
<clipPath id="clip0_550_38366">
<rect width="16" height="16" fill="white"/>
</clipPath>
</defs>
</svg>
