<svg width="16" height="15" viewBox="0 0 16 15" fill="none" xmlns="http://www.w3.org/2000/svg">
<path d="M15.6217 6.24108L12.1618 9.60355L12.9788 14.3526C13.0144 14.5603 12.9288 14.7702 12.7578 14.8942C12.6611 14.9646 12.5461 15 12.4312 15C12.3428 15 12.254 14.979 12.1729 14.9363L7.89474 12.6941L3.61716 14.9358C3.43053 15.0343 3.20335 15.0183 3.03227 14.8937C2.86118 14.7696 2.77564 14.5598 2.81119 14.3521L3.62827 9.60299L0.167774 6.24108C0.0166901 6.09378 -0.0383001 5.87338 0.0272438 5.67347C0.0927877 5.47356 0.266646 5.32681 0.476053 5.29636L5.25798 4.60415L7.39649 0.283667C7.58368 -0.0945555 8.20579 -0.0945555 8.39298 0.283667L10.5315 4.60415L15.3134 5.29636C15.5228 5.32681 15.6967 5.47301 15.7622 5.67347C15.8278 5.87393 15.7728 6.09322 15.6217 6.24108Z" fill="#EF7446"/>
</svg>
