<svg width="20" height="21" viewBox="0 0 20 21" fill="none" xmlns="http://www.w3.org/2000/svg">
<g clip-path="url(#clip0_1241_16)">
<mask id="mask0_1241_16" style="mask-type:luminance" maskUnits="userSpaceOnUse" x="0" y="0" width="20" height="21">
<path d="M20 0.5H0V20.5H20V0.5Z" fill="white"/>
</mask>
<g mask="url(#mask0_1241_16)">
<path d="M19.3567 14.9C19.302 14.8567 15.3333 11.996 14.244 12.2013C13.724 12.2933 13.4267 12.648 12.83 13.358C12.734 13.4727 12.5033 13.7473 12.324 13.9427C11.9469 13.8197 11.5791 13.67 11.2233 13.4947C9.38702 12.6007 7.90333 11.117 7.00933 9.28067C6.83391 8.92495 6.68419 8.55712 6.56133 8.18C6.75733 8 7.032 7.76933 7.14933 7.67067C7.856 7.07733 8.21133 6.78 8.30333 6.25867C8.492 5.17867 5.63333 1.18267 5.60333 1.14667C5.47363 0.961381 5.30437 0.807242 5.10778 0.695402C4.9112 0.583562 4.69221 0.516819 4.46667 0.5C3.308 0.5 0 4.79133 0 5.514C0 5.556 0.0606666 9.82533 5.32533 15.1807C10.6753 20.4393 14.944 20.5 14.986 20.5C15.7093 20.5 20 17.192 20 16.0333C19.9834 15.8086 19.917 15.5903 19.8058 15.3943C19.6945 15.1983 19.5411 15.0295 19.3567 14.9Z" fill="black"/>
</g>
</g>
<defs>
<clipPath id="clip0_1241_16">
<rect width="20" height="21" fill="white"/>
</clipPath>
</defs>
</svg>
