<svg width="149" height="54" viewBox="0 0 149 54" fill="none" xmlns="http://www.w3.org/2000/svg">
<path d="M44 0L21.1741 24.8699H32.4357L21.1741 37.4039H40C42.2091 37.4039 44 35.613 44 33.4039V0Z" fill="#292929"/>
<path d="M-2.09808e-05 54L22.8258 29.1301L11.5643 29.1301L22.8258 16.5961L3.99998 16.5961C1.79084 16.5961 -1.85265e-05 18.387 -1.86788e-05 20.5961L-2.09808e-05 54Z" fill="#C71E27"/>
<path d="M70.7295 28.2715H64.0205V33.9258H71.96V37.5H59.7139V16.1719H71.9307V19.7607H64.0205V24.7998H70.7295V28.2715ZM78.5957 37.5H74.4355V15H78.5957V37.5ZM88.2051 37.793C86.0762 37.793 84.416 37.1582 83.2246 35.8887C82.0332 34.6191 81.4375 32.8027 81.4375 30.4395V29.1797C81.4375 26.6797 81.9844 24.751 83.0781 23.3936C84.1719 22.0361 85.7393 21.3574 87.7803 21.3574C89.7725 21.3574 91.2715 21.9971 92.2773 23.2764C93.2832 24.5459 93.7959 26.4307 93.8154 28.9307V30.9668H85.5684C85.627 32.1387 85.8857 32.998 86.3447 33.5449C86.8037 34.082 87.5117 34.3506 88.4688 34.3506C89.8555 34.3506 91.0127 33.877 91.9404 32.9297L93.5664 35.4346C93.0586 36.1377 92.3213 36.709 91.3545 37.1484C90.3877 37.5781 89.3379 37.793 88.2051 37.793ZM85.5977 28.0664H89.7432V27.6855C89.7236 26.7383 89.5674 26.0205 89.2744 25.5322C88.9814 25.0439 88.4736 24.7998 87.751 24.7998C87.0283 24.7998 86.501 25.0586 86.1689 25.5762C85.8467 26.0938 85.6562 26.9238 85.5977 28.0664ZM101.887 34.3506C103.088 34.3506 103.698 33.5693 103.718 32.0068H107.614C107.595 33.7354 107.062 35.1318 106.018 36.1963C104.973 37.2607 103.625 37.793 101.975 37.793C99.9336 37.793 98.376 37.1582 97.3018 35.8887C96.2275 34.6191 95.6807 32.749 95.6611 30.2783V29.0186C95.6611 26.5283 96.1885 24.6289 97.2432 23.3203C98.3076 22.0117 99.875 21.3574 101.945 21.3574C103.693 21.3574 105.07 21.8994 106.076 22.9834C107.082 24.0576 107.595 25.5859 107.614 27.5684H103.718C103.708 26.6797 103.562 25.9961 103.278 25.5176C102.995 25.0391 102.526 24.7998 101.872 24.7998C101.149 24.7998 100.632 25.0586 100.319 25.5762C100.007 26.084 99.8408 27.0752 99.8213 28.5498V30.1611C99.8213 31.4502 99.8848 32.3535 100.012 32.8711C100.139 33.3789 100.349 33.7549 100.642 33.999C100.935 34.2334 101.35 34.3506 101.887 34.3506ZM114.777 17.7539V21.6504H116.901V24.7705H114.777V32.6367C114.777 33.2617 114.86 33.6914 115.026 33.9258C115.202 34.1602 115.534 34.2773 116.022 34.2773C116.423 34.2773 116.75 34.2432 117.004 34.1748L116.975 37.3975C116.271 37.6611 115.51 37.793 114.689 37.793C112.014 37.793 110.661 36.2598 110.632 33.1934V24.7705H108.801V21.6504H110.632V17.7539H114.777ZM127.009 25.6494L125.632 25.5322C124.499 25.5322 123.732 26.0303 123.332 27.0264V37.5H119.172V21.6504H123.083L123.2 23.3643C123.854 22.0264 124.758 21.3574 125.91 21.3574C126.379 21.3574 126.76 21.4209 127.053 21.5479L127.009 25.6494ZM133.498 37.5H129.338V21.6504H133.498V37.5ZM129.147 17.5488C129.147 16.9043 129.353 16.377 129.763 15.9668C130.173 15.5566 130.72 15.3516 131.403 15.3516C132.087 15.3516 132.634 15.5566 133.044 15.9668C133.454 16.377 133.659 16.9043 133.659 17.5488C133.659 18.1836 133.454 18.7109 133.044 19.1309C132.644 19.5508 132.097 19.7607 131.403 19.7607C130.71 19.7607 130.158 19.5508 129.748 19.1309C129.348 18.7109 129.147 18.1836 129.147 17.5488ZM142.434 34.3506C143.635 34.3506 144.245 33.5693 144.265 32.0068H148.161C148.142 33.7354 147.609 35.1318 146.564 36.1963C145.52 37.2607 144.172 37.793 142.521 37.793C140.48 37.793 138.923 37.1582 137.849 35.8887C136.774 34.6191 136.228 32.749 136.208 30.2783V29.0186C136.208 26.5283 136.735 24.6289 137.79 23.3203C138.854 22.0117 140.422 21.3574 142.492 21.3574C144.24 21.3574 145.617 21.8994 146.623 22.9834C147.629 24.0576 148.142 25.5859 148.161 27.5684H144.265C144.255 26.6797 144.108 25.9961 143.825 25.5176C143.542 25.0391 143.073 24.7998 142.419 24.7998C141.696 24.7998 141.179 25.0586 140.866 25.5762C140.554 26.084 140.388 27.0752 140.368 28.5498V30.1611C140.368 31.4502 140.432 32.3535 140.559 32.8711C140.686 33.3789 140.896 33.7549 141.188 33.999C141.481 34.2334 141.896 34.3506 142.434 34.3506Z" fill="#292929"/>
</svg>
