<svg width="12" height="13" viewBox="0 0 12 13" fill="none" xmlns="http://www.w3.org/2000/svg">
<path d="M11.614 9.14C11.5812 9.114 9.2 7.3976 8.5464 7.5208C8.2344 7.576 8.056 7.7888 7.698 8.2148C7.6404 8.2836 7.502 8.4484 7.3944 8.5656C7.16816 8.49181 6.94746 8.40198 6.734 8.2968C5.63221 7.7604 4.742 6.87019 4.2056 5.7684C4.10035 5.55497 4.01052 5.33427 3.9368 5.108C4.0544 5 4.2192 4.8616 4.2896 4.8024C4.7136 4.4464 4.9268 4.268 4.982 3.9552C5.0952 3.3072 3.38 0.9096 3.362 0.888C3.28418 0.776828 3.18262 0.684345 3.06467 0.617241C2.94672 0.550137 2.81533 0.510091 2.68 0.5C1.9848 0.5 0 3.0748 0 3.5084C0 3.5336 0.0364 6.0952 3.1952 9.3084C6.4052 12.4636 8.9664 12.5 8.9916 12.5C9.4256 12.5 12 10.5152 12 9.82C11.99 9.68515 11.9502 9.55419 11.8835 9.4366C11.8167 9.319 11.7247 9.2177 11.614 9.14Z" fill="#C71E27"/>
</svg>
