<svg width="30" height="30" viewBox="0 0 30 30" fill="none" xmlns="http://www.w3.org/2000/svg">
<path d="M29.2896 25.8056L22.3924 18.8134C23.5643 16.9222 24.2444 14.6869 24.2444 12.288C24.2444 5.50112 18.8169 0 12.1219 0C5.42704 0 0 5.50112 0 12.288C0 19.0751 5.42679 24.5757 12.1219 24.5757C14.6973 24.5757 17.0828 23.7595 19.0457 22.3726L25.8608 29.2816C26.3344 29.7611 26.9551 30 27.5752 30C28.196 30 28.816 29.7611 29.2903 29.2816C30.2367 28.3213 30.2367 26.7657 29.2896 25.8056ZM12.1219 20.5946C7.5968 20.5946 3.92809 16.8759 3.92809 12.2885C3.92809 7.7011 7.5968 3.98215 12.1219 3.98215C16.6473 3.98215 20.3158 7.7011 20.3158 12.2885C20.3158 16.8759 16.6473 20.5946 12.1219 20.5946Z" fill="#292929"/>
</svg>
