<svg width="17" height="15" viewBox="0 0 17 15" fill="none" xmlns="http://www.w3.org/2000/svg">
<path d="M16.0426 6.24108L12.5827 9.60355L13.3997 14.3526C13.4353 14.5603 13.3497 14.7702 13.1787 14.8942C13.082 14.9646 12.967 15 12.852 15C12.7637 15 12.6749 14.979 12.5938 14.9363L8.31563 12.6941L4.03806 14.9358C3.85143 15.0343 3.62424 15.0183 3.45316 14.8937C3.28208 14.7696 3.19654 14.5598 3.23209 14.3521L4.04917 9.60299L0.588673 6.24108C0.437589 6.09378 0.382598 5.87338 0.448142 5.67347C0.513686 5.47356 0.687544 5.32681 0.896951 5.29636L5.67888 4.60415L7.81739 0.283667C8.00458 -0.0945555 8.62669 -0.0945555 8.81388 0.283667L10.9524 4.60415L15.7343 5.29636C15.9437 5.32681 16.1176 5.47301 16.1831 5.67347C16.2487 5.87393 16.1937 6.09322 16.0426 6.24108Z" fill="#DADADA"/>
</svg>
