<svg width="23" height="23" viewBox="0 0 23 23" fill="none" xmlns="http://www.w3.org/2000/svg">
<g clip-path="url(#clip0_61_3956)">
<path fill-rule="evenodd" clip-rule="evenodd" d="M20.2603 4.46128C20.2649 4.48173 20.2674 4.50306 20.2674 4.52499C20.2674 4.54685 20.2649 4.56813 20.2603 4.58855V15.1145V16.7264C20.2603 17.4909 20.8745 18.1124 21.6301 18.1124C22.3858 18.1124 23 17.4909 23 16.7264L23.0001 2.91984C23.0001 2.15535 22.3857 1.53337 21.6302 1.53336C20.8745 1.53336 20.2603 2.15537 20.2603 2.91986L20.2603 4.46128Z" fill="#292929"/>
<path fill-rule="evenodd" clip-rule="evenodd" d="M5.86431 14.8354C5.86222 14.8024 5.86108 14.7691 5.86108 14.7355L5.86112 4.91089C5.86112 4.87524 5.86238 4.83994 5.86471 4.80492L3.29236 4.80999L3.29239 14.8354H3.9603L5.86431 14.8354Z" fill="#C71E27"/>
<path fill-rule="evenodd" clip-rule="evenodd" d="M7.22567 4.00485C6.87729 4.00485 6.57936 4.25047 6.46404 4.5947C6.46139 4.60504 6.45817 4.61518 6.45444 4.62502C6.42755 4.71494 6.41296 4.81104 6.41296 4.9109L6.41301 14.7355C6.41301 14.8341 6.42724 14.929 6.45348 15.018C6.45665 15.0267 6.45943 15.0356 6.46175 15.0447C6.57534 15.3926 6.8749 15.6416 7.22559 15.6416C7.6736 15.6416 8.03822 15.2353 8.03822 14.7355V4.91089C8.03822 4.41107 7.67359 4.00486 7.22567 4.00485Z" fill="#C71E27"/>
<path fill-rule="evenodd" clip-rule="evenodd" d="M10.2155 4.91451L10.2155 4.9089C10.2145 4.41001 9.85023 4.00487 9.40284 4.00487C8.95493 4.00485 8.59021 4.41111 8.59021 4.91091V14.7355C8.59021 15.2353 8.95485 15.6416 9.40284 15.6416C9.85091 15.6416 10.2155 15.2353 10.2155 14.7355L10.2155 4.91451Z" fill="#C71E27"/>
<path fill-rule="evenodd" clip-rule="evenodd" d="M12.3924 4.91327C12.3917 4.41408 12.0278 4.00484 11.5802 4.00484C11.1318 4.00482 10.7676 4.41107 10.7676 4.91088L10.7676 14.7355C10.7686 15.2343 11.1323 15.6416 11.5802 15.6416C12.0282 15.6415 12.3924 15.2353 12.3924 14.7355L12.3924 4.91327Z" fill="#C71E27"/>
<path fill-rule="evenodd" clip-rule="evenodd" d="M17.295 4.80424C17.2974 4.83947 17.2987 4.87503 17.2987 4.91089L17.2987 14.7355C17.2987 14.7691 17.2976 14.8024 17.2955 14.8354H19.7083V4.80426L17.295 4.80424Z" fill="#C71E27"/>
<path fill-rule="evenodd" clip-rule="evenodd" d="M14.5696 4.91688L14.5695 4.91088C14.5679 4.41259 14.2038 4.00484 13.7569 4.00484C13.3089 4.00482 12.9442 4.41107 12.9442 4.91088L12.9443 14.7355C12.9453 15.2343 13.3094 15.6416 13.7569 15.6416C14.2049 15.6415 14.5695 15.2353 14.5695 14.7355L14.5696 4.91688Z" fill="#C71E27"/>
<path fill-rule="evenodd" clip-rule="evenodd" d="M15.1215 14.7388C15.1232 15.2371 15.4871 15.6416 15.9341 15.6416C16.2755 15.6415 16.5685 15.4056 16.6886 15.0721C16.6929 15.0435 16.7015 15.0163 16.7137 14.9913C16.7352 14.9101 16.7467 14.8243 16.7467 14.7355L16.7467 4.91086C16.7467 4.81181 16.7324 4.71645 16.7059 4.62719C16.7016 4.6161 16.698 4.60468 16.6951 4.59294C16.5793 4.24962 16.2818 4.00482 15.9341 4.00482C15.4861 4.00481 15.1215 4.41106 15.1215 4.91086L15.1215 14.7388Z" fill="#C71E27"/>
<path fill-rule="evenodd" clip-rule="evenodd" d="M4.23621 15.3938L4.23627 21.0323C4.23627 21.2374 4.58358 21.4667 5.04836 21.4667C5.51369 21.4667 5.86099 21.2374 5.86099 21.0323L5.86103 15.3938L4.23621 15.3938Z" fill="#C71E27"/>
<path fill-rule="evenodd" clip-rule="evenodd" d="M1.37004 1.58723C0.61496 1.58723 0.00012207 2.20921 0.00012207 2.97372V16.7803C0.00012207 17.5443 0.614886 18.1663 1.37001 18.1663C2.12566 18.1663 2.74034 17.5443 2.74034 16.7803V15.1149L2.74037 4.53391V4.52922V2.97369C2.74037 2.20918 2.12563 1.58723 1.37004 1.58723Z" fill="#292929"/>
</g>
<defs>
<clipPath id="clip0_61_3956">
<rect width="23" height="23" fill="white"/>
</clipPath>
</defs>
</svg>
