<svg width="16" height="16" viewBox="0 0 16 16" fill="none" xmlns="http://www.w3.org/2000/svg">
<g clip-path="url(#clip0_1241_28)">
<mask id="mask0_1241_28" style="mask-type:luminance" maskUnits="userSpaceOnUse" x="0" y="0" width="16" height="16">
<path d="M16 0H0V16H16V0Z" fill="white"/>
</mask>
<g mask="url(#mask0_1241_28)">
<path d="M15.8453 3.35467L12.6453 0.154675C12.5955 0.105245 12.5364 0.0661387 12.4714 0.0395976C12.4064 0.0130565 12.3369 -0.000396895 12.2667 8.91425e-06H11.2V4.26667C11.2 4.54957 11.0876 4.82088 10.8876 5.02092C10.6875 5.22096 10.4162 5.33334 10.1333 5.33334H5.86666C5.58377 5.33334 5.31246 5.22096 5.11242 5.02092C4.91238 4.82088 4.8 4.54957 4.8 4.26667V8.91425e-06H1.6C1.17565 8.91425e-06 0.768687 0.16858 0.468629 0.468638C0.168571 0.768696 0 1.17566 0 1.60001V14.4C0 14.8243 0.168571 15.2313 0.468629 15.5314C0.768687 15.8314 1.17565 16 1.6 16H2.66667V11.2C2.66667 10.7757 2.83524 10.3687 3.13529 10.0686C3.43535 9.76857 3.84232 9.6 4.26666 9.6H11.7333C12.1577 9.6 12.5646 9.76857 12.8647 10.0686C13.1648 10.3687 13.3333 10.7757 13.3333 11.2V16H14.4C14.8243 16 15.2313 15.8314 15.5314 15.5314C15.8314 15.2313 16 14.8243 16 14.4V3.73334C16.0004 3.66315 15.9869 3.59357 15.9604 3.52859C15.9339 3.46361 15.8948 3.40451 15.8453 3.35467Z" fill="black"/>
<path d="M5.86621 0H10.1329V4.26666H5.86621V0Z" fill="black"/>
<path d="M11.7334 10.6665H4.26673C4.12528 10.6665 3.98963 10.7227 3.88961 10.8227C3.78959 10.9227 3.7334 11.0584 3.7334 11.1998V15.9998H12.2667V11.1998C12.2667 11.0584 12.2105 10.9227 12.1105 10.8227C12.0105 10.7227 11.8748 10.6665 11.7334 10.6665Z" fill="black"/>
</g>
</g>
<defs>
<clipPath id="clip0_1241_28">
<rect width="16" height="16" fill="white"/>
</clipPath>
</defs>
</svg>
