<svg width="16" height="17" viewBox="0 0 16 17" fill="none" xmlns="http://www.w3.org/2000/svg">
<g clip-path="url(#clip0_1228_40)">
<mask id="mask0_1228_40" style="mask-type:luminance" maskUnits="userSpaceOnUse" x="0" y="0" width="16" height="17">
<path d="M16 0.5H0V16.5H16V0.5Z" fill="white"/>
</mask>
<g mask="url(#mask0_1228_40)">
<path d="M15.6217 6.75909L14.4506 6.52581C14.3217 6.10041 14.151 5.68966 13.9406 5.29903L14.603 4.30938C14.7274 4.12344 14.7028 3.87587 14.5442 3.71791L12.7695 1.95012C12.6109 1.79212 12.3624 1.76762 12.1757 1.89153L11.1821 2.55131C10.79 2.34181 10.3776 2.17175 9.95053 2.04338L9.71633 0.876812C9.67238 0.657719 9.47922 0.5 9.2549 0.5H6.7451C6.52078 0.5 6.32762 0.657719 6.28364 0.876812L6.04944 2.04338C5.62234 2.17175 5.20998 2.34184 4.81785 2.55131L3.82425 1.89153C3.63765 1.76762 3.38908 1.79212 3.23046 1.95012L1.45578 3.71791C1.29713 3.87591 1.27253 4.12347 1.39699 4.30938L2.05936 5.29903C1.849 5.68966 1.67827 6.10041 1.5494 6.52581L0.37829 6.75909C0.158337 6.80291 0 6.99531 0 7.21875V9.71875C0 9.94219 0.158337 10.1346 0.378322 10.1784L1.54943 10.4117C1.67827 10.8371 1.84904 11.2478 2.05939 11.6384L1.39702 12.6281C1.27256 12.814 1.29719 13.0616 1.45581 13.2196L3.23049 14.9873C3.38915 15.1454 3.63765 15.1699 3.82428 15.0459L4.79752 14.3997V11.457C4.06052 10.6756 3.60784 9.62578 3.60784 8.46875C3.60784 6.0525 5.57428 4.09375 8 4.09375C10.4257 4.09375 12.3922 6.0525 12.3922 8.46875C12.3922 9.62578 11.9395 10.6756 11.2025 11.457V14.3997L12.1757 15.0459C12.2553 15.0988 12.3462 15.1247 12.4366 15.1247C12.558 15.1247 12.6786 15.078 12.7695 14.9874L14.5442 13.2196C14.7028 13.0616 14.7274 12.8141 14.603 12.6282L13.9406 11.6385C14.1509 11.2478 14.3217 10.8371 14.4505 10.4117L15.6216 10.1784C15.8417 10.1346 16 9.94219 16 9.71875V7.21875C16 6.99531 15.8417 6.80291 15.6217 6.75909Z" fill="black"/>
<path d="M9.49072 5.90037C9.25388 5.76372 8.9534 5.90872 8.91428 6.17853L8.62737 8.15628H7.37247L7.0856 6.17853C7.04645 5.90872 6.74599 5.76372 6.50916 5.90037C5.59029 6.43053 5.01953 7.41472 5.01953 8.46878C5.01953 9.61103 5.66173 10.6328 6.69548 11.1354L6.74502 11.1595V16.0312C6.74502 16.2901 6.95572 16.5 7.21561 16.5H8.78424C9.04413 16.5 9.25483 16.2901 9.25483 16.0312V11.1595L9.30436 11.1354C10.3381 10.6328 10.9803 9.61103 10.9803 8.46878C10.9803 7.41472 10.4096 6.43053 9.49072 5.90037Z" fill="black"/>
</g>
</g>
<defs>
<clipPath id="clip0_1228_40">
<rect width="16" height="17" fill="white"/>
</clipPath>
</defs>
</svg>
