<svg width="12" height="12" viewBox="0 0 12 12" fill="none" xmlns="http://www.w3.org/2000/svg">
<path d="M11.614 8.64C11.5812 8.614 9.2 6.8976 8.5464 7.0208C8.2344 7.076 8.056 7.2888 7.698 7.7148C7.6404 7.7836 7.502 7.9484 7.3944 8.0656C7.16816 7.99181 6.94746 7.90198 6.734 7.7968C5.63221 7.2604 4.742 6.37019 4.2056 5.2684C4.10035 5.05497 4.01052 4.83427 3.9368 4.608C4.0544 4.5 4.2192 4.3616 4.2896 4.3024C4.7136 3.9464 4.9268 3.768 4.982 3.4552C5.0952 2.8072 3.38 0.4096 3.362 0.388C3.28418 0.276828 3.18262 0.184345 3.06467 0.117241C2.94672 0.0501375 2.81533 0.0100913 2.68 0C1.9848 0 0 2.5748 0 3.0084C0 3.0336 0.0364 5.5952 3.1952 8.8084C6.4052 11.9636 8.9664 12 8.9916 12C9.4256 12 12 10.0152 12 9.32C11.99 9.18515 11.9502 9.05419 11.8835 8.9366C11.8167 8.819 11.7247 8.7177 11.614 8.64Z" fill="#C71E27"/>
</svg>
