<svg width="22" height="24" viewBox="0 0 22 24" fill="none" xmlns="http://www.w3.org/2000/svg">
<path d="M11.0012 12.4433C14.3049 12.4433 17.0054 9.7574 17.0054 6.47166C17.0054 3.18593 14.3049 0.5 11.0012 0.5C7.69759 0.5 4.99707 3.18593 4.99707 6.47166C4.99707 9.7574 7.69764 12.4433 11.0012 12.4433Z" fill="#C71E27"/>
<path d="M21.3057 17.2154C21.1483 16.8243 20.9386 16.4592 20.7026 16.1202C19.4965 14.3469 17.635 13.1735 15.5375 12.8866C15.2753 12.8606 14.9869 12.9127 14.7771 13.0691C13.6759 13.8775 12.365 14.2948 11.0015 14.2948C9.63809 14.2948 8.32715 13.8775 7.22594 13.0691C7.01616 12.9127 6.72775 12.8344 6.46558 12.8866C4.36804 13.1735 2.48027 14.3469 1.30042 16.1202C1.06445 16.4592 0.854672 16.8504 0.697391 17.2154C0.618751 17.3719 0.644948 17.5544 0.723588 17.7109C0.933362 18.076 1.19553 18.4411 1.4315 18.754C1.79856 19.2495 2.19186 19.6928 2.6376 20.11C3.00466 20.4751 3.42416 20.8141 3.8437 21.1531C5.915 22.6917 8.40584 23.5 10.9753 23.5C13.5448 23.5 16.0357 22.6916 18.107 21.1531C18.5264 20.8402 18.9459 20.4751 19.3131 20.11C19.7325 19.6928 20.1521 19.2494 20.5192 18.754C20.7813 18.415 21.0173 18.076 21.2271 17.7109C21.3581 17.5544 21.3843 17.3719 21.3057 17.2154Z" fill="#C71E27"/>
</svg>
