<svg width="23" height="23" viewBox="0 0 23 23" fill="none" xmlns="http://www.w3.org/2000/svg">
<g clip-path="url(#clip0_63_1031)">
<path d="M4.05435 12.8155C4.05435 12.3014 3.85216 11.8368 3.52939 11.4821C3.85216 11.1274 4.05435 10.6628 4.05435 10.1486C4.05435 9.04568 3.14895 8.14844 2.03597 8.14844H0.0175781C0.0175781 8.66026 0.0175781 15.1495 0.0175781 14.8157H2.03597C3.14895 14.8157 4.05435 13.9185 4.05435 12.8155ZM1.36317 9.4819H2.03597C2.40717 9.4819 2.70876 9.78077 2.70876 10.1486C2.70876 10.5165 2.40717 10.8154 2.03597 10.8154H1.36317V9.4819ZM1.36317 12.1488H2.03597C2.40717 12.1488 2.70876 12.4477 2.70876 12.8155C2.70876 13.1834 2.40717 13.4823 2.03597 13.4823H1.36317V12.1488Z" fill="#C71E27"/>
<path d="M8.78165 10.1486C8.78165 9.04568 7.87624 8.14844 6.76326 8.14844H4.74487C4.74487 8.66026 4.74487 15.1495 4.74487 14.8157H6.09046V12.1488H6.34738L7.80793 15.0436L9.01161 14.4472L7.7246 11.8963C8.35097 11.5565 8.78165 10.9049 8.78165 10.1486ZM6.09046 10.8154V9.4819H6.76326C7.13446 9.4819 7.43606 9.78077 7.43606 10.1486C7.43606 10.5165 7.13446 10.8154 6.76326 10.8154H6.09046Z" fill="#C71E27"/>
<path d="M13.4912 14.8157C13.4912 14.3098 13.4912 9.92287 13.4912 10.1486C13.4912 9.04568 12.5858 8.14844 11.4729 8.14844C10.3599 8.14844 9.45447 9.04568 9.45447 10.1486C9.45447 11.2238 9.45447 14.9527 9.45447 14.8157H10.8001V12.1488H12.1457V14.8157H13.4912ZM10.8001 10.8154V10.1486C10.8001 9.78077 11.1017 9.4819 11.4729 9.4819C11.8441 9.4819 12.1457 9.78077 12.1457 10.1486V10.8154H10.8001Z" fill="#C71E27"/>
<path d="M20.964 8.14844H18.8735V14.8157H20.964C22.0769 14.8157 22.9823 13.9185 22.9823 12.8155V10.1486C22.9823 9.04563 22.0769 8.14844 20.964 8.14844ZM21.6368 12.8155C21.6368 13.1834 21.3352 13.4823 20.964 13.4823H20.2191V9.4819H20.964C21.3352 9.4819 21.6368 9.78077 21.6368 10.1486V12.8155Z" fill="#C71E27"/>
<path d="M16.3295 14.8157H18.2007V8.14844H16.8551V11.4L16.0352 8.14844H14.1639V14.8157H15.5095V11.5641L16.3295 14.8157Z" fill="#C71E27"/>
<path d="M20.0182 5.4815C20.0128 5.44172 20.0019 5.40313 20.0037 5.36171L20.003 5.08044C20.024 4.53545 19.8098 3.99896 19.4169 3.61087C19.024 3.22022 18.48 3.00797 17.9583 3.02815H17.6331C17.369 3.02166 17.1002 2.86992 16.9892 2.57758L16.8828 2.336C16.6923 1.81119 16.2803 1.39386 15.7803 1.20438C15.2836 0.988225 14.7048 0.994092 14.1936 1.21478L13.9085 1.33652C13.6423 1.45178 13.3441 1.39315 13.1325 1.16984L12.942 0.982313C12.2113 0.174948 10.7094 0.200995 10.0287 0.956266L9.79744 1.18544C9.60229 1.39249 9.30402 1.45111 9.03463 1.33519L8.75672 1.21736C8.24028 0.991425 7.66015 0.987514 7.19431 1.19198C6.6654 1.39382 6.25343 1.81119 6.078 2.29755L5.94461 2.60749C5.8454 2.86987 5.57996 3.04309 5.2968 3.02811L5.01297 3.02877C4.44926 3.01184 3.92232 3.22084 3.53004 3.60954C3.13582 3.99891 2.92165 4.53541 2.94201 5.05501L2.94269 5.39295C2.94399 5.42056 2.91896 5.45221 2.91533 5.4815H0.0176392V6.81496C0.48595 6.81496 23.7292 6.81496 22.9824 6.81496V5.4815H20.0182Z" fill="#C71E27"/>
<path d="M0.0176163 16.1492V17.4826H2.92746C2.93289 17.5224 2.94378 17.561 2.94199 17.6024L2.94266 17.8837C2.92163 18.4287 3.13585 18.9652 3.52871 19.3533C3.92163 19.7439 4.45381 19.9445 4.98734 19.936H5.31256C5.54253 19.9295 5.84475 20.0935 5.95643 20.3866L6.06287 20.6281C6.2534 21.1529 6.66538 21.5703 7.16535 21.7597C7.66143 21.9759 8.24089 21.9707 8.75208 21.7493L9.03721 21.6276C9.30529 21.5123 9.60159 21.571 9.81317 21.7943L10.0037 21.9818C10.369 22.3855 10.9045 22.6166 11.4728 22.6166C12.0412 22.6166 12.5766 22.3855 12.917 22.0079L13.1482 21.7787C13.344 21.5716 13.6429 21.5124 13.911 21.6289L14.1889 21.7468C14.7034 21.9714 15.2835 21.9753 15.7514 21.7721C16.2803 21.5703 16.6922 21.1529 16.8677 20.6666L17.001 20.3566C17.1003 20.0943 17.346 19.925 17.6489 19.936L17.9327 19.9354C18.5056 19.9679 19.024 19.7439 19.4156 19.3546C19.8098 18.9652 20.024 18.4287 20.0036 17.9091L20.003 17.5712C20.0017 17.5436 20.0267 17.5119 20.0303 17.4826H22.9823V16.1492C22.5141 16.1492 -0.729187 16.1492 0.0176163 16.1492Z" fill="#C71E27"/>
</g>
<defs>
<clipPath id="clip0_63_1031">
<rect width="23" height="23" fill="white"/>
</clipPath>
</defs>
</svg>
