<svg width="16" height="16" viewBox="0 0 16 16" fill="none" xmlns="http://www.w3.org/2000/svg">
<g clip-path="url(#clip0_1214_6)">
<path d="M16 9.98085V2.05712C16 1.51014 15.5523 1.06665 15 1.06665H12V10.9713H15C15.5523 10.9713 16 10.5279 16 9.98085Z" fill="black"/>
<path d="M1.84667 9.98108H4.80077C5.05907 9.98108 5.18847 10.1518 5.23193 10.2253C5.27538 10.2983 5.36327 10.4932 5.23827 10.7167L4.19677 12.5743C3.96826 12.981 3.94482 13.4593 4.13183 13.8863C4.31884 14.3139 4.68798 14.6239 5.14453 14.7366L5.87891 14.9184C6.05762 14.9629 6.24707 14.9063 6.37158 14.7694L10.3589 10.382C10.7725 9.92595 11 9.33786 11 8.72559V3.54305C11 2.17778 9.87842 1.06689 8.5 1.06689L3.52587 1.06737C2.40282 1.06737 1.41112 1.81651 1.11474 2.88871L0.0473633 7.74045C0.0161133 7.87538 0 8.01371 0 8.15203C0 9.16039 0.828605 9.98108 1.84667 9.98108Z" fill="black"/>
</g>
<defs>
<clipPath id="clip0_1214_6">
<rect width="16" height="16" fill="white"/>
</clipPath>
</defs>
</svg>
