<svg width="51" height="47" viewBox="0 0 51 47" fill="none" xmlns="http://www.w3.org/2000/svg">
<path fill-rule="evenodd" clip-rule="evenodd" d="M41.311 45.237V13.5122C41.311 11.8907 39.9994 10.5747 38.3833 10.5747C33.8113 10.5747 17.1911 10.5747 12.6191 10.5747C11.003 10.5747 9.69141 11.8907 9.69141 13.5122V45.237C9.69141 45.848 10.0076 46.4144 10.5252 46.7363C11.0429 47.0583 11.6893 47.0865 12.2327 46.8139L16.1324 44.8587L20.0322 46.8139C20.5264 47.0606 21.1073 47.0606 21.6015 46.8139L25.5012 44.8587L29.401 46.8139C29.8952 47.0606 30.476 47.0606 30.9702 46.8139L34.87 44.8587L38.7698 46.8139C39.3131 47.0865 39.9596 47.0583 40.4772 46.7363C40.9948 46.4144 41.311 45.848 41.311 45.237Z" fill="#DADADA"/>
<path fill-rule="evenodd" clip-rule="evenodd" d="M32.6191 24.1823C33.4057 23.3957 33.4057 22.1203 32.6191 21.3337C31.8325 20.5471 30.5571 20.5471 29.7704 21.3337L25.4979 25.6062L21.2255 21.3338C20.4389 20.5472 19.1635 20.5472 18.3769 21.3338C17.5903 22.1204 17.5903 23.3958 18.3769 24.1824L22.6493 28.4548L18.3759 32.7282C17.5893 33.5148 17.5893 34.7902 18.3759 35.5768C19.1625 36.3635 20.4379 36.3635 21.2245 35.5768L25.4979 31.3035L29.7714 35.577C30.5581 36.3636 31.8334 36.3636 32.6201 35.577C33.4067 34.7903 33.4067 33.515 32.6201 32.7283L28.3466 28.4548L32.6191 24.1823Z" fill="white"/>
<path fill-rule="evenodd" clip-rule="evenodd" d="M7.34885 23.4999V13.5124C7.34885 10.5914 9.70744 8.22496 12.6188 8.22496H38.3829C41.2943 8.22496 43.6529 10.5914 43.6529 13.5124V23.4999H45.4095C46.8078 23.4999 48.1475 22.9429 49.1359 21.9512C50.1243 20.9595 50.6794 19.6153 50.6794 18.2124C50.6794 14.5723 50.6794 8.9276 50.6794 5.28747C50.6794 2.36644 48.3209 0 45.4095 0H5.5922C2.68086 0 0.322266 2.36644 0.322266 5.28747V18.2124C0.322266 19.6153 0.877366 20.9595 1.86577 21.9512C2.85418 22.9429 4.19391 23.4999 5.5922 23.4999H7.34885Z" fill="#DADADA"/>
</svg>
