<svg width="16" height="17" viewBox="0 0 16 17" fill="none" xmlns="http://www.w3.org/2000/svg">
<g clip-path="url(#clip0_1228_32)">
<mask id="mask0_1228_32" style="mask-type:luminance" maskUnits="userSpaceOnUse" x="0" y="0" width="16" height="17">
<path d="M16 0.5H0V16.5H16V0.5Z" fill="white"/>
</mask>
<g mask="url(#mask0_1228_32)">
<path d="M12.5877 0.949531C12.4281 0.67225 12.1309 0.5 11.8124 0.5H8.48291V4.45741H14.6067L12.5877 0.949531Z" fill="black"/>
<path d="M7.5493 0.5H4.18842C3.86922 0.5 3.57213 0.672563 3.41253 0.950469L1.40088 4.45741H7.54927L7.5493 0.5Z" fill="black"/>
<path d="M1.06689 5.39526V15.3974C1.06689 16.0054 1.55938 16.5 2.16448 16.5H13.836C14.4411 16.5 14.9336 16.0054 14.9336 15.3974V5.39526H1.06689ZM10.1185 9.60151L7.70497 12.0268C7.61382 12.1184 7.49434 12.1643 7.37489 12.1643C7.25543 12.1643 7.13595 12.1184 7.04511 12.0268L5.91363 10.8901C5.73164 10.7072 5.73164 10.4102 5.91363 10.227C6.09594 10.0438 6.3915 10.0438 6.5738 10.227L7.37492 11.0323L9.45872 8.93845C9.64102 8.75526 9.93658 8.75526 10.1186 8.93845C10.3009 9.12164 10.3009 9.41833 10.1185 9.60151Z" fill="black"/>
</g>
</g>
<defs>
<clipPath id="clip0_1228_32">
<rect width="16" height="17" fill="white"/>
</clipPath>
</defs>
</svg>
