<svg width="16" height="10" viewBox="0 0 16 10" fill="none" xmlns="http://www.w3.org/2000/svg">
<path d="M8.62432 9.5393L15.7444 2.26749C15.9092 2.09931 16 1.87479 16 1.63539C16 1.396 15.9092 1.17148 15.7444 1.00329L15.2202 0.467777C14.8786 0.119311 14.3234 0.119311 13.9823 0.467777L8.00332 6.57409L2.01768 0.461001C1.85286 0.292813 1.63316 0.199951 1.39888 0.199951C1.16435 0.199951 0.944643 0.292813 0.779701 0.461001L0.255608 0.996518C0.0907964 1.16484 9.0169e-07 1.38922 8.91225e-07 1.62862C8.80761e-07 1.86801 0.0907964 2.09253 0.255608 2.26072L7.38218 9.5393C7.54752 9.70788 7.76826 9.80048 8.00293 9.79995C8.2385 9.80048 8.45912 9.70788 8.62432 9.5393Z" fill="#AAAAAA"/>
</svg>
