<svg width="23" height="24" viewBox="0 0 23 24" fill="none" xmlns="http://www.w3.org/2000/svg">
<path d="M9.23606 9.70834C9.72944 9.20832 9.72944 8.39763 9.23606 7.89762C8.74268 7.3976 7.94275 7.3976 7.44937 7.89762C6.95599 8.39763 6.95599 9.20832 7.44937 9.70834C7.94275 10.2084 8.74268 10.2084 9.23606 9.70834Z" fill="#EF7446"/>
<path d="M14.6538 16.4778C15.3517 16.4778 15.9174 15.9044 15.9174 15.1972C15.9174 14.49 15.3517 13.9166 14.6538 13.9166C13.956 13.9166 13.3903 14.49 13.3903 15.1972C13.3903 15.9044 13.956 16.4778 14.6538 16.4778Z" fill="#EF7446"/>
<path d="M21.0808 9.72947C20.6727 9.30157 20.4854 8.71751 20.5673 8.12844L20.9168 5.61479C20.9643 5.27184 20.7381 4.95575 20.401 4.89579L17.9336 4.45728C17.3542 4.35421 16.8636 3.99254 16.5881 3.46594L15.4157 1.22462C15.2549 0.917275 14.8869 0.796721 14.5805 0.949144L12.3314 2.06482C11.8025 2.32719 11.196 2.32719 10.6672 2.06482L8.41807 0.949144C8.32809 0.904801 8.23254 0.88354 8.13883 0.88354C7.91323 0.88354 7.69626 1.00724 7.58287 1.22462L6.41117 3.4653C6.13935 3.98503 5.6364 4.35544 5.06503 4.45664L2.59832 4.89515C2.26117 4.95511 2.03432 5.2712 2.0818 5.61474L2.43129 8.1284C2.51328 8.71747 2.32591 9.30089 1.91846 9.72943L0.177777 11.5554C-0.0601306 11.8052 -0.0601306 12.195 0.177148 12.4449L1.91779 14.2707C2.32582 14.6986 2.51319 15.2827 2.43121 15.8718L2.08171 18.3854C2.03427 18.729 2.26046 19.0445 2.5976 19.1044L5.06494 19.5429C5.64435 19.646 6.13494 20.0077 6.4105 20.5343L7.58283 22.7756C7.74311 23.0829 8.1117 23.2029 8.41802 23.0511L10.6671 21.9354C11.196 21.673 11.8025 21.673 12.3313 21.9354L14.5804 23.0511C14.8868 23.2029 15.2548 23.0829 15.4156 22.7756L16.5873 20.5349C16.8592 20.0158 17.3621 19.6448 17.9335 19.5436L20.4002 19.1051C20.7373 19.0451 20.9642 18.729 20.9167 18.3855L20.5672 15.8718C20.4852 15.2828 20.672 14.6993 21.08 14.2708L22.8207 12.4449H22.8213C23.0586 12.1951 23.0586 11.8053 22.8213 11.5554L21.0808 9.72947ZM5.81878 8.80306C5.81878 7.39132 6.95167 6.24319 8.34466 6.24319C9.73765 6.24319 10.8705 7.39132 10.8705 8.80306C10.8705 10.2148 9.73765 11.3629 8.34466 11.3629C6.95167 11.3629 5.81878 10.2148 5.81878 8.80306ZM8.15855 16.2903C8.03528 16.4152 7.87379 16.4777 7.71229 16.4777C7.5508 16.4777 7.3893 16.4152 7.26604 16.2903C7.01951 16.0404 7.01951 15.6356 7.26604 15.3858L14.84 7.70992C15.0865 7.46007 15.486 7.46007 15.7325 7.70992C15.979 7.95977 15.979 8.36459 15.7325 8.61444L8.15855 16.2903ZM14.6539 17.757C13.2609 17.757 12.128 16.6089 12.128 15.1972C12.128 13.7854 13.2609 12.6373 14.6539 12.6373C16.0469 12.6373 17.1798 13.7854 17.1798 15.1972C17.1798 16.6089 16.0469 17.757 14.6539 17.757Z" fill="#EF7446"/>
</svg>
