<svg width="23" height="24" viewBox="0 0 23 24" fill="none" xmlns="http://www.w3.org/2000/svg">
<g clip-path="url(#clip0_956_29569)">
<path d="M21.461 7.46692V14.5097C21.461 16.408 19.9066 17.9523 17.996 17.9523H2.88737V20.2464C2.88737 21.4063 3.83724 22.35 5.00471 22.35H20.883C22.0505 22.35 23.0004 21.4063 23.0004 20.2464V9.49023C23.0003 8.52941 22.3483 7.71752 21.461 7.46692Z" fill="#C71E27"/>
<path d="M20.1133 14.5097V7.29138H0.000374317V14.5097C0.000374317 15.6715 0.948314 16.6133 2.11767 16.6133H17.996C19.1654 16.6134 20.1133 15.6715 20.1133 14.5097ZM17.1785 13.6499H14.2915C13.9193 13.6499 13.6177 13.3501 13.6177 12.9804C13.6177 12.6107 13.9193 12.3109 14.2915 12.3109H17.1785C17.5506 12.3109 17.8523 12.6107 17.8523 12.9804C17.8523 13.3501 17.5506 13.6499 17.1785 13.6499Z" fill="#C71E27"/>
<path d="M20.1133 3.7536C20.1133 2.5918 19.1654 1.64999 17.996 1.64999H2.11772C0.948359 1.64999 0.000374317 2.59185 0.000374317 3.75365V5.95245H20.1133V3.7536Z" fill="#C71E27"/>
</g>
<defs>
<clipPath id="clip0_956_29569">
<rect width="23" height="23" fill="white" transform="translate(0 0.5)"/>
</clipPath>
</defs>
</svg>
