<svg width="18" height="18" viewBox="0 0 18 18" fill="none" xmlns="http://www.w3.org/2000/svg">
<g clip-path="url(#clip0_80_1436)">
<path fill-rule="evenodd" clip-rule="evenodd" d="M10.7385 5.6629C10.1805 7.69276 7.95284 11.3882 5.64287 11.3882C3.28784 11.3882 1.07786 7.59293 0.547378 5.6629C0.228566 5.6629 0 5.85942 0 6.19011V15.8629C0 16.154 0.217165 16.3901 0.485016 16.3901H1.72936C1.92111 17.3173 2.74197 18 3.70898 18C4.67599 18 5.49699 17.3173 5.68861 16.3901H10.8007C11.0687 16.3901 11.2859 16.154 11.2859 15.8629V6.19011C11.2859 5.85942 11.0573 5.6629 10.7385 5.6629ZM4.39262 16.6626C3.78535 17.2697 2.74211 16.8378 2.74211 15.9789C2.74211 15.1202 3.78535 14.6883 4.39262 15.2954C4.77022 15.6728 4.77022 16.285 4.39262 16.6626Z" fill="#292929"/>
<path fill-rule="evenodd" clip-rule="evenodd" d="M16.3665 11.0406H13.9211C13.6299 11.0406 13.3938 10.8046 13.3938 10.5134C13.3938 10.2222 13.6299 9.98615 13.9211 9.98615H15.7379L15.3324 9.30596C14.7794 8.37803 13.9334 7.73931 12.9293 7.47976C12.766 7.4376 12.6078 7.47014 12.4744 7.57342C12.3412 7.67669 12.27 7.82171 12.27 7.99021V15.856C12.27 16.1463 12.5068 16.3832 12.7973 16.3832H13.1539C13.3429 17.3138 14.1653 18 15.1349 18C16.1045 18 16.9269 17.3138 17.1159 16.3832H17.4725C17.7637 16.3832 17.9998 16.1471 17.9998 15.856V12.6926C17.9998 11.771 17.2832 11.0609 16.3665 11.0406ZM15.8186 16.6625C15.2113 17.2697 14.1681 16.8378 14.1681 15.9789C14.1681 15.1202 15.2113 14.6883 15.8186 15.2954C16.1962 15.6728 16.1962 16.285 15.8186 16.6625Z" fill="#292929"/>
<path fill-rule="evenodd" clip-rule="evenodd" d="M6.09346 4.70174C6.34244 4.45277 6.34244 4.04902 6.09346 3.80004C5.69315 3.39973 5.00513 3.68441 5.00513 4.25089C5.00513 4.81738 5.69315 5.10206 6.09346 4.70174Z" fill="#292929"/>
<path fill-rule="evenodd" clip-rule="evenodd" d="M5.6428 10.3336C6.47781 10.3336 7.59702 9.32368 8.46444 8.02991C9.26621 6.83405 9.89463 5.36696 9.89463 4.25089C9.89463 1.90324 7.99096 0 5.6428 0C3.29478 0 1.39111 1.90324 1.39111 4.25089C1.39111 5.36696 2.01953 6.83405 2.8213 8.02991C3.68859 9.32368 4.80793 10.3336 5.6428 10.3336ZM5.6428 2.55885C6.5774 2.55885 7.33521 3.3165 7.33521 4.25089C7.33521 5.18513 6.5774 5.94278 5.6428 5.94278C4.70835 5.94278 3.95053 5.18513 3.95053 4.25089C3.95053 3.3165 4.70835 2.55885 5.6428 2.55885Z" fill="#C71E27"/>
</g>
<defs>
<clipPath id="clip0_80_1436">
<rect width="18" height="18" fill="white"/>
</clipPath>
</defs>
</svg>
