<svg width="16" height="12" viewBox="0 0 16 12" fill="none" xmlns="http://www.w3.org/2000/svg">
<path d="M7.99993 3.8667C6.79628 3.8667 5.81812 4.82313 5.81812 6.00003C5.81812 7.17693 6.79628 8.13336 7.99993 8.13336C9.20358 8.13336 10.1817 7.17693 10.1817 6.00003C10.1817 4.82313 9.20354 3.8667 7.99993 3.8667Z" fill="#292929"/>
<path d="M8 0.666748C4.36363 0.666748 1.25819 2.87828 0 6.00008C1.25819 9.12185 4.36363 11.3334 8 11.3334C11.64 11.3334 14.7418 9.12185 16 6.00008C14.7418 2.87828 11.64 0.666748 8 0.666748ZM8 9.55561C5.99273 9.55561 4.36363 7.96271 4.36363 6.00005C4.36363 4.03738 5.99273 2.44451 8 2.44451C10.0073 2.44451 11.6364 4.03741 11.6364 6.00008C11.6364 7.96275 10.0073 9.55561 8 9.55561Z" fill="#292929"/>
</svg>
