<svg width="16" height="16" viewBox="0 0 16 16" fill="none" xmlns="http://www.w3.org/2000/svg">
<g clip-path="url(#clip0_364_14194)">
<path d="M14.4921 1.50786C12.4816 -0.502642 9.21046 -0.50261 7.19995 1.50789C5.82667 2.88118 5.34967 4.90496 5.94429 6.74106L0.137344 12.548C0.0494376 12.6359 0 12.7549 0 12.8795V15.5313C0 15.7904 0.209657 16 0.468751 16H3.12057C3.24507 16 3.3641 15.9506 3.45198 15.8627L4.11482 15.1994C4.21598 15.0982 4.26541 14.9563 4.24895 14.814L4.16654 14.1017L5.15348 14.0087C5.37779 13.9877 5.55495 13.8105 5.57601 13.5862L5.66895 12.5993L6.38123 12.6821C6.51351 12.6999 6.64673 12.6555 6.74698 12.5668C6.84676 12.4775 6.90398 12.3502 6.90398 12.2166V11.3438H7.76092C7.88542 11.3438 8.00445 11.2944 8.09233 11.2064L9.29443 10.0203C11.1301 10.6153 13.1188 10.1743 14.4921 8.80007C16.5026 6.78959 16.5026 3.51837 14.4921 1.50786ZM13.166 4.82256C12.6176 5.37096 11.7259 5.37096 11.1775 4.82256C10.6291 4.27415 10.6291 3.38243 11.1775 2.83402C11.7259 2.28561 12.6176 2.28561 13.166 2.83402C13.7144 3.38243 13.7144 4.27415 13.166 4.82256Z" fill="#DADADA"/>
</g>
<defs>
<clipPath id="clip0_364_14194">
<rect width="16" height="16" fill="white"/>
</clipPath>
</defs>
</svg>
