<svg width="16" height="16" viewBox="0 0 16 16" fill="none" xmlns="http://www.w3.org/2000/svg">
<path d="M0 6.01915V13.9429C0 14.4898 0.447693 14.9333 1 14.9333H4V5.02869H1C0.447693 5.02869 0 5.47211 0 6.01915Z" fill="black"/>
<path d="M14.1533 6.01891H11.1992C10.9409 6.01891 10.8115 5.84819 10.7681 5.77468C10.7246 5.70165 10.6367 5.50675 10.7617 5.28332L11.8032 3.42571C12.0317 3.01898 12.0552 2.54067 11.8682 2.11363C11.6812 1.6861 11.312 1.3761 10.8555 1.26341L10.1211 1.08157C9.94238 1.03708 9.75293 1.09366 9.62842 1.23053L5.64111 5.61798C5.22754 6.07404 5 6.66213 5 7.2744V12.457C5 13.8222 6.12158 14.9331 7.5 14.9331L12.4741 14.9326C13.5972 14.9326 14.5889 14.1835 14.8853 13.1113L15.9526 8.25954C15.9839 8.12461 16 7.98629 16 7.84797C16 6.83961 15.1714 6.01891 14.1533 6.01891Z" fill="black"/>
</svg>
