<svg width="20" height="20" viewBox="0 0 20 20" fill="none" xmlns="http://www.w3.org/2000/svg">
<g clip-path="url(#clip0_642_25632)">
<path d="M16.0356 9.99773C16.0356 9.62976 16.3333 9.32309 16.7013 9.32309H17.3333C17.1955 7.80358 16.5939 6.38123 15.6682 5.27122L15.2223 5.71714C14.9623 5.97718 14.541 5.97718 14.2809 5.71714C14.0209 5.45709 14.0209 5.03579 14.2809 4.77575L14.7269 4.32974C13.6169 3.4037 12.1943 2.80185 10.6743 2.66406V3.29608C10.6743 3.66405 10.3677 3.96181 9.9997 3.96181C9.63173 3.96181 9.33397 3.66405 9.33397 3.29608V2.66411C7.8142 2.80189 6.38284 3.40365 5.27283 4.32947L5.71915 4.77579C5.9792 5.03584 5.9792 5.45714 5.71915 5.71718C5.45911 5.97723 5.03781 5.97723 4.77776 5.71718L4.33153 5.27095C3.40571 6.381 2.80391 7.80349 2.66608 9.32318H3.29809C3.66607 9.32318 3.96382 9.6298 3.96382 9.99778C3.96382 10.3658 3.66607 10.6635 3.29809 10.6635H2.66608C3.00402 14.3897 6.18654 17.3651 9.9997 17.3651C13.8129 17.3651 16.9953 14.3897 17.3333 10.6635H16.7013C16.3333 10.6635 16.0356 10.3657 16.0356 9.99773ZM6.66045 6.65853C6.9205 6.39848 7.3418 6.39848 7.60184 6.65853L9.14433 8.20048C9.40464 8.076 9.69241 8.00059 9.99966 8.00059C11.1009 8.00059 11.9968 8.89647 11.9968 9.99778C11.9968 10.3051 11.9213 10.593 11.7969 10.8533L12.3538 11.4099C12.6138 11.6699 12.6138 12.1356 12.3538 12.3956C12.0937 12.6557 11.6724 12.6557 11.4124 12.3956L10.8556 11.7948C10.5952 11.9194 10.3072 11.995 9.99966 11.995C8.89839 11.995 8.00247 11.0991 8.00247 9.99782C8.00247 9.69031 8.07815 9.40223 8.20281 9.14178L6.66045 7.60001C6.40045 7.33983 6.40045 6.91853 6.66045 6.65853ZM11.9968 15.3678H8.00251C7.63454 15.3678 7.33679 15.0701 7.33679 14.7021C7.33679 14.3341 7.63454 14.0275 8.00251 14.0275H11.9968C12.3648 14.0275 12.6626 14.3341 12.6626 14.7021C12.6626 15.0701 12.3648 15.3678 11.9968 15.3678Z" fill="#C71E27"/>
<path d="M9.9997 9.41357C9.6773 9.41357 9.41345 9.67605 9.41345 9.99982C9.41345 10.3227 9.6762 10.5861 9.9997 10.5861C10.3232 10.5861 10.5859 10.3227 10.5859 9.99982C10.5859 9.67691 10.3232 9.41357 9.9997 9.41357Z" fill="#C71E27"/>
<path fill-rule="evenodd" clip-rule="evenodd" d="M2.91372 2.91362C6.7993 -0.971923 13.1996 -0.973095 17.0863 2.91362C20.9712 6.79921 20.9712 13.2001 17.0863 17.0862C13.2009 20.9715 6.79911 20.9716 2.91372 17.0862C-0.971239 13.2 -0.971239 6.79917 2.91372 2.91362ZM4.33098 4.33148C7.43944 1.22323 12.5597 1.22229 15.669 4.33148C18.777 7.43976 18.777 12.5601 15.669 15.6689C12.5607 18.7769 7.43929 18.777 4.33098 15.6689C1.22301 12.5601 1.22301 7.43973 4.33098 4.33148Z" fill="#292929"/>
</g>
<defs>
<clipPath id="clip0_642_25632">
<rect width="20" height="20" fill="white"/>
</clipPath>
</defs>
</svg>
