<svg width="40" height="40" viewBox="0 0 40 40" fill="none" xmlns="http://www.w3.org/2000/svg">
<path d="M32.0712 19.9954C32.0712 19.2595 32.6667 18.6461 33.4026 18.6461H34.6667C34.3911 15.6071 33.1878 12.7624 31.3365 10.5424L30.4446 11.4342C29.9245 11.9543 29.0819 11.9543 28.5619 11.4342C28.0418 10.9141 28.0418 10.0715 28.5619 9.55146L29.4539 8.65944C27.2338 6.80736 24.3885 5.60366 21.3486 5.32809V6.59212C21.3486 7.32807 20.7354 7.92358 19.9994 7.92358C19.2635 7.92358 18.668 7.32807 18.668 6.59212V5.32818C15.6284 5.60375 12.7657 6.80727 10.5457 8.65891L11.4383 9.55155C11.9584 10.0716 11.9584 10.9142 11.4383 11.4343C10.9182 11.9544 10.0756 11.9544 9.55554 11.4343L8.66308 10.5419C6.81144 12.762 5.60783 15.6069 5.33217 18.6463H6.5962C7.33215 18.6463 7.92766 19.2596 7.92766 19.9955C7.92766 20.7315 7.33215 21.327 6.5962 21.327H5.33217C6.00806 28.7793 12.3731 34.7302 19.9994 34.7302C27.6257 34.7302 33.9907 28.7793 34.6667 21.327H33.4026C32.6667 21.3269 32.0712 20.7314 32.0712 19.9954ZM13.3209 13.317C13.841 12.7969 14.6836 12.7969 15.2037 13.317L18.2887 16.4009C18.8093 16.152 19.3848 16.0011 19.9993 16.0011C22.2019 16.0011 23.9937 17.7929 23.9937 19.9955C23.9937 20.6102 23.8427 21.1859 23.5938 21.7065L24.7076 22.8197C25.2277 23.3398 25.2277 24.2711 24.7076 24.7912C24.1875 25.3113 23.3449 25.3113 22.8248 24.7912L21.7111 23.5895C21.1903 23.8388 20.6144 23.99 19.9993 23.99C17.7968 23.99 16.005 22.1982 16.005 19.9956C16.005 19.3806 16.1563 18.8044 16.4056 18.2835L13.3209 15.2C12.8009 14.6796 12.8009 13.837 13.3209 13.317ZM23.9937 30.7356H16.005C15.2691 30.7356 14.6736 30.1401 14.6736 29.4042C14.6736 28.6682 15.2691 28.055 16.005 28.055H23.9937C24.7297 28.055 25.3252 28.6682 25.3252 29.4042C25.3252 30.1401 24.7297 30.7356 23.9937 30.7356Z" fill="#C71E27"/>
<path d="M19.9995 18.8269C19.3547 18.8269 18.827 19.3518 18.827 19.9994C18.827 20.6452 19.3525 21.1719 19.9995 21.1719C20.6464 21.1719 21.1719 20.6452 21.1719 19.9994C21.1719 19.3536 20.6464 18.8269 19.9995 18.8269Z" fill="#C71E27"/>
<path fill-rule="evenodd" clip-rule="evenodd" d="M5.82744 5.82736C13.5986 -1.94372 26.3991 -1.94607 34.1726 5.82736C41.9425 13.5985 41.9425 26.4002 34.1726 34.1725C26.4018 41.9431 13.5982 41.9433 5.82744 34.1725C-1.94248 26.4002 -1.94248 13.5985 5.82744 5.82736ZM8.66195 8.66308C14.8789 2.44658 25.1193 2.4447 31.3381 8.66308C37.554 14.8797 37.554 25.1204 31.3381 31.3379C25.1214 37.554 14.8786 37.5541 8.66195 31.3379C2.44602 25.1203 2.44602 14.8796 8.66195 8.66308Z" fill="#292929"/>
</svg>
