<svg width="16" height="16" viewBox="0 0 16 16" fill="none" xmlns="http://www.w3.org/2000/svg">
<g clip-path="url(#clip0_80_5031)">
<path d="M8.00103 8.3084C10.2992 8.3084 12.1779 6.43993 12.1779 4.1542C12.1779 1.86847 10.2992 0 8.00103 0C5.70284 0 3.82422 1.86847 3.82422 4.1542C3.82422 6.43993 5.70288 8.3084 8.00103 8.3084Z" fill="#DADADA"/>
<path d="M15.169 11.6281C15.0596 11.356 14.9137 11.1021 14.7495 10.8662C13.9105 9.63266 12.6155 8.81634 11.1564 8.61679C10.974 8.59866 10.7734 8.63491 10.6274 8.74377C9.86137 9.30613 8.94941 9.59637 8.00093 9.59637C7.05246 9.59637 6.1405 9.30613 5.37444 8.74377C5.22851 8.63491 5.02787 8.5805 4.8455 8.61679C3.38634 8.81634 2.07311 9.63266 1.25234 10.8662C1.08818 11.1021 0.942253 11.3742 0.832841 11.6281C0.778134 11.737 0.796358 11.864 0.851064 11.9728C0.996994 12.2268 1.17937 12.4808 1.34353 12.6985C1.59887 13.0431 1.87247 13.3515 2.18255 13.6418C2.4379 13.8957 2.72972 14.1315 3.02158 14.3674C4.46248 15.4377 6.19524 16 7.98271 16C9.77018 16 11.5029 15.4377 12.9438 14.3674C13.2357 14.1497 13.5275 13.8957 13.7829 13.6418C14.0747 13.3515 14.3665 13.0431 14.6219 12.6985C14.8043 12.4626 14.9685 12.2268 15.1144 11.9728C15.2055 11.864 15.2237 11.737 15.169 11.6281Z" fill="#DADADA"/>
</g>
<defs>
<clipPath id="clip0_80_5031">
<rect width="16" height="16" fill="white"/>
</clipPath>
</defs>
</svg>
