<svg width="23" height="24" viewBox="0 0 23 24" fill="none" xmlns="http://www.w3.org/2000/svg">
<path d="M17.8946 2.03329H5.7882C5.4167 2.03329 5.11572 2.33407 5.11572 2.70466V12.0707C6.3464 10.1627 5.83339 10.9579 7.515 8.35131C7.89773 7.75827 8.5482 7.40423 9.25572 7.40423C10.5232 7.40423 12.0499 8.55755 12.0499 10.386C12.0423 11.197 11.9098 12.0012 11.6514 12.7783H12.4483C14.2881 12.7783 15.7162 14.3859 15.494 16.2076L15.3354 17.5101H18.7598C19.0464 17.5101 19.3277 17.5902 19.5716 17.741L21.9727 19.2266C22.4211 19.5035 23 19.181 23 18.6559V7.12897C23 4.31908 20.7095 2.03329 17.8946 2.03329ZM19.55 11.4324H13.9352C13.5637 11.4324 13.2628 11.1321 13.2628 10.7611C13.2628 10.3905 13.5637 10.0897 13.9352 10.0897H19.55C19.9215 10.0897 20.2225 10.3905 20.2225 10.7611C20.2225 11.1321 19.9215 11.4324 19.55 11.4324ZM19.55 8.74697H13.9352C13.5637 8.74697 13.2628 8.44664 13.2628 8.0756C13.2628 7.705 13.5637 7.40423 13.9352 7.40423H19.55C19.9215 7.40423 20.2225 7.705 20.2225 8.0756C20.2225 8.44664 19.9215 8.74697 19.55 8.74697ZM19.55 6.0615H8.47902C8.10707 6.0615 7.80609 5.76117 7.80609 5.39013C7.80609 5.01954 8.10707 4.71876 8.47902 4.71876H19.55C19.9215 4.71876 20.2225 5.01954 20.2225 5.39013C20.2225 5.76117 19.9215 6.0615 19.55 6.0615Z" fill="#C71E27"/>
<path d="M12.4483 14.1211H10.6456C10.1484 14.1211 9.82783 13.5997 10.0441 13.1601C10.4608 12.3069 10.6931 11.3587 10.7022 10.3735V10.3565C10.7022 9.42284 9.92338 8.79001 9.31011 8.74924C9.04911 8.72954 8.79351 8.85308 8.64886 9.07731C5.80261 13.4892 5.98477 13.2432 5.75903 13.4672C5.7677 13.5729 5.76487 13.1103 5.76487 21.042C6.2817 21.2355 6.71043 21.6695 7.70235 21.6695H12.1042C12.8845 21.6695 13.5431 21.0876 13.637 20.3138L14.1563 16.0461C14.2812 15.0229 13.4811 14.1211 12.4483 14.1211Z" fill="#C71E27"/>
<path d="M3.75578 12.9595H0.66152C0.2959 12.9595 0 13.2545 0 13.617V21.3091C0 21.6689 0.292441 21.9666 0.66152 21.9666H0.668977C2.58606 21.9454 1.89431 21.9532 3.76324 21.9317C4.12513 21.9277 4.4173 21.6345 4.4173 21.2742V13.617C4.4173 13.2545 4.121 12.9595 3.75578 12.9595Z" fill="#C71E27"/>
</svg>
