<svg width="30" height="27" viewBox="0 0 30 27" fill="none" xmlns="http://www.w3.org/2000/svg">
<g clip-path="url(#clip0_1201_2)">
<path d="M21.66 0C18.945 0 16.515 1.33483 15 3.38258C13.485 1.33483 11.055 0 8.34 0C3.735 0 0 3.79213 0 8.47921C0 10.2843 0.285 11.9528 0.78 13.5C3.15 21.0843 10.455 25.6197 14.07 26.8635C14.58 27.0455 15.42 27.0455 15.93 26.8635C19.545 25.6197 26.85 21.0843 29.22 13.5C29.715 11.9528 30 10.2843 30 8.47921C30 3.79213 26.265 0 21.66 0Z" fill="black"/>
</g>
<defs>
<clipPath id="clip0_1201_2">
<rect width="30" height="27" fill="white"/>
</clipPath>
</defs>
</svg>
