<svg width="20" height="21" viewBox="0 0 20 21" fill="none" xmlns="http://www.w3.org/2000/svg">
<mask id="mask0_1241_9" style="mask-type:luminance" maskUnits="userSpaceOnUse" x="0" y="0" width="20" height="21">
<path d="M20 0.5H0V20.5H20V0.5Z" fill="white"/>
</mask>
<g mask="url(#mask0_1241_9)">
<path d="M10.5785 13.0148C10.3896 13.1323 10.1771 13.1793 9.98819 13.1793C9.79929 13.1793 9.58678 13.1323 9.39788 13.0148L0 7.30322V14.8951C0 16.5169 1.32231 17.8331 2.95159 17.8331H17.0484C18.6777 17.8331 20 16.5169 20 14.8951V7.30322L10.5785 13.0148Z" fill="black"/>
<path d="M17.0477 3.16638H2.95089C1.55774 3.16638 0.377103 4.15356 0.09375 5.4698L10.0111 11.4869L19.9049 5.4698C19.6215 4.15356 18.4409 3.16638 17.0477 3.16638Z" fill="black"/>
</g>
</svg>
