<svg width="18" height="18" viewBox="0 0 18 18" fill="none" xmlns="http://www.w3.org/2000/svg">
<g clip-path="url(#clip0_80_1466)">
<path fill-rule="evenodd" clip-rule="evenodd" d="M3.70368 0H6.59044C7.47441 0 8.19412 0.709992 8.19412 1.58203V2.53098H9.01378C9.30904 2.53098 9.54834 2.76718 9.54834 3.05832C9.54834 3.34959 9.30904 3.58566 9.01378 3.58566H8.18257C8.04656 5.12856 6.73341 6.32799 5.14713 6.32799C3.46438 6.32799 2.1 4.98203 2.1 3.32199C2.1 2.7426 2.1 2.16197 2.1 1.58203C2.1 0.709992 2.81971 0 3.70368 0Z" fill="#292929"/>
<path fill-rule="evenodd" clip-rule="evenodd" d="M6.39267 7.64757C6.78273 7.82129 7.12922 8.07302 7.41098 8.38215L10.2848 11.285H14.2962C15.1794 11.285 15.8999 11.996 15.8999 12.8672C15.8999 13.7383 15.1792 14.4492 14.2962 14.4492H9.80578C9.31312 14.4492 8.82478 14.3271 8.45796 13.9627L7.98006 13.488V17.4724C7.98006 17.7278 7.79617 17.9514 7.55186 18L2.63376 17.9997C2.33892 17.9994 2.0999 17.7634 2.0999 17.4724V10.3885C2.0999 8.22298 4.38013 6.7515 6.39267 7.64757Z" fill="#292929"/>
<path fill-rule="evenodd" clip-rule="evenodd" d="M14.4308 10.2303H10.5818C10.2865 10.2303 10.0472 9.99428 10.0472 9.703V5.94128C10.0472 5.65001 10.2865 5.41394 10.5818 5.41394H11.9717V6.31976C11.9717 6.61104 12.2111 6.84711 12.5062 6.84711C12.8015 6.84711 13.0408 6.61104 13.0408 6.31976V5.41394H14.4308C14.7259 5.41394 14.9653 5.65001 14.9653 5.94128V9.703C14.9653 9.99428 14.7259 10.2303 14.4308 10.2303Z" fill="#C71E27"/>
</g>
<defs>
<clipPath id="clip0_80_1466">
<rect width="18" height="18" fill="white"/>
</clipPath>
</defs>
</svg>
