<svg width="23" height="24" viewBox="0 0 23 24" fill="none" xmlns="http://www.w3.org/2000/svg">
<g clip-path="url(#clip0_956_15256)">
<path d="M18.0939 1.1462C17.8645 0.747609 17.4374 0.5 16.9795 0.5H12.1934V6.18877H20.9964L18.0939 1.1462Z" fill="#C71E27"/>
<path d="M10.852 0.5H6.02076C5.56191 0.5 5.13484 0.748059 4.90541 1.14755L2.01367 6.18877H10.852V0.5H10.852Z" fill="#C71E27"/>
<path d="M1.5332 7.53693V21.915C1.5332 22.7891 2.24115 23.5 3.11098 23.5H19.8888C20.7586 23.5 21.4665 22.7891 21.4665 21.915V7.53693H1.5332ZM14.5449 13.5834L11.0754 17.0698C10.9444 17.2014 10.7727 17.2675 10.6009 17.2675C10.4292 17.2675 10.2575 17.2014 10.1269 17.0698L8.50039 15.4358C8.23877 15.1729 8.23877 14.7459 8.50039 14.4826C8.76245 14.2193 9.18732 14.2193 9.44938 14.4826L10.601 15.6402L13.5964 12.6303C13.8585 12.3669 14.2834 12.3669 14.545 12.6303C14.8071 12.8936 14.8071 13.3201 14.5449 13.5834Z" fill="#C71E27"/>
</g>
<defs>
<clipPath id="clip0_956_15256">
<rect width="23" height="23" fill="white" transform="translate(0 0.5)"/>
</clipPath>
</defs>
</svg>
