<svg width="20" height="19" viewBox="0 0 20 19" fill="none" xmlns="http://www.w3.org/2000/svg">
<g clip-path="url(#clip0_1207_26)">
<path d="M19.7069 4.31551C19.3454 3.68295 18.6741 3.2889 17.9511 3.27853H4.73049L4.13143 0.934943C4.00749 0.4683 3.57369 0.146835 3.09857 0.167574H1.03286C0.464786 0.167574 0 0.634217 0 1.20456C0 1.7749 0.464786 2.24154 1.03286 2.24154H2.3136L5.16429 12.881C5.28823 13.3477 5.72203 13.6692 6.19714 13.6484H15.4929C15.8853 13.6484 16.2365 13.4306 16.4121 13.0781L19.7999 6.27541C20.0994 5.65322 20.0581 4.91696 19.7069 4.31551Z" fill="black"/>
<path d="M5.68063 18.8333C6.53628 18.8333 7.22992 18.1369 7.22992 17.2779C7.22992 16.4188 6.53628 15.7224 5.68063 15.7224C4.82499 15.7224 4.13135 16.4188 4.13135 17.2779C4.13135 18.1369 4.82499 18.8333 5.68063 18.8333Z" fill="black"/>
<path d="M16.0092 18.8333C16.8649 18.8333 17.5585 18.1369 17.5585 17.2779C17.5585 16.4188 16.8649 15.7224 16.0092 15.7224C15.1536 15.7224 14.46 16.4188 14.46 17.2779C14.46 18.1369 15.1536 18.8333 16.0092 18.8333Z" fill="black"/>
</g>
<defs>
<clipPath id="clip0_1207_26">
<rect width="20" height="19" fill="white"/>
</clipPath>
</defs>
</svg>
