<svg width="16" height="16" viewBox="0 0 16 16" fill="none" xmlns="http://www.w3.org/2000/svg">
<g clip-path="url(#clip0_550_37581)">
<path d="M7.99997 0.0001297C6.44466 0.00223973 4.95365 0.635058 3.85389 1.75982C2.75412 2.88458 2.13536 4.40947 2.1333 6.00012C2.1333 10.3076 7.59908 15.7026 7.8313 15.9301C7.87647 15.975 7.93698 16.0001 7.99997 16.0001C8.06296 16.0001 8.12346 15.975 8.16863 15.9301C8.40086 15.7026 13.8666 10.3076 13.8666 6.00012C13.8646 4.40947 13.2458 2.88458 12.146 1.75982C11.0463 0.635058 9.55527 0.00223973 7.99997 0.0001297ZM7.99997 8.75012C7.46816 8.75012 6.94829 8.58884 6.5061 8.28666C6.06392 7.98449 5.71927 7.555 5.51576 7.0525C5.31224 6.55001 5.25899 5.99707 5.36275 5.46363C5.4665 4.93018 5.72259 4.44018 6.09864 4.05558C6.47468 3.67099 6.9538 3.40908 7.47539 3.30297C7.99698 3.19686 8.53763 3.25132 9.02896 3.45946C9.52029 3.6676 9.94024 4.02007 10.2357 4.47231C10.5312 4.92454 10.6889 5.45623 10.6889 6.00012C10.6884 6.72933 10.405 7.42855 9.90083 7.94418C9.39666 8.45981 8.71297 8.74968 7.99997 8.75012Z" fill="#DADADA"/>
</g>
<defs>
<clipPath id="clip0_550_37581">
<rect width="16" height="16" fill="white"/>
</clipPath>
</defs>
</svg>
