<svg width="17" height="17" viewBox="0 0 17 17" fill="none" xmlns="http://www.w3.org/2000/svg">
<g clip-path="url(#clip0_365_15106)">
<path d="M5.51244 10.6442C5.36524 10.6442 5.26604 10.6586 5.21484 10.673V11.6154C5.27564 11.6298 5.35164 11.6338 5.45644 11.6338C5.83964 11.6338 6.07564 11.4402 6.07564 11.113C6.07564 10.8202 5.87244 10.6442 5.51244 10.6442ZM8.30203 10.6538C8.14203 10.6538 8.03803 10.6682 7.97643 10.6826V12.7706C8.03803 12.785 8.13723 12.785 8.22683 12.785C8.88043 12.7898 9.30603 12.4298 9.30603 11.6682C9.31083 11.0042 8.92283 10.6538 8.30203 10.6538Z" fill="#C71E27"/>
<path d="M10.0996 0.5H3.69961C3.27527 0.5 2.8683 0.668568 2.56824 0.968632C2.26818 1.26869 2.09961 1.67566 2.09961 2.1V14.9C2.09961 15.3243 2.26818 15.7313 2.56824 16.0314C2.8683 16.3314 3.27527 16.5 3.69961 16.5H13.2996C13.7239 16.5 14.1309 16.3314 14.431 16.0314C14.7311 15.7313 14.8996 15.3243 14.8996 14.9V5.3L10.0996 0.5ZM6.49801 11.852C6.25081 12.084 5.88601 12.188 5.46121 12.188C5.37884 12.1889 5.29651 12.1841 5.21481 12.1736V13.3144H4.49961V10.1656C4.82237 10.1174 5.14851 10.0955 5.47481 10.1C5.92041 10.1 6.23721 10.1848 6.45081 10.3552C6.65401 10.5168 6.79161 10.7816 6.79161 11.0936C6.79081 11.4072 6.68681 11.672 6.49801 11.852ZM9.54361 12.936C9.20761 13.2152 8.69641 13.348 8.07161 13.348C7.69721 13.348 7.43241 13.324 7.25241 13.3V10.1664C7.57529 10.1193 7.90129 10.097 8.22761 10.1C8.83321 10.1 9.22681 10.2088 9.53401 10.4408C9.86601 10.6872 10.074 11.08 10.074 11.644C10.074 12.2544 9.85081 12.676 9.54361 12.936ZM12.4996 10.716H11.274V11.4448H12.4196V12.032H11.274V13.3152H10.5492V10.124H12.4996V10.716ZM10.0996 6.1H9.29961V2.1L13.2996 6.1H10.0996Z" fill="#C71E27"/>
</g>
<defs>
<clipPath id="clip0_365_15106">
<rect width="16" height="16" fill="white" transform="translate(0.5 0.5)"/>
</clipPath>
</defs>
</svg>
