<svg width="20" height="19" viewBox="0 0 20 19" fill="none" xmlns="http://www.w3.org/2000/svg">
<g clip-path="url(#clip0_1207_30)">
<path d="M14.44 0.166626C12.63 0.166626 11.01 1.05651 10 2.42168C8.99 1.05651 7.37 0.166626 5.56 0.166626C2.49 0.166626 0 2.69471 0 5.81943C0 7.0228 0.19 8.13516 0.52 9.16662C2.1 14.2228 6.97 17.2464 9.38 18.0757C9.72 18.197 10.28 18.197 10.62 18.0757C13.03 17.2464 17.9 14.2228 19.48 9.16662C19.81 8.13516 20 7.0228 20 5.81943C20 2.69471 17.51 0.166626 14.44 0.166626Z" fill="black"/>
</g>
<defs>
<clipPath id="clip0_1207_30">
<rect width="20" height="19" fill="white"/>
</clipPath>
</defs>
</svg>
