<svg width="50" height="50" viewBox="0 0 50 50" fill="none" xmlns="http://www.w3.org/2000/svg">
<g clip-path="url(#clip0_580_34693)">
<path d="M49.2674 12.0388C48.3637 10.4574 46.6853 9.4723 44.8778 9.44638H11.8263L10.3287 3.58742C10.0188 2.42081 8.93434 1.61715 7.74655 1.669H2.58227C1.16209 1.669 0.00012207 2.8356 0.00012207 4.26146C0.00012207 5.68731 1.16209 6.85392 2.58227 6.85392H5.78412L12.9108 33.4526C13.2207 34.6192 14.3052 35.4228 15.493 35.371H38.7323C39.7135 35.371 40.5914 34.8266 41.0304 33.9451L49.4998 16.9386C50.2486 15.3831 50.1453 13.5425 49.2674 12.0388Z" fill="#DADADA"/>
<path d="M14.2019 48.3334C16.341 48.3334 18.0751 46.5924 18.0751 44.4447C18.0751 42.2971 16.341 40.556 14.2019 40.556C12.0628 40.556 10.3287 42.2971 10.3287 44.4447C10.3287 46.5924 12.0628 48.3334 14.2019 48.3334Z" fill="#DADADA"/>
<path d="M40.0232 48.3334C42.1624 48.3334 43.8965 46.5924 43.8965 44.4447C43.8965 42.2971 42.1624 40.556 40.0232 40.556C37.8841 40.556 36.15 42.2971 36.15 44.4447C36.15 46.5924 37.8841 48.3334 40.0232 48.3334Z" fill="#DADADA"/>
<path fill-rule="evenodd" clip-rule="evenodd" d="M34.0711 18.7574C34.8521 17.9764 34.8521 16.71 34.0711 15.929C33.29 15.1479 32.0237 15.1479 31.2426 15.929L27 20.1716L22.7574 15.929C21.9763 15.1479 20.71 15.1479 19.9289 15.929C19.1479 16.71 19.1479 17.9764 19.9289 18.7574L24.1716 23L19.9289 27.2427C19.1479 28.0237 19.1479 29.2901 19.9289 30.0711C20.71 30.8522 21.9763 30.8522 22.7574 30.0711L27 25.8285L31.2426 30.0711C32.0237 30.8522 33.29 30.8522 34.0711 30.0711C34.8521 29.2901 34.8521 28.0237 34.0711 27.2427L29.8284 23L34.0711 18.7574Z" fill="white"/>
</g>
<defs>
<clipPath id="clip0_580_34693">
<rect width="50" height="50" fill="white"/>
</clipPath>
</defs>
</svg>
