<svg width="10" height="14" viewBox="0 0 10 14" fill="none" xmlns="http://www.w3.org/2000/svg">
<path d="M8.97173 6.45372L2.6089 0.223657C2.46174 0.0794465 2.26529 0 2.05582 0C1.84635 0 1.64989 0.0794465 1.50273 0.223657L1.03415 0.682352C0.729245 0.981244 0.729245 1.46703 1.03415 1.76547L6.37717 6.9971L1.02822 12.2345C0.881059 12.3787 0.799805 12.571 0.799805 12.776C0.799805 12.9812 0.881059 13.1734 1.02822 13.3178L1.4968 13.7763C1.64408 13.9206 1.84042 14 2.04989 14C2.25936 14 2.45581 13.9206 2.60298 13.7763L8.97173 7.54059C9.11925 7.39592 9.20027 7.20277 9.1998 6.99744C9.20027 6.79131 9.11925 6.59827 8.97173 6.45372Z" fill="white"/>
</svg>
