<svg width="41" height="41" viewBox="0 0 41 41" fill="none" xmlns="http://www.w3.org/2000/svg">
<g clip-path="url(#clip0_668_1002)">
<path fill-rule="evenodd" clip-rule="evenodd" d="M19.4189 1.83334H31.7003C33.3209 1.83334 34.6335 3.15542 34.6335 4.7877V17.1561C34.6335 17.9405 34.3241 18.6924 33.7741 19.2478L17.788 35.3461C16.6426 36.4998 14.7859 36.4998 13.6405 35.3461L8.6378 30.3074L26.0513 17.5776L18.1801 16.8889L31.7779 4.55348L27.4605 4.17576L11.1621 19.3034L19.0332 19.992L8.19359 29.86L1.35907 22.9762C0.213644 21.8211 0.213644 19.951 1.35907 18.7973L17.3451 2.69897C17.8951 2.14503 18.6416 1.83334 19.4189 1.83334Z" fill="#C71E27"/>
<path d="M37.5667 4.7877L37.5653 18.5388C37.5653 19.2198 37.2969 19.8742 36.8173 20.3557L20.5731 36.717L20.8224 36.9681C21.9679 38.1218 23.8246 38.1218 24.97 36.9681L39.6391 22.1963C40.1905 21.6423 40.5 20.8905 40.5 20.1075V7.74207C40.5 6.10978 39.1874 4.7877 37.5667 4.7877Z" fill="#292929"/>
</g>
<defs>
<clipPath id="clip0_668_1002">
<rect width="40" height="40" fill="white" transform="translate(0.5 0.5)"/>
</clipPath>
</defs>
</svg>
