<svg width="12" height="13" viewBox="0 0 12 13" fill="none" xmlns="http://www.w3.org/2000/svg">
<path d="M11.7158 10.8222L8.95695 8.02537C9.4257 7.26888 9.69776 6.37475 9.69776 5.41519C9.69776 2.70045 7.52674 0.5 4.84878 0.5C2.17082 0.5 0 2.70045 0 5.41519C0 8.13003 2.17072 10.3303 4.84878 10.3303C5.87893 10.3303 6.83311 10.0038 7.61827 9.44905L10.3443 12.2126C10.5337 12.4045 10.7821 12.5 11.0301 12.5C11.2784 12.5 11.5264 12.4045 11.7161 12.2126C12.0947 11.8285 12.0947 11.2063 11.7158 10.8222ZM4.84878 8.73783C3.03872 8.73783 1.57124 7.25035 1.57124 5.41539C1.57124 3.58044 3.03872 2.09286 4.84878 2.09286C6.65894 2.09286 8.12632 3.58044 8.12632 5.41539C8.12632 7.25035 6.65894 8.73783 4.84878 8.73783Z" fill="#AAAAAA"/>
</svg>
