<svg width="40" height="40" viewBox="0 0 40 40" fill="none" xmlns="http://www.w3.org/2000/svg">
<path d="M29.3942 20C29.9277 20 30.4396 20.2108 30.8168 20.5858C31.1943 20.9608 31.4061 21.4696 31.4061 22V40H7.26263V22C7.26263 21.4696 7.47461 20.9608 7.85193 20.5858C8.22923 20.2108 8.741 20 9.27459 20H29.3942ZM15.3104 24H11.2866V28H15.3104V24ZM19.3344 1.00926e-06C23.0712 -0.000798991 26.7346 1.03294 29.9137 2.98534C33.0928 4.93776 35.6618 7.73168 37.3334 11.054L33.734 12.844C32.3968 10.1859 30.3414 7.95058 27.7981 6.3885C25.2548 4.82642 22.3241 3.99936 19.3344 4C16.3448 3.99936 13.414 4.82642 10.8707 6.3885C8.32734 7.95058 6.27192 10.1859 4.93479 12.844L1.33337 11.054C3.00503 7.73138 5.57461 4.93724 8.75408 2.98482C11.9335 1.03238 15.5971 -0.00117899 19.3344 1.00926e-06Z" fill="#C71E27"/>
<path d="M19.3344 8C21.5767 7.99934 23.7748 8.61944 25.6823 9.79082C27.5898 10.9622 29.1316 12.6386 30.1346 14.632L26.5332 16.422C25.8652 15.0923 24.8377 13.9739 23.5659 13.1923C22.2942 12.4106 20.8286 11.9965 19.3333 11.9965C17.8383 11.9965 16.3725 12.4106 15.1009 13.1923C13.8292 13.9739 12.8017 15.0923 12.1336 16.422L8.53418 14.632C9.5372 12.6386 11.0789 10.9622 12.9865 9.79082C14.8941 8.61944 17.0922 7.99934 19.3344 8Z" fill="#292929"/>
</svg>
