<svg width="40" height="40" viewBox="0 0 40 40" fill="none" xmlns="http://www.w3.org/2000/svg">
<g clip-path="url(#clip0_929_15594)">
<path d="M13.5681 33.5068L11.211 35.8639L4.14168 28.7946L6.49882 26.4375L13.5681 33.5068Z" fill="#C71E27"/>
<path d="M12.3763 20.5443L14.7334 18.1871L21.8027 25.2564L19.4455 27.6136L12.3763 20.5443Z" fill="#C71E27"/>
<path d="M8.2509 24.6745L10.6073 22.318L17.6766 29.3873L15.3202 31.7438L8.2509 24.6745Z" fill="#C71E27"/>
<path d="M34.1123 8.249L31.7538 10.607L29.4003 8.247L31.7558 5.892L25.8623 0L19.9703 5.8935L23.5053 9.4285L20.6293 12.3045L27.6998 19.375L30.5758 16.499L34.1123 20.034L40.0043 14.1405L34.1123 8.249Z" fill="#C71E27"/>
<path d="M16.4994 16.4302L18.8558 14.0737L25.9251 21.143L23.5687 23.4995L16.4994 16.4302Z" fill="#C71E27"/>
<path d="M-3.05176e-05 32.9286L2.3564 30.5722L9.42569 37.6415L7.06926 39.9979L-3.05176e-05 32.9286Z" fill="#C71E27"/>
<path d="M7.50426 0L0.0042572 4.002V12.6625L7.50426 16.6665L15.0043 12.6625V4.002L7.50426 0ZM7.50426 11.25C5.89276 11.25 4.58776 9.9415 4.58776 8.3335C4.58776 6.7255 5.89326 5.417 7.50426 5.417C9.11526 5.417 10.4208 6.7255 10.4208 8.3335C10.4208 9.9415 9.11576 11.25 7.50426 11.25Z" fill="#292929"/>
<path d="M36.0003 25H27.3398L23.3378 32.5L27.3398 40H36.0003L40.0043 32.5L36.0003 25ZM31.6708 35.4165C30.0628 35.4165 28.7543 34.1115 28.7543 32.5C28.7543 30.8885 30.0628 29.5835 31.6708 29.5835C33.2793 29.5835 34.5878 30.8885 34.5878 32.5C34.5878 34.1115 33.2793 35.4165 31.6708 35.4165Z" fill="#292929"/>
</g>
<defs>
<clipPath id="clip0_929_15594">
<rect width="40" height="40" fill="white"/>
</clipPath>
</defs>
</svg>
