<svg width="16" height="11" viewBox="0 0 16 11" fill="none" xmlns="http://www.w3.org/2000/svg">
<g clip-path="url(#clip0_1230_57)">
<path d="M8.00017 3.36658C6.79653 3.36658 5.81836 4.32301 5.81836 5.49991C5.81836 6.67681 6.79653 7.63324 8.00017 7.63324C9.20382 7.63324 10.182 6.67681 10.182 5.49991C10.182 4.32301 9.20379 3.36658 8.00017 3.36658Z" fill="black"/>
<path d="M8 0.166626C4.36363 0.166626 1.25819 2.37816 0 5.49996C1.25819 8.62173 4.36363 10.8333 8 10.8333C11.64 10.8333 14.7418 8.62173 16 5.49996C14.7418 2.37816 11.64 0.166626 8 0.166626ZM8 9.05549C5.99273 9.05549 4.36363 7.46259 4.36363 5.49993C4.36363 3.53726 5.99273 1.94439 8 1.94439C10.0073 1.94439 11.6364 3.53729 11.6364 5.49996C11.6364 7.46263 10.0073 9.05549 8 9.05549Z" fill="black"/>
</g>
<defs>
<clipPath id="clip0_1230_57">
<rect width="16" height="11" fill="white"/>
</clipPath>
</defs>
</svg>
