<svg width="20" height="20" viewBox="0 0 20 20" fill="none" xmlns="http://www.w3.org/2000/svg">
<path d="M14.3916 4.27994L12.6224 1.30418C12.5383 1.16263 12.3999 1.05954 12.2383 1.01863C12.0774 0.979355 11.9049 1.00227 11.7616 1.08654L6.35327 4.27257L14.3916 4.27994Z" fill="black"/>
<path d="M2.5 5.09088C2.04167 5.09088 1.66667 4.72269 1.66667 4.27269C1.66667 3.82268 2.04167 3.4545 2.5 3.4545H5.30833L8.09167 1.81812H2.5C1.26667 1.81812 0.241667 2.70176 0.0416667 3.86359C0.025 3.92905 0 3.9945 0 4.06814V16.5455C0 17.8956 1.125 19.0001 2.5 19.0001H16.6667C17.5833 19.0001 18.3333 18.2637 18.3333 17.3637V15.7274H16.25C14.1833 15.7274 12.5 14.0746 12.5 12.0455C12.5 10.0164 14.1833 8.36364 16.25 8.36364H18.3333V6.72726C18.3333 5.82725 17.5833 5.09088 16.6667 5.09088H2.5ZM15.8333 3.4545C15.8333 2.62812 15.2083 1.94084 14.3917 1.83448L15.8333 4.27269V3.4545Z" fill="black"/>
<path d="M19.375 9.59082H16.25C14.8717 9.59082 13.75 10.6921 13.75 12.0454C13.75 13.3987 14.8717 14.5 16.25 14.5H19.375C19.72 14.5 20 14.2251 20 13.8863V10.2045C20 9.86573 19.72 9.59082 19.375 9.59082ZM16.25 12.8636C15.79 12.8636 15.4167 12.497 15.4167 12.0454C15.4167 11.5938 15.79 11.2272 16.25 11.2272C16.71 11.2272 17.0833 11.5938 17.0833 12.0454C17.0833 12.497 16.71 12.8636 16.25 12.8636Z" fill="black"/>
</svg>
