<svg width="14" height="16" viewBox="0 0 14 16" fill="none" xmlns="http://www.w3.org/2000/svg">
<path d="M11.5874 0.449531C11.4278 0.17225 11.1307 0 10.8121 0H7.48267V3.95741H13.6065L11.5874 0.449531Z" fill="#292929"/>
<path d="M6.5493 0H3.18842C2.86922 0 2.57213 0.172562 2.41253 0.450469L0.400879 3.95741H6.54927V0H6.5493Z" fill="#292929"/>
<path d="M0.0666504 4.89526V14.8974C0.0666504 15.5055 0.559136 16 1.16423 16H12.8357C13.4408 16 13.9333 15.5055 13.9333 14.8974V4.89526H0.0666504ZM9.1183 9.10151L6.70473 11.5268C6.61358 11.6184 6.49409 11.6644 6.37464 11.6644C6.25519 11.6644 6.13571 11.6184 6.04487 11.5268L4.91339 10.3901C4.73139 10.2072 4.73139 9.91023 4.91339 9.72705C5.09569 9.54386 5.39125 9.54386 5.57356 9.72705L6.37467 10.5324L8.45847 8.43845C8.64077 8.25526 8.93634 8.25526 9.11833 8.43845C9.30063 8.62164 9.30063 8.91833 9.1183 9.10151Z" fill="#292929"/>
</svg>
