<svg width="20" height="20" viewBox="0 0 20 20" fill="none" xmlns="http://www.w3.org/2000/svg">
<path fill-rule="evenodd" clip-rule="evenodd" d="M15.629 0H12.5609C11.6214 0 10.8565 0.788879 10.8565 1.75781V2.81219H9.98537C9.67156 2.81219 9.41724 3.07465 9.41724 3.39813C9.41724 3.72177 9.67156 3.98407 9.98537 3.98407H10.8688C11.0133 5.69839 12.409 7.0311 14.0949 7.0311C15.8833 7.0311 17.3333 5.53558 17.3333 3.6911C17.3333 3.04733 17.3333 2.40219 17.3333 1.75781C17.3333 0.788879 16.5684 0 15.629 0Z" fill="#292929"/>
<path fill-rule="evenodd" clip-rule="evenodd" d="M12.7711 8.49731C12.3565 8.69033 11.9882 8.97003 11.6888 9.3135L8.63449 12.5389H4.37114C3.43254 12.5389 2.66675 13.3289 2.66675 14.2969C2.66675 15.2647 3.43269 16.0547 4.37114 16.0547H9.14359C9.66719 16.0547 10.1862 15.919 10.5761 15.5141L11.084 14.9867V19.4138C11.084 19.6976 11.2794 19.946 11.5391 20L16.766 19.9997C17.0794 19.9994 17.3334 19.7371 17.3334 19.4138V11.5428C17.3334 9.13665 14.91 7.50167 12.7711 8.49731Z" fill="#292929"/>
<path fill-rule="evenodd" clip-rule="evenodd" d="M4.22804 11.367H8.31874C8.63254 11.367 8.88687 11.1047 8.88687 10.7811V6.6014C8.88687 6.27776 8.63254 6.01546 8.31874 6.01546H6.8416V7.02193C6.8416 7.34557 6.58712 7.60787 6.27346 7.60787C5.95966 7.60787 5.70533 7.34557 5.70533 7.02193V6.01546H4.22804C3.91439 6.01546 3.65991 6.27776 3.65991 6.6014V10.7811C3.65991 11.1047 3.91439 11.367 4.22804 11.367Z" fill="#292929"/>
</svg>
