<svg width="16" height="16" viewBox="0 0 16 16" fill="none" xmlns="http://www.w3.org/2000/svg">
<path d="M11.6364 2.90913C11.6364 2.47761 11.7643 2.05577 12.0041 1.69698C12.2438 1.33818 12.5846 1.05853 12.9832 0.893392C13.3819 0.728256 13.8206 0.685048 14.2438 0.769234C14.6671 0.85342 15.0558 1.06122 15.361 1.36635C15.6661 1.67148 15.8739 2.06025 15.9581 2.48348C16.0423 2.90671 15.9991 3.3454 15.8339 3.74408C15.6688 4.14275 15.3891 4.4835 15.0303 4.72324C14.6715 4.96299 14.2497 5.09095 13.8182 5.09095C13.2395 5.09095 12.6846 4.86108 12.2754 4.45191C11.8662 4.04274 11.6364 3.48778 11.6364 2.90913ZM0.727273 3.6364H9.45455C9.64743 3.6364 9.83241 3.55978 9.9688 3.42339C10.1052 3.287 10.1818 3.10201 10.1818 2.90913C10.1818 2.71624 10.1052 2.53126 9.9688 2.39487C9.83241 2.25848 9.64743 2.18186 9.45455 2.18186H0.727273C0.534388 2.18186 0.349403 2.25848 0.213013 2.39487C0.0766231 2.53126 0 2.71624 0 2.90913C0 3.10201 0.0766231 3.287 0.213013 3.42339C0.349403 3.55978 0.534388 3.6364 0.727273 3.6364ZM5.09091 5.81822C4.64077 5.81949 4.20204 5.95995 3.83486 6.22036C3.46769 6.48076 3.19005 6.84837 3.04 7.27277H0.727273C0.534388 7.27277 0.349403 7.34939 0.213013 7.48578C0.0766231 7.62217 0 7.80715 0 8.00004C0 8.19292 0.0766231 8.37791 0.213013 8.5143C0.349403 8.65069 0.534388 8.72731 0.727273 8.72731H3.04C3.17342 9.10468 3.40808 9.43807 3.71829 9.691C4.0285 9.94393 4.40231 10.1067 4.79881 10.1614C5.19531 10.2161 5.59922 10.1607 5.96633 10.0012C6.33345 9.84172 6.64962 9.58433 6.88025 9.2572C7.11088 8.93006 7.24708 8.54579 7.27394 8.14644C7.30079 7.74708 7.21728 7.34804 7.03253 6.99297C6.84779 6.6379 6.56893 6.34049 6.22647 6.13329C5.88402 5.9261 5.49116 5.8171 5.09091 5.81822ZM15.2727 7.27277H9.45455C9.26166 7.27277 9.07668 7.34939 8.94029 7.48578C8.8039 7.62217 8.72727 7.80715 8.72727 8.00004C8.72727 8.19292 8.8039 8.37791 8.94029 8.5143C9.07668 8.65069 9.26166 8.72731 9.45455 8.72731H15.2727C15.4656 8.72731 15.6506 8.65069 15.787 8.5143C15.9234 8.37791 16 8.19292 16 8.00004C16 7.80715 15.9234 7.62217 15.787 7.48578C15.6506 7.34939 15.4656 7.27277 15.2727 7.27277ZM6.54545 12.3637H0.727273C0.534388 12.3637 0.349403 12.4403 0.213013 12.5767C0.0766231 12.7131 0 12.8981 0 13.0909C0 13.2838 0.0766231 13.4688 0.213013 13.6052C0.349403 13.7416 0.534388 13.8182 0.727273 13.8182H6.54545C6.73834 13.8182 6.92332 13.7416 7.05971 13.6052C7.1961 13.4688 7.27273 13.2838 7.27273 13.0909C7.27273 12.8981 7.1961 12.7131 7.05971 12.5767C6.92332 12.4403 6.73834 12.3637 6.54545 12.3637ZM15.2727 12.3637H12.96C12.7884 11.8784 12.4509 11.4695 12.0069 11.209C11.563 10.9486 11.0413 10.8535 10.534 10.9406C10.0267 11.0276 9.56657 11.2911 9.23483 11.6846C8.90309 12.0782 8.72114 12.5763 8.72114 13.0909C8.72114 13.6056 8.90309 14.1037 9.23483 14.4972C9.56657 14.8908 10.0267 15.1543 10.534 15.2413C11.0413 15.3284 11.563 15.2333 12.0069 14.9729C12.4509 14.7124 12.7884 14.3035 12.96 13.8182H15.2727C15.4656 13.8182 15.6506 13.7416 15.787 13.6052C15.9234 13.4688 16 13.2838 16 13.0909C16 12.8981 15.9234 12.7131 15.787 12.5767C15.6506 12.4403 15.4656 12.3637 15.2727 12.3637Z" fill="#292929"/>
</svg>
