<svg width="40" height="40" viewBox="0 0 40 40" fill="none" xmlns="http://www.w3.org/2000/svg">
<g clip-path="url(#clip0_929_16257)">
<path fill-rule="evenodd" clip-rule="evenodd" d="M0 4C0 1.79467 1.59695 0 3.55932 0H36.4407C38.4031 0 40 1.79467 40 4V36C40 38.2053 38.4031 40 36.4407 40H3.55932C1.59695 40 0 38.2053 0 36V4ZM3.55932 34.6667C4.21424 34.6667 4.74576 34.0693 4.74576 33.3333C4.74576 32.5973 4.21424 32 3.55932 32C2.90441 32 2.37288 32.5973 2.37288 33.3333C2.37288 34.0693 2.90441 34.6667 3.55932 34.6667ZM3.55932 8C4.21424 8 4.74576 7.40267 4.74576 6.66667C4.74576 5.93067 4.21424 5.33333 3.55932 5.33333C2.90441 5.33333 2.37288 5.93067 2.37288 6.66667C2.37288 7.40267 2.90441 8 3.55932 8ZM36.4407 34.6667C35.7858 34.6667 35.2542 34.0693 35.2542 33.3333C35.2542 32.5973 35.7858 32 36.4407 32C37.0956 32 37.6271 32.5973 37.6271 33.3333C37.6271 34.0693 37.0956 34.6667 36.4407 34.6667ZM36.4407 8C35.7858 8 35.2542 7.40267 35.2542 6.66667C35.2542 5.93067 35.7858 5.33333 36.4407 5.33333C37.0956 5.33333 37.6271 5.93067 37.6271 6.66667C37.6271 7.40267 37.0956 8 36.4407 8ZM5.33333 8.26667C5.33333 6.64942 6.50443 5.33333 7.9435 5.33333H32.0565C33.4956 5.33333 34.6667 6.64942 34.6667 8.26667V31.7333C34.6667 33.3506 33.4956 34.6667 32.0565 34.6667H7.9435C6.50443 34.6667 5.33333 33.3506 5.33333 31.7333V8.26667Z" fill="#292929"/>
<path fill-rule="evenodd" clip-rule="evenodd" d="M6.66666 9.33333C6.66666 7.86311 7.73129 6.66666 9.03954 6.66666H30.9604C32.2687 6.66666 33.3333 7.86311 33.3333 9.33333V30.6667C33.3333 32.1369 32.2687 33.3333 30.9604 33.3333H9.03954C7.73129 33.3333 6.66666 32.1369 6.66666 30.6667V9.33333ZM9.03954 29.7778C9.47615 29.7778 9.8305 29.3796 9.8305 28.8889C9.8305 28.3982 9.47615 28 9.03954 28C8.60293 28 8.24858 28.3982 8.24858 28.8889C8.24858 29.3796 8.60293 29.7778 9.03954 29.7778ZM9.03954 12C9.47615 12 9.8305 11.6018 9.8305 11.1111C9.8305 10.6204 9.47615 10.2222 9.03954 10.2222C8.60293 10.2222 8.24858 10.6204 8.24858 11.1111C8.24858 11.6018 8.60293 12 9.03954 12ZM30.9604 29.7778C30.5238 29.7778 30.1695 29.3796 30.1695 28.8889C30.1695 28.3982 30.5238 28 30.9604 28C31.3971 28 31.7514 28.3982 31.7514 28.8889C31.7514 29.3796 31.3971 29.7778 30.9604 29.7778ZM30.9604 12C30.5238 12 30.1695 11.6018 30.1695 11.1111C30.1695 10.6204 30.5238 10.2222 30.9604 10.2222C31.3971 10.2222 31.7514 10.6204 31.7514 11.1111C31.7514 11.6018 31.3971 12 30.9604 12ZM18.2329 22.7603L19.8187 21.2376L15.526 19.1759C14.5781 18.7195 14.3717 17.5028 15.1215 16.7813L18.2329 13.7919C19.688 12.3948 21.8898 14.5063 20.4337 15.9064L18.8479 17.429L23.1406 19.4908C24.0886 19.9472 24.295 21.1639 23.5451 21.8853L20.4337 24.8748C18.9786 26.2719 16.7768 24.1603 18.2329 22.7603Z" fill="#C71E27"/>
</g>
<defs>
<clipPath id="clip0_929_16257">
<rect width="40" height="40" fill="white"/>
</clipPath>
</defs>
</svg>
