<svg width="20" height="20" viewBox="0 0 20 20" fill="none" xmlns="http://www.w3.org/2000/svg">
<g clip-path="url(#clip0_642_26763)">
<path fill-rule="evenodd" clip-rule="evenodd" d="M14.6667 1.33333C14.6667 0.596954 15.2636 0 16 0H18C18.7364 0 19.3333 0.596954 19.3333 1.33333V4.17838C19.7319 4.40892 20 4.83981 20 5.33333V16C20 16.4935 19.7319 16.9244 19.3333 17.155V18.6667C19.3333 19.403 18.7364 20 18 20H16C15.2636 20 14.6667 19.403 14.6667 18.6667V17.155C14.2681 16.9244 14 16.4935 14 16V5.33333C14 4.83981 14.2681 4.40892 14.6667 4.17838V1.33333ZM15.3333 15.3333C14.9651 15.3333 14.6667 15.6318 14.6667 16C14.6667 16.3682 14.9651 16.6667 15.3333 16.6667H18C18.3682 16.6667 18.6667 16.3682 18.6667 16C18.6667 15.6318 18.3682 15.3333 18 15.3333H15.3333Z" fill="#292929"/>
<path fill-rule="evenodd" clip-rule="evenodd" d="M7.66667 1.33333C7.66667 0.596954 8.26362 0 9 0H11C11.7364 0 12.3333 0.596954 12.3333 1.33333V4.17838C12.7319 4.40892 13 4.83981 13 5.33333V16C13 16.4935 12.7319 16.9244 12.3333 17.155V18.6667C12.3333 19.403 11.7364 20 11 20H9C8.26362 20 7.66667 19.403 7.66667 18.6667V17.155C7.26813 16.9244 7 16.4935 7 16V5.33333C7 4.83981 7.26813 4.40892 7.66667 4.17838V1.33333ZM8.66667 4.66667C8.29848 4.66667 8 4.96514 8 5.33333C8 5.70152 8.29848 6 8.66667 6H11.3333C11.7015 6 12 5.70152 12 5.33333C12 4.96514 11.7015 4.66667 11.3333 4.66667H8.66667Z" fill="#C71E27"/>
<path fill-rule="evenodd" clip-rule="evenodd" d="M0.666667 1.33333C0.666667 0.596954 1.26362 0 2 0H4C4.73638 0 5.33333 0.596954 5.33333 1.33333V4.17838C5.73187 4.40892 6 4.83981 6 5.33333V16C6 16.4935 5.73187 16.9244 5.33333 17.155V18.6667C5.33333 19.403 4.73638 20 4 20H2C1.26362 20 0.666667 19.403 0.666667 18.6667V17.155C0.268132 16.9244 0 16.4935 0 16V5.33333C0 4.83981 0.268132 4.40892 0.666667 4.17838V1.33333ZM1.66667 15.3333C1.29848 15.3333 1 15.6318 1 16C1 16.3682 1.29848 16.6667 1.66667 16.6667H4.33333C4.70152 16.6667 5 16.3682 5 16C5 15.6318 4.70152 15.3333 4.33333 15.3333H1.66667Z" fill="#292929"/>
</g>
<defs>
<clipPath id="clip0_642_26763">
<rect width="20" height="20" fill="white"/>
</clipPath>
</defs>
</svg>
