<svg width="23" height="24" viewBox="0 0 23 24" fill="none" xmlns="http://www.w3.org/2000/svg">
<g clip-path="url(#clip0_956_14245)">
<path d="M11.5 0.500183C9.26424 0.503216 7.12091 1.41289 5.53999 3.02973C3.95908 4.64658 3.06962 6.83862 3.06665 9.12517C3.06665 15.3172 10.9237 23.0725 11.2575 23.3995C11.3225 23.4641 11.4094 23.5002 11.5 23.5002C11.5905 23.5002 11.6775 23.4641 11.7424 23.3995C12.0763 23.0725 19.9333 15.3172 19.9333 9.12517C19.9304 6.83862 19.0409 4.64658 17.46 3.02973C15.8791 1.41289 13.7357 0.503216 11.5 0.500183ZM11.5 13.0783C10.7355 13.0783 9.98819 12.8464 9.35255 12.4121C8.71691 11.9777 8.22149 11.3603 7.92893 10.638C7.63638 9.91563 7.55983 9.12079 7.70898 8.35396C7.85812 7.58713 8.22625 6.88275 8.76682 6.3299C9.30739 5.77704 9.99612 5.40054 10.7459 5.24801C11.4957 5.09548 12.2729 5.17376 12.9792 5.47297C13.6854 5.77217 14.2891 6.27885 14.7138 6.92894C15.1386 7.57902 15.3653 8.34332 15.3653 9.12517C15.3646 10.1734 14.9572 11.1785 14.2325 11.9198C13.5077 12.661 12.5249 13.0777 11.5 13.0783Z" fill="#C71E27"/>
</g>
<defs>
<clipPath id="clip0_956_14245">
<rect width="23" height="23" fill="white" transform="translate(0 0.5)"/>
</clipPath>
</defs>
</svg>
