<svg width="53" height="50" viewBox="0 0 53 50" fill="none" xmlns="http://www.w3.org/2000/svg">
<path d="M37.6557 0H2.45529C1.37511 0 0.5 0.869546 0.5 1.94095V42.439C0.5 43.7121 1.53204 44.7441 2.80513 44.7441H40.1714C41.0047 44.7441 41.8223 44.9757 42.5315 45.4118L49.5129 49.7065C50.8167 50.507 52.5 49.5747 52.5 48.0567V14.7318C52.5 6.60829 45.84 0 37.6557 0Z" fill="#DADADA"/>
<path fill-rule="evenodd" clip-rule="evenodd" d="M34.0196 17.009C34.9202 16.1088 34.9202 14.6493 34.0196 13.7491C33.1191 12.8489 31.659 12.8489 30.7585 13.7491L25.866 18.6396L20.9738 13.7492C20.0732 12.849 18.6132 12.849 17.7126 13.7492C16.812 14.6494 16.8121 16.109 17.7126 17.0092L22.6048 21.8995L17.7137 26.7888C16.8131 27.689 16.8131 29.1485 17.7137 30.0488C18.6142 30.949 20.0743 30.949 20.9749 30.0488L25.866 25.1595L30.7574 30.0489C31.6579 30.9491 33.118 30.9491 34.0186 30.0489C34.9191 29.1487 34.9191 27.6892 34.0186 26.789L29.1272 21.8995L34.0196 17.009Z" fill="white"/>
</svg>
