<svg width="23" height="24" viewBox="0 0 23 24" fill="none" xmlns="http://www.w3.org/2000/svg">
<g clip-path="url(#clip0_1056_9395)">
<path d="M11.5 0.5C5.14396 0.5 0 5.64337 0 12C0 18.356 5.14337 23.5 11.5 23.5C17.856 23.5 23 18.3566 23 12C23 5.64405 17.8566 0.5 11.5 0.5ZM12.681 16.565C12.681 16.9283 12.1511 17.2916 11.5002 17.2916C10.819 17.2916 10.3347 16.9283 10.3347 16.565V10.7976C10.3347 10.3738 10.8191 10.0861 11.5002 10.0861C12.1511 10.0861 12.681 10.3738 12.681 10.7976V16.565ZM11.5003 8.69357C10.8039 8.69357 10.259 8.1789 10.259 7.60363C10.259 7.02841 10.804 6.52887 11.5003 6.52887C12.1815 6.52887 12.7265 7.02841 12.7265 7.60363C12.7265 8.1789 12.1814 8.69357 11.5003 8.69357Z" fill="#C71E27"/>
</g>
<defs>
<clipPath id="clip0_1056_9395">
<rect width="23" height="23" fill="white" transform="translate(0 0.5)"/>
</clipPath>
</defs>
</svg>
