<svg width="40" height="40" viewBox="0 0 40 40" fill="none" xmlns="http://www.w3.org/2000/svg">
<g clip-path="url(#clip0_668_1342)">
<path fill-rule="evenodd" clip-rule="evenodd" d="M21.5259 4.52873C26.4688 -0.380315 34.74 -0.124994 40 5.09917L22.1002 22.8766C16.8402 17.6524 16.583 9.43788 21.5259 4.52873Z" fill="#C71E27"/>
<path fill-rule="evenodd" clip-rule="evenodd" d="M24.5141 2.36306L19.3452 7.49661L18.0321 6.19241C16.6106 4.78063 16.6106 2.47056 18.0321 1.05877C19.4535 -0.352924 21.7796 -0.352924 23.201 1.05877L24.5141 2.36306Z" fill="#C71E27"/>
<path fill-rule="evenodd" clip-rule="evenodd" d="M34.5336 11.7854C35.5525 13.3717 35.3648 15.5019 33.9697 16.8874C32.5746 18.273 30.4298 18.4595 28.8325 17.4475L34.5336 11.7854Z" fill="#292929"/>
<path fill-rule="evenodd" clip-rule="evenodd" d="M6.88208 12.5478L16.2022 4.70776C16.393 5.48332 16.7919 6.21764 17.3993 6.82083L18.0035 7.42098L9.02679 14.9721C8.5916 13.9535 7.8344 13.1035 6.88208 12.5478Z" fill="#C71E27"/>
<path fill-rule="evenodd" clip-rule="evenodd" d="M9.76633 31.2985L4.7196 22.0833C5.86526 21.9851 6.90389 21.5154 7.71304 20.7961L13.4646 31.2985H9.76633Z" fill="#C71E27"/>
<path fill-rule="evenodd" clip-rule="evenodd" d="M4.26991 12.7328C1.91169 12.7328 0 14.6314 0 16.9734C0 19.3155 1.91169 21.2141 4.26991 21.2141C6.62803 21.2141 8.53973 19.3155 8.53973 16.9734C8.53973 14.6314 6.62803 12.7328 4.26991 12.7328ZM4.26991 15.1116C3.23453 15.1116 2.39529 15.9452 2.39529 16.9734C2.39529 18.0017 3.23453 18.8352 4.26991 18.8352C5.30519 18.8352 6.14444 18.0017 6.14444 16.9734C6.14444 15.9452 5.30519 15.1116 4.26991 15.1116Z" fill="#C71E27"/>
<path fill-rule="evenodd" clip-rule="evenodd" d="M7.04736 35.3802V34.2282C7.04736 33.1058 7.97209 32.1874 9.10223 32.1874H22.4553C23.5854 32.1874 24.5102 33.1058 24.5102 34.2282V35.3802H7.04736Z" fill="#C71E27"/>
<path fill-rule="evenodd" clip-rule="evenodd" d="M6.47212 36.269H25.0856C26.1186 36.269 26.9637 37.1085 26.9637 38.1344C26.9637 39.1604 26.1186 39.9999 25.0856 39.9999H6.47212C5.43906 39.9999 4.59387 39.1605 4.59387 38.1345C4.59387 37.1085 5.43906 36.269 6.47212 36.269Z" fill="#292929"/>
<path fill-rule="evenodd" clip-rule="evenodd" d="M21.9801 31.2986H17.1074V30.3046C17.1074 29.9826 17.3727 29.7191 17.6969 29.7191H21.3906C21.7149 29.7191 21.9801 29.9826 21.9801 30.3046V31.2986Z" fill="#C71E27"/>
</g>
<defs>
<clipPath id="clip0_668_1342">
<rect width="40" height="40" fill="white"/>
</clipPath>
</defs>
</svg>
