<svg width="14" height="17" viewBox="0 0 14 17" fill="none" xmlns="http://www.w3.org/2000/svg">
<g clip-path="url(#clip0_1230_60)">
<path d="M8.0381 7.81244C8.80677 7.81244 9.43216 7.19563 9.43216 6.43744C9.36208 4.61581 6.71387 4.61631 6.64404 6.43747C6.64404 7.19563 7.26944 7.81244 8.0381 7.81244Z" fill="black"/>
<path d="M0.6875 0.96875V16.0312C0.6875 16.2901 0.900284 16.5 1.16275 16.5H2.58849V0.5H1.16275C0.900284 0.5 0.6875 0.709875 0.6875 0.96875Z" fill="black"/>
<path d="M11.6816 0.5H3.53906V16.5H11.6816C12.6774 16.5 13.4876 15.7009 13.4876 14.7188V2.28125C13.4876 1.29906 12.6774 0.5 11.6816 0.5ZM8.03807 4.12497C9.33084 4.12497 10.3826 5.16234 10.3826 6.43747C10.2648 9.50109 5.81094 9.50025 5.69352 6.43744C5.69352 5.16234 6.7453 4.12497 8.03807 4.12497ZM9.8757 12.875H6.20045C5.57056 12.8519 5.57103 11.9603 6.20045 11.9375H9.8757C10.5056 11.9606 10.5051 12.8522 9.8757 12.875ZM11.1113 11H4.96481C4.33491 10.9769 4.33539 10.0853 4.96481 10.0625H11.1113C11.7412 10.0856 11.7408 10.9772 11.1113 11Z" fill="black"/>
</g>
<defs>
<clipPath id="clip0_1230_60">
<rect width="14" height="17" fill="white"/>
</clipPath>
</defs>
</svg>
