<svg width="23" height="24" viewBox="0 0 23 24" fill="none" xmlns="http://www.w3.org/2000/svg">
<path d="M16.5504 5.42192L14.5159 1.9998C14.4191 1.83702 14.26 1.71846 14.0741 1.67142C13.8891 1.62625 13.6908 1.6526 13.5259 1.74951L7.30634 5.41345L16.5504 5.42192Z" fill="#C71E27"/>
<path d="M2.875 6.35437C2.34792 6.35437 1.91667 5.93096 1.91667 5.41346C1.91667 4.89595 2.34792 4.47254 2.875 4.47254H6.10458L9.30542 2.5907H2.875C1.45667 2.5907 0.277917 3.60689 0.0479167 4.943C0.02875 5.01827 0 5.09354 0 5.17823V19.5272C0 21.0798 1.29375 22.35 2.875 22.35H19.1667C20.2208 22.35 21.0833 21.5032 21.0833 20.4682V18.5863H18.6875C16.3108 18.5863 14.375 16.6857 14.375 14.3522C14.375 12.0187 16.3108 10.1181 18.6875 10.1181H21.0833V8.23621C21.0833 7.2012 20.2208 6.35437 19.1667 6.35437H2.875ZM18.2083 4.47254C18.2083 3.52221 17.4896 2.73184 16.5504 2.60952L18.2083 5.41346V4.47254Z" fill="#C71E27"/>
<path d="M22.2812 11.5294H18.6875C17.1024 11.5294 15.8125 12.7959 15.8125 14.3522C15.8125 15.9085 17.1024 17.1749 18.6875 17.1749H22.2812C22.678 17.1749 23 16.8588 23 16.4692V12.2351C23 11.8456 22.678 11.5294 22.2812 11.5294ZM18.6875 15.2931C18.1585 15.2931 17.7292 14.8716 17.7292 14.3522C17.7292 13.8328 18.1585 13.4113 18.6875 13.4113C19.2165 13.4113 19.6458 13.8328 19.6458 14.3522C19.6458 14.8716 19.2165 15.2931 18.6875 15.2931Z" fill="#C71E27"/>
</svg>
