<svg width="18" height="21" viewBox="0 0 18 21" fill="none" xmlns="http://www.w3.org/2000/svg">
<g clip-path="url(#clip0_1207_32)">
<path d="M9.00128 10.8855C11.874 10.8855 14.2223 8.54991 14.2223 5.69275C14.2223 2.83559 11.874 0.5 9.00128 0.5C6.12855 0.5 3.78027 2.83559 3.78027 5.69275C3.78027 8.54991 6.12859 10.8855 9.00128 10.8855Z" fill="black"/>
<path d="M17.9615 15.0352C17.8247 14.695 17.6423 14.3776 17.4372 14.0828C16.3884 12.5408 14.7697 11.5204 12.9457 11.271C12.7177 11.2483 12.4669 11.2936 12.2845 11.4297C11.327 12.1326 10.187 12.4954 9.00141 12.4954C7.81582 12.4954 6.67587 12.1326 5.71829 11.4297C5.53588 11.2936 5.28508 11.2256 5.05711 11.271C3.23316 11.5204 1.59163 12.5408 0.565665 14.0828C0.360473 14.3776 0.178061 14.7177 0.0412948 15.0352C-0.027088 15.1712 -0.00430831 15.33 0.0640745 15.466C0.246487 15.7835 0.474459 16.101 0.679651 16.3731C0.998829 16.8039 1.34083 17.1894 1.72844 17.5522C2.04761 17.8696 2.41239 18.1644 2.77722 18.4592C4.57835 19.7971 6.7443 20.5 8.97863 20.5C11.213 20.5 13.3789 19.7971 15.18 18.4592C15.5448 18.1871 15.9096 17.8696 16.2288 17.5522C16.5936 17.1894 16.9584 16.8039 17.2776 16.3731C17.5056 16.0783 17.7108 15.7835 17.8932 15.466C18.0071 15.33 18.0299 15.1712 17.9615 15.0352Z" fill="black"/>
</g>
<defs>
<clipPath id="clip0_1207_32">
<rect width="18" height="21" fill="white"/>
</clipPath>
</defs>
</svg>
