<svg width="16" height="15" viewBox="0 0 16 15" fill="none" xmlns="http://www.w3.org/2000/svg">
<g clip-path="url(#clip0_1230_55)">
<path d="M11.552 0.0333252C10.104 0.0333252 8.808 0.745235 8 1.83737C7.192 0.745235 5.896 0.0333252 4.448 0.0333252C1.992 0.0333252 0 2.0558 0 4.55557C0 5.51827 0.152 6.40816 0.416 7.23332C1.68 11.2783 5.576 13.6971 7.504 14.3605C7.776 14.4576 8.224 14.4576 8.496 14.3605C10.424 13.6971 14.32 11.2783 15.584 7.23332C15.848 6.40816 16 5.51827 16 4.55557C16 2.0558 14.008 0.0333252 11.552 0.0333252Z" fill="black"/>
</g>
<defs>
<clipPath id="clip0_1230_55">
<rect width="16" height="15" fill="white"/>
</clipPath>
</defs>
</svg>
