<svg width="16" height="10" viewBox="0 0 16 10" fill="none" xmlns="http://www.w3.org/2000/svg">
<path d="M7.37568 9.53936L0.255608 2.26755C0.090796 2.09937 0 1.87485 0 1.63546C0 1.39606 0.090796 1.17154 0.255608 1.00336L0.779831 0.467838C1.12142 0.119372 1.6766 0.119372 2.01767 0.467838L7.99668 6.57415L13.9823 0.461062C14.1471 0.292874 14.3668 0.200012 14.6011 0.200012C14.8357 0.200012 15.0554 0.292874 15.2203 0.461062L15.7444 0.99658C15.9092 1.1649 16 1.38928 16 1.62868C16 1.86808 15.9092 2.09259 15.7444 2.26078L8.61782 9.53936C8.45248 9.70795 8.23174 9.80054 7.99707 9.80001C7.7615 9.80054 7.54088 9.70795 7.37568 9.53936Z" fill="white"/>
</svg>
