<svg width="16" height="16" viewBox="0 0 16 16" fill="none" xmlns="http://www.w3.org/2000/svg">
<g clip-path="url(#clip0_1243_42)">
<mask id="mask0_1243_42" style="mask-type:luminance" maskUnits="userSpaceOnUse" x="0" y="0" width="16" height="16">
<path d="M16 0H0V16H16V0Z" fill="white"/>
</mask>
<g mask="url(#mask0_1243_42)">
<path d="M9.14203 10.1725C8.98828 10.3262 8.79828 10.4436 8.59237 10.5122L6.60359 11.1751C6.46006 11.223 6.31037 11.2473 6.15894 11.2473C5.78328 11.2473 5.43012 11.101 5.16453 10.8354C4.78544 10.4562 4.65531 9.90484 4.82484 9.39631L5.48778 7.40762C5.55637 7.20165 5.67387 7.01153 5.82747 6.85794L10.1229 2.5625H1.71875C0.771031 2.5625 0 3.33353 0 4.28125V14.2812C0 15.229 0.771031 16 1.71875 16H11.7187C12.6665 16 13.4375 15.229 13.4375 14.2812V5.87706L9.14203 10.1725Z" fill="black"/>
<path d="M6.49066 7.52076C6.43919 7.57222 6.40044 7.63494 6.37744 7.70397L5.7145 9.69269C5.65835 9.86113 5.70219 10.0468 5.82772 10.1724C5.95328 10.2979 6.13897 10.3418 6.30741 10.2856L8.29616 9.62269C8.36522 9.59969 8.42791 9.56094 8.47938 9.50947L14.3351 3.65376L12.3464 1.66504L6.49066 7.52076Z" fill="black"/>
<path d="M14.887 0.22882C14.5819 -0.0762734 14.0873 -0.0762734 13.7822 0.22882L13.0088 1.00223L14.9975 2.99098L15.7709 2.21757C16.076 1.91248 16.076 1.41782 15.7709 1.11273L14.887 0.22882Z" fill="black"/>
</g>
</g>
<defs>
<clipPath id="clip0_1243_42">
<rect width="16" height="16" fill="white"/>
</clipPath>
</defs>
</svg>
