<svg width="20" height="20" viewBox="0 0 20 20" fill="none" xmlns="http://www.w3.org/2000/svg">
<g clip-path="url(#clip0_642_32808)">
<path d="M9.35315 20.0001C4.55574 20.0001 0.666681 16.1391 0.666681 11.3763C0.666681 6.61347 4.55574 2.75244 9.35315 2.75244V4.95428C5.78062 4.95428 2.8845 7.82951 2.8845 11.3763C2.8845 14.9231 5.78062 17.7983 9.35315 17.7983V20.0001Z" fill="#C71E27"/>
<path fill-rule="evenodd" clip-rule="evenodd" d="M16.8563 0H10.0925V4.95669C13.5795 5.05384 16.3763 7.89073 16.3763 11.3761C16.3763 14.8615 13.5795 17.6984 10.0925 17.7956V20H16.8563C18.2244 20 19.3334 18.891 19.3334 17.5229V2.47706C19.3334 1.10902 18.2244 0 16.8563 0Z" fill="#292929"/>
<path d="M9.35315 0H9.06193C7.9979 0 7.13533 0.862571 7.13533 1.92661V4.77064H9.35315V0Z" fill="#C71E27"/>
</g>
<defs>
<clipPath id="clip0_642_32808">
<rect width="20" height="20" fill="white"/>
</clipPath>
</defs>
</svg>
