<svg width="40" height="40" viewBox="0 0 40 40" fill="none" xmlns="http://www.w3.org/2000/svg">
<path d="M29.3941 20C29.9277 20 30.4396 20.2108 30.8168 20.5858C31.1942 20.9608 31.4061 21.4696 31.4061 22V40H7.2626V22C7.2626 21.4696 7.47458 20.9608 7.8519 20.5858C8.2292 20.2108 8.74097 20 9.27456 20H29.3941ZM15.3104 24H11.2865V28H15.3104V24ZM19.3343 1.00926e-06C23.0711 -0.000798991 26.7345 1.03294 29.9136 2.98534C33.0927 4.93776 35.6618 7.73168 37.3333 11.054L33.7339 12.844C32.3968 10.1859 30.3414 7.95058 27.7981 6.3885C25.2547 4.82642 22.3241 3.99936 19.3343 4C16.3448 3.99936 13.414 4.82642 10.8706 6.3885C8.32731 7.95058 6.27189 10.1859 4.93476 12.844L1.33334 11.054C3.005 7.73138 5.57458 4.93724 8.75404 2.98482C11.9335 1.03238 15.5971 -0.00117899 19.3343 1.00926e-06Z" fill="#C71E27"/>
<path d="M19.3343 8C21.5767 7.99934 23.7747 8.61944 25.6823 9.79082C27.5898 10.9622 29.1316 12.6386 30.1345 14.632L26.5331 16.422C25.8652 15.0923 24.8376 13.9739 23.5659 13.1923C22.2941 12.4106 20.8286 11.9965 19.3333 11.9965C17.8382 11.9965 16.3725 12.4106 15.1009 13.1923C13.8291 13.9739 12.8016 15.0923 12.1336 16.422L8.53415 14.632C9.53717 12.6386 11.0789 10.9622 12.9865 9.79082C14.8941 8.61944 17.0922 7.99934 19.3343 8Z" fill="#292929"/>
</svg>
