<svg width="15" height="14" viewBox="0 0 15 14" fill="none" xmlns="http://www.w3.org/2000/svg">
<path d="M14.3647 2.93534L11.5647 0.135341C11.5211 0.0920898 11.4693 0.0578713 11.4125 0.0346479C11.3556 0.0114244 11.2947 -0.000347283 11.2333 7.8e-06H10.3V3.73334C10.3 3.98087 10.2017 4.21827 10.0266 4.3933C9.85159 4.56834 9.6142 4.66667 9.36666 4.66667H5.63333C5.3858 4.66667 5.1484 4.56834 4.97336 4.3933C4.79833 4.21827 4.7 3.98087 4.7 3.73334V7.8e-06H1.9C1.5287 7.8e-06 1.1726 0.147507 0.91005 0.410058C0.647499 0.672609 0.5 1.0287 0.5 1.40001V12.6C0.5 12.9713 0.647499 13.3274 0.91005 13.5899C1.1726 13.8525 1.5287 14 1.9 14H2.83333V9.8C2.83333 9.4287 2.98083 9.0726 3.24338 8.81005C3.50593 8.5475 3.86203 8.4 4.23333 8.4H10.7667C11.138 8.4 11.4941 8.5475 11.7566 8.81005C12.0192 9.0726 12.1667 9.4287 12.1667 9.8V14H13.1C13.4713 14 13.8274 13.8525 14.0899 13.5899C14.3525 13.3274 14.5 12.9713 14.5 12.6V3.26667C14.5003 3.20526 14.4886 3.14437 14.4654 3.08752C14.4421 3.03066 14.4079 2.97894 14.3647 2.93534Z" fill="white"/>
<path d="M5.63379 0H9.36712V3.73333H5.63379V0Z" fill="white"/>
<path d="M10.7666 9.3335H4.23327C4.1095 9.3335 3.9908 9.38266 3.90329 9.47018C3.81577 9.5577 3.7666 9.67639 3.7666 9.80016V14.0002H11.2333V9.80016C11.2333 9.67639 11.1841 9.5577 11.0966 9.47018C11.0091 9.38266 10.8904 9.3335 10.7666 9.3335Z" fill="white"/>
</svg>
