<svg width="20" height="20" viewBox="0 0 20 20" fill="none" xmlns="http://www.w3.org/2000/svg">
<g clip-path="url(#clip0_642_32708)">
<path d="M12.1484 7.85205C12.5152 7.85205 12.8125 7.55474 12.8125 7.18799C12.8125 6.82124 12.5152 6.52393 12.1484 6.52393C11.7817 6.52393 11.4844 6.82124 11.4844 7.18799C11.4844 7.55474 11.7817 7.85205 12.1484 7.85205Z" fill="#C71E27"/>
<path d="M15.8984 13.477C16.2652 13.477 16.5625 13.1797 16.5625 12.813C16.5625 12.4462 16.2652 12.1489 15.8984 12.1489C15.5317 12.1489 15.2344 12.4462 15.2344 12.813C15.2344 13.1797 15.5317 13.477 15.8984 13.477Z" fill="#C71E27"/>
<path d="M19.4141 0.000488281H8.43103C8.10744 0.000488281 7.84509 0.262832 7.84509 0.586425V20.0005H19.4141C19.7376 20.0005 20 19.7381 20 19.4145V0.586425C20 0.262832 19.7376 0.000488281 19.4141 0.000488281ZM12.7344 8.92746V16.563C12.7344 16.8865 12.472 17.1489 12.1484 17.1489C11.8249 17.1489 11.5625 16.8865 11.5625 16.563V8.92746C10.8367 8.68235 10.3125 7.99547 10.3125 7.18797C10.3125 6.38048 10.8367 5.6936 11.5625 5.44849V3.43798C11.5625 3.11439 11.8249 2.85205 12.1484 2.85205C12.472 2.85205 12.7344 3.11439 12.7344 3.43798V5.44849C13.4602 5.6936 13.9844 6.38048 13.9844 7.18797C13.9844 7.99547 13.4602 8.68235 12.7344 8.92746ZM16.4844 14.5525V16.563C16.4844 16.8865 16.222 17.1489 15.8984 17.1489C15.5748 17.1489 15.3125 16.8865 15.3125 16.563V14.5525C14.5867 14.3073 14.0625 13.6205 14.0625 12.813C14.0625 12.0055 14.5867 11.3186 15.3125 11.0735V3.43798C15.3125 3.11439 15.5748 2.85205 15.8984 2.85205C16.222 2.85205 16.4844 3.11439 16.4844 3.43798V11.0735C17.2102 11.3186 17.7344 12.0055 17.7344 12.813C17.7344 13.6205 17.2102 14.3073 16.4844 14.5525Z" fill="#C71E27"/>
<path d="M4.73452 7.3757V8.3725C4.66941 8.39804 4.60484 8.42484 4.54081 8.45293L3.83577 7.74789C3.63878 7.5509 3.33031 7.51984 3.09804 7.67363C2.68808 7.94496 2.30335 8.25941 1.95441 8.60832C1.60508 8.95769 1.29058 9.3425 1.01972 9.75199C0.866092 9.98429 0.897186 10.2926 1.0941 10.4896L1.7991 11.1946C1.77101 11.2587 1.74418 11.3232 1.71863 11.3884H0.721874C0.443359 11.3884 0.20332 11.5845 0.147734 11.8574C0.0497265 12.3385 0 12.833 0 13.327C0 13.821 0.0497265 14.3155 0.147734 14.7967C0.20332 15.0696 0.443359 15.2656 0.721874 15.2656H1.71863C1.74418 15.3308 1.77101 15.3955 1.79906 15.4595L1.09422 16.1644C0.897303 16.3613 0.86617 16.6696 1.0198 16.9019C1.2907 17.3115 1.60519 17.6963 1.95461 18.0457C2.30386 18.3949 2.68863 18.7094 3.09824 18.9803C3.33054 19.134 3.6389 19.1029 3.83585 18.906L4.54073 18.2011C4.6048 18.2292 4.66941 18.256 4.73456 18.2816V19.2782C4.73456 19.5568 4.93066 19.7968 5.20358 19.8524C5.68522 19.9504 6.17968 20.0002 6.67319 20.0002V14.7701C5.87741 14.7701 5.23003 14.1228 5.23003 13.327C5.23003 12.5312 5.87745 11.8839 6.67319 11.8839V6.65527C6.17882 6.65527 5.68479 6.70344 5.20351 6.80152C4.93058 6.85715 4.73452 7.09719 4.73452 7.3757Z" fill="#292929"/>
</g>
<defs>
<clipPath id="clip0_642_32708">
<rect width="20" height="20" fill="white"/>
</clipPath>
</defs>
</svg>
