<svg width="20" height="20" viewBox="0 0 20 20" fill="none" xmlns="http://www.w3.org/2000/svg">
<g clip-path="url(#clip0_1243_50)">
<mask id="mask0_1243_50" style="mask-type:luminance" maskUnits="userSpaceOnUse" x="0" y="0" width="20" height="20">
<path d="M20 0H0V20H20V0Z" fill="white"/>
</mask>
<g mask="url(#mask0_1243_50)">
<path d="M19.5454 8.18181C19.7967 8.18181 20 7.97974 20 7.72853V5.91055C20 5.75033 19.9157 5.60165 19.7776 5.51996L10.874 0.232421C10.3213 -0.0738426 9.69813 -0.0831749 9.11351 0.238643L0.2224 5.51996C0.0843323 5.6016 0 5.75033 0 5.91055V7.72853C0 7.97974 0.203309 8.18181 0.454559 8.18181H1.81819V16.364C0.815411 16.364 0 17.1793 0 18.182V19.5455C0 19.7967 0.203309 20 0.454559 20H19.5454C19.7967 20 20 19.7967 20 19.5455V18.182C20 17.1793 19.1846 16.364 18.1818 16.364V8.18181H19.5454ZM8.18181 16.3636H5.45454V8.18181H8.18181V16.3636ZM9.99911 6.36592C8.9959 6.36592 8.18002 5.55013 8.18002 4.54705C8.18002 3.54397 8.9959 2.72817 9.99911 2.72817C11.0023 2.72817 11.8182 3.54397 11.8182 4.54705C11.8182 5.55013 11.0023 6.36592 9.99911 6.36592ZM14.5454 16.3636H11.8182V8.18181H14.5454V16.3636Z" fill="black"/>
</g>
</g>
<defs>
<clipPath id="clip0_1243_50">
<rect width="20" height="20" fill="white"/>
</clipPath>
</defs>
</svg>
