<svg width="50" height="50" viewBox="0 0 50 50" fill="none" xmlns="http://www.w3.org/2000/svg">
<g clip-path="url(#clip0_580_36069)">
<g clip-path="url(#clip1_580_36069)">
<path d="M36.1 1.66675C31.575 1.66675 27.525 3.89147 25 7.30439C22.475 3.89147 18.425 1.66675 13.9 1.66675C6.225 1.66675 3.8147e-06 7.98697 3.8147e-06 15.7988C3.8147e-06 18.8072 0.475004 21.5881 1.3 24.1667C5.25 36.8072 17.425 44.3662 23.45 46.4392C24.3 46.7426 25.7 46.7426 26.55 46.4392C32.575 44.3662 44.75 36.8072 48.7 24.1667C49.525 21.5881 50 18.8072 50 15.7988C50 7.98697 43.775 1.66675 36.1 1.66675Z" fill="#DADADA"/>
</g>
<path fill-rule="evenodd" clip-rule="evenodd" d="M32.0711 19.7574C32.8521 18.9764 32.8521 17.71 32.0711 16.929C31.29 16.1479 30.0237 16.1479 29.2426 16.929L25 21.1716L20.7574 16.929C19.9763 16.1479 18.71 16.1479 17.9289 16.929C17.1479 17.71 17.1479 18.9764 17.9289 19.7574L22.1716 24L17.9289 28.2427C17.1479 29.0237 17.1479 30.2901 17.9289 31.0711C18.71 31.8522 19.9763 31.8522 20.7574 31.0711L25 26.8285L29.2426 31.0711C30.0237 31.8522 31.29 31.8522 32.0711 31.0711C32.8521 30.2901 32.8521 29.0237 32.0711 28.2427L27.8284 24L32.0711 19.7574Z" fill="white"/>
</g>
<defs>
<clipPath id="clip0_580_36069">
<rect width="50" height="50" fill="white"/>
</clipPath>
<clipPath id="clip1_580_36069">
<rect width="50" height="50" fill="white"/>
</clipPath>
</defs>
</svg>
