<svg width="23" height="24" viewBox="0 0 23 24" fill="none" xmlns="http://www.w3.org/2000/svg">
<path d="M22.2602 17.06C22.1973 17.0102 17.6333 13.7204 16.3806 13.9565C15.7826 14.0623 15.4407 14.4702 14.7545 15.2867C14.6441 15.4186 14.3788 15.7344 14.1726 15.9591C13.739 15.8176 13.316 15.6455 12.9068 15.4439C10.7951 14.4158 9.08883 12.7095 8.06073 10.5978C7.859 10.1887 7.68682 9.76568 7.54553 9.332C7.77093 9.125 8.0868 8.85973 8.22173 8.74627C9.0344 8.06393 9.44303 7.722 9.54883 7.12247C9.7658 5.88047 6.47833 1.28507 6.44383 1.24367C6.29468 1.03059 6.10002 0.853328 5.87395 0.724712C5.64788 0.596097 5.39604 0.519342 5.13667 0.5C3.8042 0.5 0 5.43503 0 6.2661C0 6.3144 0.0697667 11.2241 6.12413 17.3828C12.2766 23.4302 17.1856 23.5 17.2339 23.5C18.0657 23.5 23 19.6958 23 18.3633C22.9809 18.1049 22.9046 17.8539 22.7766 17.6285C22.6487 17.4031 22.4723 17.2089 22.2602 17.06Z" fill="#C71E27"/>
</svg>
