<svg width="16" height="16" viewBox="0 0 16 16" fill="none" xmlns="http://www.w3.org/2000/svg">
<path d="M6.42498 6.40582C6.7682 6.05798 6.7682 5.49402 6.42498 5.14618C6.08176 4.79835 5.52528 4.79835 5.18206 5.14618C4.83884 5.49402 4.83884 6.05798 5.18206 6.40582C5.52529 6.75366 6.08176 6.75366 6.42498 6.40582Z" fill="#EF7446"/>
<path d="M10.1939 11.1149C10.6794 11.1149 11.073 10.7161 11.073 10.2241C11.073 9.73212 10.6794 9.33328 10.1939 9.33328C9.70848 9.33328 9.31494 9.73212 9.31494 10.2241C9.31494 10.7161 9.70848 11.1149 10.1939 11.1149Z" fill="#EF7446"/>
<path d="M14.6648 6.42052C14.381 6.12285 14.2506 5.71655 14.3077 5.30676L14.5508 3.55813C14.5838 3.31956 14.4265 3.09967 14.1919 3.05796L12.4755 2.75291C12.0724 2.68121 11.7312 2.42961 11.5395 2.06328L10.7239 0.504105C10.612 0.290297 10.356 0.206433 10.1429 0.312466L8.57833 1.08859C8.21042 1.2711 7.78852 1.2711 7.42064 1.08859L5.856 0.312466C5.79341 0.281619 5.72694 0.266829 5.66175 0.266829C5.50482 0.266829 5.35388 0.352878 5.275 0.504105L4.4599 2.06284C4.27081 2.42439 3.92093 2.68206 3.52346 2.75246L1.80748 3.05752C1.57295 3.09923 1.41514 3.31912 1.44817 3.5581L1.6913 5.30673C1.74833 5.71652 1.61798 6.12238 1.33454 6.42049L0.123631 7.6907C-0.0418698 7.86451 -0.0418698 8.13568 0.123194 8.30948L1.33407 9.57967C1.61792 9.87734 1.74826 10.2836 1.69123 10.6934L1.44811 12.4421C1.41511 12.681 1.57245 12.9005 1.80698 12.9422L3.5234 13.2473C3.92646 13.319 4.26775 13.5706 4.45943 13.9369L5.27497 15.4961C5.38647 15.7099 5.64288 15.7933 5.85597 15.6877L7.42058 14.9116C7.78848 14.7291 8.21039 14.7291 8.57827 14.9116L10.1429 15.6877C10.356 15.7933 10.612 15.7099 10.7239 15.4961L11.539 13.9374C11.7281 13.5762 12.0779 13.3181 12.4754 13.2477L14.1914 12.9427C14.4259 12.901 14.5837 12.6811 14.5507 12.4421L14.3076 10.6935C14.2505 10.2837 14.3805 9.87781 14.6643 9.5797L15.8752 8.30952H15.8757C16.0407 8.13571 16.0407 7.86454 15.8757 7.69074L14.6648 6.42052ZM4.04781 5.77606C4.04781 4.79398 4.83591 3.99528 5.80494 3.99528C6.77398 3.99528 7.56208 4.79398 7.56208 5.77606C7.56208 6.75813 6.77398 7.55683 5.80494 7.55683C4.83591 7.55683 4.04781 6.75816 4.04781 5.77606ZM5.67547 10.9846C5.58972 11.0715 5.47738 11.1149 5.36503 11.1149C5.25269 11.1149 5.14035 11.0715 5.05459 10.9846C4.88309 10.8108 4.88309 10.5292 5.05459 10.3553L10.3234 5.01561C10.4949 4.84181 10.7728 4.84181 10.9443 5.01561C11.1158 5.18942 11.1158 5.47104 10.9443 5.64485L5.67547 10.9846ZM10.194 12.0049C9.22493 12.0049 8.43683 11.2062 8.43683 10.2241C8.43683 9.24206 9.22493 8.44336 10.194 8.44336C11.163 8.44336 11.9511 9.24206 11.9511 10.2241C11.9511 11.2062 11.163 12.0049 10.194 12.0049Z" fill="#EF7446"/>
</svg>
