<svg width="14" height="14" viewBox="0 0 14 14" fill="none" xmlns="http://www.w3.org/2000/svg">
<path d="M7.00041 7.26985C9.01133 7.26985 10.6551 5.63494 10.6551 3.63493C10.6551 1.63491 9.01133 0 7.00041 0C4.9895 0 3.3457 1.63491 3.3457 3.63493C3.3457 5.63494 4.98953 7.26985 7.00041 7.26985Z" fill="#DADADA"/>
<path d="M13.2733 10.1745C13.1775 9.93641 13.0498 9.7142 12.9062 9.50785C12.1721 8.42847 11.039 7.71419 9.76219 7.53958C9.60261 7.52372 9.42706 7.55544 9.29937 7.65069C8.62906 8.14276 7.8311 8.39672 7.00118 8.39672C6.17127 8.39672 5.37331 8.14276 4.703 7.65069C4.57531 7.55544 4.39976 7.50783 4.24017 7.53958C2.96341 7.71419 1.81433 8.42847 1.09616 9.50785C0.952526 9.7142 0.824838 9.9523 0.729102 10.1745C0.681234 10.2698 0.697179 10.3809 0.745047 10.4761C0.872736 10.6983 1.03232 10.9206 1.17595 11.111C1.39938 11.4126 1.63878 11.6825 1.9101 11.9364C2.13352 12.1586 2.38887 12.365 2.64425 12.5714C3.90504 13.5079 5.4212 13.9999 6.98524 13.9999C8.54927 13.9999 10.0654 13.5078 11.3262 12.5714C11.5816 12.3809 11.8369 12.1586 12.0604 11.9364C12.3157 11.6825 12.5711 11.4126 12.7945 11.111C12.9541 10.9047 13.0978 10.6983 13.2254 10.4761C13.3052 10.3809 13.3211 10.2697 13.2733 10.1745Z" fill="#DADADA"/>
</svg>
