<svg width="23" height="24" viewBox="0 0 23 24" fill="none" xmlns="http://www.w3.org/2000/svg">
<g clip-path="url(#clip0_63_999)">
<path d="M17.9344 9.22874C17.8712 9.15102 17.7946 9.1663 17.7545 9.18215C17.7208 9.19554 17.6438 9.2383 17.6544 9.34549C17.6673 9.47419 17.6744 9.6054 17.6758 9.73554C17.6815 10.2754 17.4609 10.8043 17.0706 11.1866C16.6828 11.5665 16.1727 11.7712 15.6295 11.7652C14.8876 11.7559 14.2723 11.376 13.85 10.6666C13.5008 10.08 13.6543 9.32334 13.8168 8.52225C13.9118 8.05336 14.0102 7.56848 14.0102 7.10699C14.0102 3.51375 11.5496 1.44071 10.0829 0.524798C10.0526 0.505885 10.0237 0.499237 9.9981 0.499237C9.95651 0.499237 9.92356 0.516846 9.90732 0.527628C9.87584 0.548561 9.82546 0.596268 9.84166 0.680721C10.4023 3.60342 8.73011 5.36125 6.95975 7.22226C5.13494 9.14055 3.06665 11.3148 3.06665 15.2361C3.06665 19.7924 6.84243 23.4992 11.4835 23.4992C15.3048 23.4992 18.674 20.8837 19.6767 17.1388C20.3604 14.5853 19.6439 11.3326 17.9344 9.22874ZM11.6935 21.7355C10.5314 21.7875 9.42613 21.3783 8.58195 20.5859C7.74683 19.8019 7.26784 18.7078 7.26784 17.5842C7.26784 15.4755 8.0891 13.9275 10.298 11.8724C10.3341 11.8388 10.3712 11.8281 10.4034 11.8281C10.4327 11.8281 10.458 11.8369 10.4754 11.8451C10.5122 11.8625 10.5726 11.9055 10.5644 11.9986C10.4855 12.9009 10.4868 13.6498 10.5685 14.2246C10.7771 15.6928 11.872 16.6794 13.293 16.6794C13.9897 16.6794 14.6533 16.422 15.1616 15.9545C15.2206 15.9003 15.2865 15.9072 15.3118 15.9125C15.3452 15.9196 15.39 15.9397 15.4135 15.9952C15.6242 16.4948 15.7319 17.0251 15.7336 17.5713C15.7403 19.7691 13.9279 21.6372 11.6935 21.7355Z" fill="#C71E27"/>
</g>
<defs>
<clipPath id="clip0_63_999">
<rect width="23" height="23" fill="white" transform="translate(0 0.5)"/>
</clipPath>
</defs>
</svg>
