<svg width="10" height="10" viewBox="0 0 10 10" fill="none" xmlns="http://www.w3.org/2000/svg">
<g clip-path="url(#clip0_1218_16)">
<mask id="mask0_1218_16" style="mask-type:luminance" maskUnits="userSpaceOnUse" x="0" y="0" width="10" height="10">
<path d="M10 0H0V10H10V0Z" fill="white"/>
</mask>
<g mask="url(#mask0_1218_16)">
<path d="M9.79286 4.67374L0.50737 0.365743C0.359517 0.298251 0.183092 0.338459 0.0802374 0.466263C-0.0233315 0.594067 -0.0269029 0.77572 0.0716662 0.907114L3.12516 4.99972L0.0716662 9.09231C-0.0269029 9.22371 -0.0233315 9.40608 0.0795232 9.53316C0.148807 9.62004 0.252376 9.66671 0.357374 9.66671C0.408087 9.66671 0.4588 9.65594 0.506656 9.63368L9.79215 5.32569C9.91929 5.26681 10 5.13973 10 4.99972C10 4.85971 9.91929 4.73262 9.79286 4.67374Z" fill="black"/>
</g>
</g>
<defs>
<clipPath id="clip0_1218_16">
<rect width="10" height="10" fill="white"/>
</clipPath>
</defs>
</svg>
