<svg width="12" height="17" viewBox="0 0 12 17" fill="none" xmlns="http://www.w3.org/2000/svg">
<path d="M5.99997 0.500244C4.44466 0.502354 2.95365 1.13517 1.85389 2.25993C0.75412 3.38469 0.135364 4.90959 0.133301 6.50024C0.133301 10.8077 5.59908 16.2027 5.8313 16.4302C5.87647 16.4751 5.93698 16.5002 5.99997 16.5002C6.06296 16.5002 6.12346 16.4751 6.16863 16.4302C6.40086 16.2027 11.8666 10.8077 11.8666 6.50024C11.8646 4.90959 11.2458 3.38469 10.146 2.25993C9.04628 1.13517 7.55527 0.502354 5.99997 0.500244ZM5.99997 9.25023C5.46816 9.25023 4.94829 9.08895 4.5061 8.78678C4.06392 8.4846 3.71927 8.05511 3.51576 7.55262C3.31224 7.05012 3.25899 6.49719 3.36275 5.96374C3.4665 5.43029 3.72259 4.94029 4.09864 4.5557C4.47468 4.1711 4.9538 3.90919 5.47539 3.80308C5.99698 3.69697 6.53763 3.75143 7.02896 3.95957C7.52029 4.16771 7.94024 4.52019 8.2357 4.97242C8.53116 5.42466 8.68886 5.95634 8.68886 6.50024C8.68843 7.22945 8.405 7.92867 7.90083 8.4443C7.39666 8.95993 6.71297 9.2498 5.99997 9.25023Z" fill="#C71E27"/>
</svg>
