<svg width="40" height="40" viewBox="0 0 40 40" fill="none" xmlns="http://www.w3.org/2000/svg">
<path d="M18.7063 40C9.11147 40 1.33335 32.278 1.33335 22.7523C1.33335 13.2267 9.11147 5.5046 18.7063 5.5046V9.90827C11.5612 9.90827 5.76899 15.6587 5.76899 22.7523C5.76899 29.8459 11.5612 35.5963 18.7063 35.5963V40Z" fill="#C71E27"/>
<path fill-rule="evenodd" clip-rule="evenodd" d="M36.1897 0H20.1849V9.91339C27.159 10.1077 32.7525 15.7815 32.7525 22.7523C32.7525 29.7231 27.159 35.3969 20.1849 35.5912V40H36.1897C37.5577 40 38.6667 38.891 38.6667 37.5229V2.47706C38.6667 1.10902 37.5577 0 36.1897 0Z" fill="#292929"/>
<path d="M18.7063 0H16.1972C15.1332 0 14.2706 0.862571 14.2706 1.92661V9.54128H18.7063V0Z" fill="#C71E27"/>
</svg>
